<ttFont>
    <TTGlyph name="A" xMin="-20" yMin="-15" xMax="1423" yMax="1394">
      <contour>
        <pt x="172" y="0" on="0"/>
        <pt x="83" y="-15" on="0"/>
        <pt x="-20" y="-15" on="0"/>
        <pt x="-20" y="52" on="0"/>
        <pt x="27" y="52" on="1"/>
        <pt x="76" y="52" on="0"/>
        <pt x="97" y="70" on="1"/>
        <pt x="131" y="101" on="0"/>
        <pt x="197" y="241" on="0"/>
        <pt x="254" y="363" on="0"/>
        <pt x="328" y="526" on="0"/>
        <pt x="417" y="727" on="0"/>
        <pt x="466" y="840" on="1"/>
        <pt x="594" y="1137" on="0"/>
        <pt x="676" y="1342" on="0"/>
        <pt x="685" y="1364" on="0"/>
        <pt x="690" y="1373" on="1"/>
        <pt x="703" y="1394" on="0"/>
        <pt x="721" y="1394" on="0"/>
        <pt x="733" y="1389" on="0"/>
        <pt x="740" y="1382" on="1"/>
        <pt x="755" y="1363" on="0"/>
        <pt x="785" y="1288" on="0"/>
        <pt x="836" y="1160" on="0"/>
        <pt x="902" y="998" on="0"/>
        <pt x="976" y="812" on="0"/>
        <pt x="1051" y="627" on="0"/>
        <pt x="1122" y="453" on="0"/>
        <pt x="1150" y="383" on="1"/>
        <pt x="1236" y="174" on="0"/>
        <pt x="1284" y="92" on="0"/>
        <pt x="1300" y="76" on="1"/>
        <pt x="1325" y="52" on="0"/>
        <pt x="1423" y="52" on="0"/>
        <pt x="1423" y="-15" on="0"/>
        <pt x="1360" y="-15" on="1"/>
        <pt x="1333" y="-15" on="0"/>
        <pt x="1294" y="-10" on="0"/>
        <pt x="1274" y="-8" on="1"/>
        <pt x="1216" y="0" on="0"/>
        <pt x="1171" y="0" on="1"/>
        <pt x="978" y="-15" on="1"/>
        <pt x="913" y="-15" on="0"/>
        <pt x="913" y="22" on="1"/>
        <pt x="913" y="52" on="0"/>
        <pt x="949" y="52" on="1"/>
        <pt x="1009" y="45" on="1"/>
        <pt x="1047" y="45" on="0"/>
        <pt x="1071" y="78" on="0"/>
        <pt x="1071" y="103" on="1"/>
        <pt x="1071" y="150" on="0"/>
        <pt x="1031" y="249" on="1"/>
        <pt x="948" y="457" on="1"/>
        <pt x="393" y="457" on="1"/>
        <pt x="369" y="397" on="0"/>
        <pt x="328" y="297" on="0"/>
        <pt x="311" y="250" on="1"/>
        <pt x="284" y="174" on="0"/>
        <pt x="284" y="87" on="0"/>
        <pt x="315" y="46" on="0"/>
        <pt x="358" y="46" on="1"/>
        <pt x="418" y="51" on="1"/>
        <pt x="454" y="51" on="0"/>
        <pt x="454" y="22" on="1"/>
        <pt x="454" y="-15" on="0"/>
        <pt x="389" y="-15" on="1"/>
        <pt x="223" y="0" on="1"/>
      </contour>
      <contour>
        <pt x="914" y="542" on="1"/>
        <pt x="676" y="1138" on="1"/>
        <pt x="607" y="963" on="0"/>
        <pt x="429" y="542" on="1"/>
      </contour>
    </TTGlyph>
    <TTGlyph name="AE" xMin="20" yMin="-20" xMax="1828" yMax="1356">
      <contour>
        <pt x="224" y="0" on="0"/>
        <pt x="122" y="-15" on="0"/>
        <pt x="20" y="-15" on="0"/>
        <pt x="20" y="51" on="0"/>
        <pt x="55" y="51" on="1"/>
        <pt x="116" y="51" on="0"/>
        <pt x="160" y="84" on="1"/>
        <pt x="242" y="147" on="0"/>
        <pt x="315" y="260" on="1"/>
        <pt x="974" y="1270" on="1"/>
        <pt x="944" y="1294" on="0"/>
        <pt x="892" y="1294" on="1"/>
        <pt x="843" y="1290" on="1"/>
        <pt x="807" y="1290" on="0"/>
        <pt x="807" y="1319" on="1"/>
        <pt x="807" y="1356" on="0"/>
        <pt x="900" y="1356" on="1"/>
        <pt x="1214" y="1340" on="1"/>
        <pt x="1246" y="1340" on="0"/>
        <pt x="1360" y="1345" on="0"/>
        <pt x="1432" y="1348" on="1"/>
        <pt x="1622" y="1356" on="0"/>
        <pt x="1771" y="1356" on="0"/>
        <pt x="1788" y="1338" on="0"/>
        <pt x="1788" y="1307" on="0"/>
        <pt x="1787" y="1279" on="0"/>
        <pt x="1786" y="1262" on="1"/>
        <pt x="1785" y="1239" on="0"/>
        <pt x="1775" y="1148" on="0"/>
        <pt x="1761" y="1117" on="0"/>
        <pt x="1735" y="1117" on="0"/>
        <pt x="1725" y="1130" on="0"/>
        <pt x="1708" y="1177" on="0"/>
        <pt x="1665" y="1220" on="0"/>
        <pt x="1618" y="1234" on="1"/>
        <pt x="1529" y="1261" on="0"/>
        <pt x="1286" y="1261" on="1"/>
        <pt x="1197" y="1261" on="1"/>
        <pt x="1173" y="1261" on="0"/>
        <pt x="1160" y="1247" on="0"/>
        <pt x="1160" y="1222" on="1"/>
        <pt x="1160" y="801" on="1"/>
        <pt x="1279" y="787" on="0"/>
        <pt x="1436" y="787" on="0"/>
        <pt x="1503" y="789" on="0"/>
        <pt x="1525" y="794" on="1"/>
        <pt x="1564" y="801" on="0"/>
        <pt x="1581" y="829" on="1"/>
        <pt x="1615" y="882" on="0"/>
        <pt x="1636" y="882" on="1"/>
        <pt x="1663" y="882" on="0"/>
        <pt x="1663" y="854" on="1"/>
        <pt x="1628" y="712" on="1"/>
        <pt x="1632" y="636" on="1"/>
        <pt x="1632" y="564" on="0"/>
        <pt x="1598" y="564" on="1"/>
        <pt x="1569" y="564" on="0"/>
        <pt x="1569" y="641" on="0"/>
        <pt x="1560" y="679" on="0"/>
        <pt x="1540" y="690" on="1"/>
        <pt x="1507" y="706" on="0"/>
        <pt x="1259" y="706" on="0"/>
        <pt x="1160" y="695" on="1"/>
        <pt x="1160" y="458" on="1"/>
        <pt x="1160" y="237" on="0"/>
        <pt x="1170" y="93" on="1"/>
        <pt x="1251" y="75" on="0"/>
        <pt x="1441" y="75" on="0"/>
        <pt x="1576" y="85" on="0"/>
        <pt x="1626" y="100" on="1"/>
        <pt x="1722" y="129" on="0"/>
        <pt x="1768" y="211" on="1"/>
        <pt x="1788" y="247" on="0"/>
        <pt x="1828" y="247" on="0"/>
        <pt x="1828" y="218" on="1"/>
        <pt x="1828" y="206" on="0"/>
        <pt x="1822" y="187" on="1"/>
        <pt x="1813" y="161" on="0"/>
        <pt x="1783" y="58" on="0"/>
        <pt x="1767" y="12" on="0"/>
        <pt x="1758" y="0" on="1"/>
        <pt x="1742" y="-20" on="0"/>
        <pt x="1654" y="-20" on="0"/>
        <pt x="1572" y="-19" on="0"/>
        <pt x="1526" y="-18" on="1"/>
        <pt x="1475" y="-16" on="0"/>
        <pt x="1366" y="-10" on="1"/>
        <pt x="1094" y="3" on="0"/>
        <pt x="1000" y="-5" on="0"/>
        <pt x="952" y="-10" on="0"/>
        <pt x="906" y="-15" on="0"/>
        <pt x="875" y="-15" on="1"/>
        <pt x="820" y="-15" on="0"/>
        <pt x="820" y="22" on="1"/>
        <pt x="820" y="51" on="0"/>
        <pt x="856" y="51" on="1"/>
        <pt x="905" y="46" on="1"/>
        <pt x="961" y="46" on="0"/>
        <pt x="980" y="94" on="1"/>
        <pt x="1003" y="149" on="0"/>
        <pt x="1003" y="314" on="1"/>
        <pt x="1003" y="457" on="1"/>
        <pt x="547" y="457" on="1"/>
        <pt x="414" y="252" on="1"/>
        <pt x="344" y="144" on="0"/>
        <pt x="344" y="46" on="0"/>
        <pt x="415" y="46" on="1"/>
        <pt x="475" y="51" on="1"/>
        <pt x="511" y="51" on="0"/>
        <pt x="511" y="22" on="1"/>
        <pt x="511" y="-15" on="0"/>
        <pt x="446" y="-15" on="1"/>
        <pt x="284" y="0" on="1"/>
      </contour>
      <contour>
        <pt x="1003" y="1215" on="1"/>
        <pt x="1003" y="1221" on="0"/>
        <pt x="1002" y="1222" on="1"/>
      </contour>
      <contour>
        <pt x="1001" y="542" on="1"/>
        <pt x="1003" y="536" on="1"/>
        <pt x="1003" y="1159" on="1"/>
        <pt x="602" y="542" on="1"/>
      </contour>
    </TTGlyph>
    <TTGlyph name="Aacute" xMin="-20" yMin="-15" xMax="1423" yMax="1764">
      <contour>
        <pt x="595" y="1529" on="1"/>
        <pt x="535" y="1509" on="0"/>
        <pt x="515" y="1509" on="0"/>
        <pt x="497" y="1535" on="0"/>
        <pt x="497" y="1545" on="1"/>
        <pt x="497" y="1561" on="0"/>
        <pt x="518" y="1573" on="1"/>
        <pt x="857" y="1756" on="1"/>
        <pt x="870" y="1764" on="0"/>
        <pt x="884" y="1764" on="0"/>
        <pt x="904" y="1746" on="0"/>
        <pt x="914" y="1732" on="1"/>
        <pt x="939" y="1695" on="0"/>
        <pt x="939" y="1654" on="0"/>
        <pt x="931" y="1643" on="0"/>
        <pt x="920" y="1639" on="1"/>
      </contour>
      <contour>
        <pt x="172" y="0" on="0"/>
        <pt x="83" y="-15" on="0"/>
        <pt x="-20" y="-15" on="0"/>
        <pt x="-20" y="52" on="0"/>
        <pt x="27" y="52" on="1"/>
        <pt x="76" y="52" on="0"/>
        <pt x="97" y="70" on="1"/>
        <pt x="131" y="101" on="0"/>
        <pt x="197" y="241" on="0"/>
        <pt x="254" y="363" on="0"/>
        <pt x="328" y="526" on="0"/>
        <pt x="417" y="727" on="0"/>
        <pt x="466" y="840" on="1"/>
        <pt x="594" y="1137" on="0"/>
        <pt x="676" y="1342" on="0"/>
        <pt x="685" y="1364" on="0"/>
        <pt x="690" y="1373" on="1"/>
        <pt x="703" y="1394" on="0"/>
        <pt x="721" y="1394" on="0"/>
        <pt x="733" y="1389" on="0"/>
        <pt x="740" y="1382" on="1"/>
        <pt x="755" y="1363" on="0"/>
        <pt x="785" y="1288" on="0"/>
        <pt x="836" y="1160" on="0"/>
        <pt x="902" y="998" on="0"/>
        <pt x="976" y="812" on="0"/>
        <pt x="1051" y="627" on="0"/>
        <pt x="1122" y="453" on="0"/>
        <pt x="1150" y="383" on="1"/>
        <pt x="1236" y="174" on="0"/>
        <pt x="1284" y="92" on="0"/>
        <pt x="1300" y="76" on="1"/>
        <pt x="1325" y="52" on="0"/>
        <pt x="1423" y="52" on="0"/>
        <pt x="1423" y="-15" on="0"/>
        <pt x="1360" y="-15" on="1"/>
        <pt x="1333" y="-15" on="0"/>
        <pt x="1294" y="-10" on="0"/>
        <pt x="1274" y="-8" on="1"/>
        <pt x="1216" y="0" on="0"/>
        <pt x="1171" y="0" on="1"/>
        <pt x="978" y="-15" on="1"/>
        <pt x="913" y="-15" on="0"/>
        <pt x="913" y="22" on="1"/>
        <pt x="913" y="52" on="0"/>
        <pt x="949" y="52" on="1"/>
        <pt x="1009" y="45" on="1"/>
        <pt x="1047" y="45" on="0"/>
        <pt x="1071" y="78" on="0"/>
        <pt x="1071" y="103" on="1"/>
        <pt x="1071" y="150" on="0"/>
        <pt x="1031" y="249" on="1"/>
        <pt x="948" y="457" on="1"/>
        <pt x="393" y="457" on="1"/>
        <pt x="369" y="397" on="0"/>
        <pt x="328" y="297" on="0"/>
        <pt x="311" y="250" on="1"/>
        <pt x="284" y="174" on="0"/>
        <pt x="284" y="87" on="0"/>
        <pt x="315" y="46" on="0"/>
        <pt x="358" y="46" on="1"/>
        <pt x="418" y="51" on="1"/>
        <pt x="454" y="51" on="0"/>
        <pt x="454" y="22" on="1"/>
        <pt x="454" y="-15" on="0"/>
        <pt x="389" y="-15" on="1"/>
        <pt x="223" y="0" on="1"/>
      </contour>
      <contour>
        <pt x="914" y="542" on="1"/>
        <pt x="676" y="1138" on="1"/>
        <pt x="607" y="963" on="0"/>
        <pt x="429" y="542" on="1"/>
      </contour>
    </TTGlyph>
    <TTGlyph name="Acircumflex" xMin="-20" yMin="-15" xMax="1423" yMax="1770">
      <contour>
        <pt x="530" y="1520" on="1"/>
        <pt x="501" y="1501" on="0"/>
        <pt x="482" y="1501" on="0"/>
        <pt x="457" y="1527" on="0"/>
        <pt x="457" y="1536" on="1"/>
        <pt x="457" y="1549" on="0"/>
        <pt x="474" y="1564" on="1"/>
        <pt x="664" y="1733" on="1"/>
        <pt x="678" y="1745" on="0"/>
        <pt x="695" y="1760" on="0"/>
        <pt x="700" y="1764" on="1"/>
        <pt x="709" y="1770" on="0"/>
        <pt x="721" y="1770" on="0"/>
        <pt x="728" y="1768" on="0"/>
        <pt x="734" y="1764" on="1"/>
        <pt x="742" y="1759" on="0"/>
        <pt x="772" y="1733" on="1"/>
        <pt x="962" y="1564" on="1"/>
        <pt x="979" y="1549" on="0"/>
        <pt x="979" y="1527" on="0"/>
        <pt x="954" y="1501" on="0"/>
        <pt x="946" y="1501" on="1"/>
        <pt x="935" y="1501" on="0"/>
        <pt x="906" y="1520" on="1"/>
        <pt x="718" y="1638" on="1"/>
      </contour>
      <contour>
        <pt x="172" y="0" on="0"/>
        <pt x="83" y="-15" on="0"/>
        <pt x="-20" y="-15" on="0"/>
        <pt x="-20" y="52" on="0"/>
        <pt x="27" y="52" on="1"/>
        <pt x="76" y="52" on="0"/>
        <pt x="97" y="70" on="1"/>
        <pt x="131" y="101" on="0"/>
        <pt x="197" y="241" on="0"/>
        <pt x="254" y="363" on="0"/>
        <pt x="328" y="526" on="0"/>
        <pt x="417" y="727" on="0"/>
        <pt x="466" y="840" on="1"/>
        <pt x="594" y="1137" on="0"/>
        <pt x="676" y="1342" on="0"/>
        <pt x="685" y="1364" on="0"/>
        <pt x="690" y="1373" on="1"/>
        <pt x="703" y="1394" on="0"/>
        <pt x="721" y="1394" on="0"/>
        <pt x="733" y="1389" on="0"/>
        <pt x="740" y="1382" on="1"/>
        <pt x="755" y="1363" on="0"/>
        <pt x="785" y="1288" on="0"/>
        <pt x="836" y="1160" on="0"/>
        <pt x="902" y="998" on="0"/>
        <pt x="976" y="812" on="0"/>
        <pt x="1051" y="627" on="0"/>
        <pt x="1122" y="453" on="0"/>
        <pt x="1150" y="383" on="1"/>
        <pt x="1236" y="174" on="0"/>
        <pt x="1284" y="92" on="0"/>
        <pt x="1300" y="76" on="1"/>
        <pt x="1325" y="52" on="0"/>
        <pt x="1423" y="52" on="0"/>
        <pt x="1423" y="-15" on="0"/>
        <pt x="1360" y="-15" on="1"/>
        <pt x="1333" y="-15" on="0"/>
        <pt x="1294" y="-10" on="0"/>
        <pt x="1274" y="-8" on="1"/>
        <pt x="1216" y="0" on="0"/>
        <pt x="1171" y="0" on="1"/>
        <pt x="978" y="-15" on="1"/>
        <pt x="913" y="-15" on="0"/>
        <pt x="913" y="22" on="1"/>
        <pt x="913" y="52" on="0"/>
        <pt x="949" y="52" on="1"/>
        <pt x="1009" y="45" on="1"/>
        <pt x="1047" y="45" on="0"/>
        <pt x="1071" y="78" on="0"/>
        <pt x="1071" y="103" on="1"/>
        <pt x="1071" y="150" on="0"/>
        <pt x="1031" y="249" on="1"/>
        <pt x="948" y="457" on="1"/>
        <pt x="393" y="457" on="1"/>
        <pt x="369" y="397" on="0"/>
        <pt x="328" y="297" on="0"/>
        <pt x="311" y="250" on="1"/>
        <pt x="284" y="174" on="0"/>
        <pt x="284" y="87" on="0"/>
        <pt x="315" y="46" on="0"/>
        <pt x="358" y="46" on="1"/>
        <pt x="418" y="51" on="1"/>
        <pt x="454" y="51" on="0"/>
        <pt x="454" y="22" on="1"/>
        <pt x="454" y="-15" on="0"/>
        <pt x="389" y="-15" on="1"/>
        <pt x="223" y="0" on="1"/>
      </contour>
      <contour>
        <pt x="914" y="542" on="1"/>
        <pt x="676" y="1138" on="1"/>
        <pt x="607" y="963" on="0"/>
        <pt x="429" y="542" on="1"/>
      </contour>
    </TTGlyph>
    <TTGlyph name="Adieresis" xMin="-20" yMin="-15" xMax="1423" yMax="1742">
      <contour>
        <pt x="1047" y="1601" on="0"/>
        <pt x="990" y="1542" on="0"/>
        <pt x="893" y="1542" on="0"/>
        <pt x="840" y="1599" on="0"/>
        <pt x="840" y="1666" on="0"/>
        <pt x="858" y="1702" on="0"/>
        <pt x="872" y="1715" on="1"/>
        <pt x="903" y="1742" on="0"/>
        <pt x="992" y="1742" on="0"/>
        <pt x="1047" y="1686" on="0"/>
      </contour>
      <contour>
        <pt x="597" y="1601" on="0"/>
        <pt x="540" y="1542" on="0"/>
        <pt x="443" y="1542" on="0"/>
        <pt x="390" y="1599" on="0"/>
        <pt x="390" y="1666" on="0"/>
        <pt x="408" y="1702" on="0"/>
        <pt x="422" y="1715" on="1"/>
        <pt x="453" y="1742" on="0"/>
        <pt x="542" y="1742" on="0"/>
        <pt x="597" y="1686" on="0"/>
      </contour>
      <contour>
        <pt x="172" y="0" on="0"/>
        <pt x="83" y="-15" on="0"/>
        <pt x="-20" y="-15" on="0"/>
        <pt x="-20" y="52" on="0"/>
        <pt x="27" y="52" on="1"/>
        <pt x="76" y="52" on="0"/>
        <pt x="97" y="70" on="1"/>
        <pt x="131" y="101" on="0"/>
        <pt x="197" y="241" on="0"/>
        <pt x="254" y="363" on="0"/>
        <pt x="328" y="526" on="0"/>
        <pt x="417" y="727" on="0"/>
        <pt x="466" y="840" on="1"/>
        <pt x="594" y="1137" on="0"/>
        <pt x="676" y="1342" on="0"/>
        <pt x="685" y="1364" on="0"/>
        <pt x="690" y="1373" on="1"/>
        <pt x="703" y="1394" on="0"/>
        <pt x="721" y="1394" on="0"/>
        <pt x="733" y="1389" on="0"/>
        <pt x="740" y="1382" on="1"/>
        <pt x="755" y="1363" on="0"/>
        <pt x="785" y="1288" on="0"/>
        <pt x="836" y="1160" on="0"/>
        <pt x="902" y="998" on="0"/>
        <pt x="976" y="812" on="0"/>
        <pt x="1051" y="627" on="0"/>
        <pt x="1122" y="453" on="0"/>
        <pt x="1150" y="383" on="1"/>
        <pt x="1236" y="174" on="0"/>
        <pt x="1284" y="92" on="0"/>
        <pt x="1300" y="76" on="1"/>
        <pt x="1325" y="52" on="0"/>
        <pt x="1423" y="52" on="0"/>
        <pt x="1423" y="-15" on="0"/>
        <pt x="1360" y="-15" on="1"/>
        <pt x="1333" y="-15" on="0"/>
        <pt x="1294" y="-10" on="0"/>
        <pt x="1274" y="-8" on="1"/>
        <pt x="1216" y="0" on="0"/>
        <pt x="1171" y="0" on="1"/>
        <pt x="978" y="-15" on="1"/>
        <pt x="913" y="-15" on="0"/>
        <pt x="913" y="22" on="1"/>
        <pt x="913" y="52" on="0"/>
        <pt x="949" y="52" on="1"/>
        <pt x="1009" y="45" on="1"/>
        <pt x="1047" y="45" on="0"/>
        <pt x="1071" y="78" on="0"/>
        <pt x="1071" y="103" on="1"/>
        <pt x="1071" y="150" on="0"/>
        <pt x="1031" y="249" on="1"/>
        <pt x="948" y="457" on="1"/>
        <pt x="393" y="457" on="1"/>
        <pt x="369" y="397" on="0"/>
        <pt x="328" y="297" on="0"/>
        <pt x="311" y="250" on="1"/>
        <pt x="284" y="174" on="0"/>
        <pt x="284" y="87" on="0"/>
        <pt x="315" y="46" on="0"/>
        <pt x="358" y="46" on="1"/>
        <pt x="418" y="51" on="1"/>
        <pt x="454" y="51" on="0"/>
        <pt x="454" y="22" on="1"/>
        <pt x="454" y="-15" on="0"/>
        <pt x="389" y="-15" on="1"/>
        <pt x="223" y="0" on="1"/>
      </contour>
      <contour>
        <pt x="914" y="542" on="1"/>
        <pt x="676" y="1138" on="1"/>
        <pt x="607" y="963" on="0"/>
        <pt x="429" y="542" on="1"/>
      </contour>
    </TTGlyph>
    <TTGlyph name="Agrave" xMin="-20" yMin="-15" xMax="1423" yMax="1761">
      <contour>
        <pt x="516" y="1636" on="1"/>
        <pt x="497" y="1643" on="0"/>
        <pt x="497" y="1676" on="0"/>
        <pt x="512" y="1714" on="0"/>
        <pt x="522" y="1728" on="1"/>
        <pt x="544" y="1761" on="0"/>
        <pt x="556" y="1761" on="1"/>
        <pt x="566" y="1761" on="0"/>
        <pt x="579" y="1753" on="1"/>
        <pt x="918" y="1570" on="1"/>
        <pt x="939" y="1558" on="0"/>
        <pt x="939" y="1532" on="0"/>
        <pt x="921" y="1506" on="0"/>
        <pt x="912" y="1506" on="1"/>
        <pt x="901" y="1506" on="0"/>
        <pt x="841" y="1526" on="1"/>
      </contour>
      <contour>
        <pt x="172" y="0" on="0"/>
        <pt x="83" y="-15" on="0"/>
        <pt x="-20" y="-15" on="0"/>
        <pt x="-20" y="52" on="0"/>
        <pt x="27" y="52" on="1"/>
        <pt x="76" y="52" on="0"/>
        <pt x="97" y="70" on="1"/>
        <pt x="131" y="101" on="0"/>
        <pt x="197" y="241" on="0"/>
        <pt x="254" y="363" on="0"/>
        <pt x="328" y="526" on="0"/>
        <pt x="417" y="727" on="0"/>
        <pt x="466" y="840" on="1"/>
        <pt x="594" y="1137" on="0"/>
        <pt x="676" y="1342" on="0"/>
        <pt x="685" y="1364" on="0"/>
        <pt x="690" y="1373" on="1"/>
        <pt x="703" y="1394" on="0"/>
        <pt x="721" y="1394" on="0"/>
        <pt x="733" y="1389" on="0"/>
        <pt x="740" y="1382" on="1"/>
        <pt x="755" y="1363" on="0"/>
        <pt x="785" y="1288" on="0"/>
        <pt x="836" y="1160" on="0"/>
        <pt x="902" y="998" on="0"/>
        <pt x="976" y="812" on="0"/>
        <pt x="1051" y="627" on="0"/>
        <pt x="1122" y="453" on="0"/>
        <pt x="1150" y="383" on="1"/>
        <pt x="1236" y="174" on="0"/>
        <pt x="1284" y="92" on="0"/>
        <pt x="1300" y="76" on="1"/>
        <pt x="1325" y="52" on="0"/>
        <pt x="1423" y="52" on="0"/>
        <pt x="1423" y="-15" on="0"/>
        <pt x="1360" y="-15" on="1"/>
        <pt x="1333" y="-15" on="0"/>
        <pt x="1294" y="-10" on="0"/>
        <pt x="1274" y="-8" on="1"/>
        <pt x="1216" y="0" on="0"/>
        <pt x="1171" y="0" on="1"/>
        <pt x="978" y="-15" on="1"/>
        <pt x="913" y="-15" on="0"/>
        <pt x="913" y="22" on="1"/>
        <pt x="913" y="52" on="0"/>
        <pt x="949" y="52" on="1"/>
        <pt x="1009" y="45" on="1"/>
        <pt x="1047" y="45" on="0"/>
        <pt x="1071" y="78" on="0"/>
        <pt x="1071" y="103" on="1"/>
        <pt x="1071" y="150" on="0"/>
        <pt x="1031" y="249" on="1"/>
        <pt x="948" y="457" on="1"/>
        <pt x="393" y="457" on="1"/>
        <pt x="369" y="397" on="0"/>
        <pt x="328" y="297" on="0"/>
        <pt x="311" y="250" on="1"/>
        <pt x="284" y="174" on="0"/>
        <pt x="284" y="87" on="0"/>
        <pt x="315" y="46" on="0"/>
        <pt x="358" y="46" on="1"/>
        <pt x="418" y="51" on="1"/>
        <pt x="454" y="51" on="0"/>
        <pt x="454" y="22" on="1"/>
        <pt x="454" y="-15" on="0"/>
        <pt x="389" y="-15" on="1"/>
        <pt x="223" y="0" on="1"/>
      </contour>
      <contour>
        <pt x="914" y="542" on="1"/>
        <pt x="676" y="1138" on="1"/>
        <pt x="607" y="963" on="0"/>
        <pt x="429" y="542" on="1"/>
      </contour>
    </TTGlyph>
    <TTGlyph name="Aring" xMin="-20" yMin="-15" xMax="1423" yMax="1757">
      <contour>
        <pt x="172" y="0" on="0"/>
        <pt x="83" y="-15" on="0"/>
        <pt x="-20" y="-15" on="0"/>
        <pt x="-20" y="52" on="0"/>
        <pt x="27" y="52" on="1"/>
        <pt x="76" y="52" on="0"/>
        <pt x="97" y="70" on="1"/>
        <pt x="131" y="101" on="0"/>
        <pt x="197" y="241" on="0"/>
        <pt x="254" y="363" on="0"/>
        <pt x="328" y="526" on="0"/>
        <pt x="417" y="727" on="0"/>
        <pt x="466" y="840" on="1"/>
        <pt x="594" y="1137" on="0"/>
        <pt x="672" y="1332" on="1"/>
        <pt x="681" y="1355" on="1"/>
        <pt x="600" y="1366" on="0"/>
        <pt x="512" y="1474" on="0"/>
        <pt x="512" y="1600" on="0"/>
        <pt x="545" y="1674" on="0"/>
        <pt x="574" y="1700" on="1"/>
        <pt x="634" y="1757" on="0"/>
        <pt x="719" y="1757" on="1"/>
        <pt x="863" y="1757" on="0"/>
        <pt x="910" y="1644" on="1"/>
        <pt x="925" y="1606" on="0"/>
        <pt x="925" y="1513" on="0"/>
        <pt x="898" y="1443" on="0"/>
        <pt x="874" y="1418" on="1"/>
        <pt x="828" y="1367" on="0"/>
        <pt x="756" y="1356" on="1"/>
        <pt x="771" y="1323" on="1"/>
        <pt x="785" y="1288" on="0"/>
        <pt x="836" y="1160" on="0"/>
        <pt x="902" y="998" on="0"/>
        <pt x="976" y="812" on="0"/>
        <pt x="1051" y="627" on="0"/>
        <pt x="1122" y="453" on="0"/>
        <pt x="1150" y="383" on="1"/>
        <pt x="1233" y="180" on="0"/>
        <pt x="1285" y="92" on="0"/>
        <pt x="1302" y="76" on="1"/>
        <pt x="1326" y="52" on="0"/>
        <pt x="1423" y="52" on="0"/>
        <pt x="1423" y="-15" on="0"/>
        <pt x="1360" y="-15" on="1"/>
        <pt x="1333" y="-15" on="0"/>
        <pt x="1294" y="-10" on="0"/>
        <pt x="1274" y="-8" on="1"/>
        <pt x="1216" y="0" on="0"/>
        <pt x="1171" y="0" on="1"/>
        <pt x="978" y="-15" on="1"/>
        <pt x="913" y="-15" on="0"/>
        <pt x="913" y="22" on="1"/>
        <pt x="913" y="52" on="0"/>
        <pt x="949" y="52" on="1"/>
        <pt x="1009" y="45" on="1"/>
        <pt x="1047" y="45" on="0"/>
        <pt x="1071" y="78" on="0"/>
        <pt x="1071" y="103" on="1"/>
        <pt x="1071" y="150" on="0"/>
        <pt x="1031" y="249" on="1"/>
        <pt x="948" y="457" on="1"/>
        <pt x="393" y="457" on="1"/>
        <pt x="369" y="397" on="0"/>
        <pt x="328" y="297" on="0"/>
        <pt x="311" y="250" on="1"/>
        <pt x="284" y="174" on="0"/>
        <pt x="284" y="87" on="0"/>
        <pt x="315" y="46" on="0"/>
        <pt x="358" y="46" on="1"/>
        <pt x="418" y="51" on="1"/>
        <pt x="454" y="51" on="0"/>
        <pt x="454" y="22" on="1"/>
        <pt x="454" y="-15" on="0"/>
        <pt x="389" y="-15" on="1"/>
        <pt x="223" y="0" on="1"/>
      </contour>
      <contour>
        <pt x="658" y="1443" on="0"/>
        <pt x="699" y="1421" on="0"/>
        <pt x="743" y="1421" on="0"/>
        <pt x="783" y="1439" on="0"/>
        <pt x="798" y="1456" on="1"/>
        <pt x="831" y="1495" on="0"/>
        <pt x="831" y="1585" on="0"/>
        <pt x="813" y="1633" on="0"/>
        <pt x="798" y="1651" on="1"/>
        <pt x="766" y="1689" on="0"/>
        <pt x="695" y="1689" on="0"/>
        <pt x="654" y="1669" on="0"/>
        <pt x="639" y="1651" on="1"/>
        <pt x="608" y="1614" on="0"/>
        <pt x="608" y="1530" on="0"/>
        <pt x="626" y="1480" on="0"/>
      </contour>
      <contour>
        <pt x="914" y="542" on="1"/>
        <pt x="676" y="1138" on="1"/>
        <pt x="607" y="963" on="0"/>
        <pt x="429" y="542" on="1"/>
      </contour>
    </TTGlyph>
    <TTGlyph name="Atilde" xMin="-20" yMin="-15" xMax="1423" yMax="1733">
      <contour>
        <pt x="468" y="1518" on="0"/>
        <pt x="464" y="1512" on="0"/>
        <pt x="446" y="1512" on="0"/>
        <pt x="417" y="1535" on="0"/>
        <pt x="417" y="1580" on="0"/>
        <pt x="446" y="1648" on="0"/>
        <pt x="471" y="1674" on="1"/>
        <pt x="526" y="1733" on="0"/>
        <pt x="596" y="1733" on="1"/>
        <pt x="675" y="1733" on="0"/>
        <pt x="756" y="1673" on="1"/>
        <pt x="814" y="1629" on="0"/>
        <pt x="862" y="1622" on="0"/>
        <pt x="882" y="1622" on="1"/>
        <pt x="928" y="1622" on="0"/>
        <pt x="964" y="1718" on="1"/>
        <pt x="969" y="1733" on="0"/>
        <pt x="990" y="1733" on="0"/>
        <pt x="1019" y="1710" on="0"/>
        <pt x="1019" y="1665" on="0"/>
        <pt x="989" y="1596" on="0"/>
        <pt x="964" y="1570" on="1"/>
        <pt x="910" y="1512" on="0"/>
        <pt x="840" y="1512" on="1"/>
        <pt x="777" y="1512" on="0"/>
        <pt x="708" y="1551" on="0"/>
        <pt x="685" y="1568" on="1"/>
        <pt x="622" y="1615" on="0"/>
        <pt x="574" y="1624" on="0"/>
        <pt x="554" y="1624" on="1"/>
        <pt x="508" y="1624" on="0"/>
        <pt x="472" y="1527" on="1"/>
      </contour>
      <contour>
        <pt x="172" y="0" on="0"/>
        <pt x="83" y="-15" on="0"/>
        <pt x="-20" y="-15" on="0"/>
        <pt x="-20" y="52" on="0"/>
        <pt x="27" y="52" on="1"/>
        <pt x="76" y="52" on="0"/>
        <pt x="97" y="70" on="1"/>
        <pt x="131" y="101" on="0"/>
        <pt x="197" y="241" on="0"/>
        <pt x="254" y="363" on="0"/>
        <pt x="328" y="526" on="0"/>
        <pt x="417" y="727" on="0"/>
        <pt x="466" y="840" on="1"/>
        <pt x="594" y="1137" on="0"/>
        <pt x="676" y="1342" on="0"/>
        <pt x="685" y="1364" on="0"/>
        <pt x="690" y="1373" on="1"/>
        <pt x="703" y="1394" on="0"/>
        <pt x="721" y="1394" on="0"/>
        <pt x="733" y="1389" on="0"/>
        <pt x="740" y="1382" on="1"/>
        <pt x="755" y="1363" on="0"/>
        <pt x="785" y="1288" on="0"/>
        <pt x="836" y="1160" on="0"/>
        <pt x="902" y="998" on="0"/>
        <pt x="976" y="812" on="0"/>
        <pt x="1051" y="627" on="0"/>
        <pt x="1122" y="453" on="0"/>
        <pt x="1150" y="383" on="1"/>
        <pt x="1236" y="174" on="0"/>
        <pt x="1284" y="92" on="0"/>
        <pt x="1300" y="76" on="1"/>
        <pt x="1325" y="52" on="0"/>
        <pt x="1423" y="52" on="0"/>
        <pt x="1423" y="-15" on="0"/>
        <pt x="1360" y="-15" on="1"/>
        <pt x="1333" y="-15" on="0"/>
        <pt x="1294" y="-10" on="0"/>
        <pt x="1274" y="-8" on="1"/>
        <pt x="1216" y="0" on="0"/>
        <pt x="1171" y="0" on="1"/>
        <pt x="978" y="-15" on="1"/>
        <pt x="913" y="-15" on="0"/>
        <pt x="913" y="22" on="1"/>
        <pt x="913" y="52" on="0"/>
        <pt x="949" y="52" on="1"/>
        <pt x="1009" y="45" on="1"/>
        <pt x="1047" y="45" on="0"/>
        <pt x="1071" y="78" on="0"/>
        <pt x="1071" y="103" on="1"/>
        <pt x="1071" y="150" on="0"/>
        <pt x="1031" y="249" on="1"/>
        <pt x="948" y="457" on="1"/>
        <pt x="393" y="457" on="1"/>
        <pt x="369" y="397" on="0"/>
        <pt x="328" y="297" on="0"/>
        <pt x="311" y="250" on="1"/>
        <pt x="284" y="174" on="0"/>
        <pt x="284" y="87" on="0"/>
        <pt x="315" y="46" on="0"/>
        <pt x="358" y="46" on="1"/>
        <pt x="418" y="51" on="1"/>
        <pt x="454" y="51" on="0"/>
        <pt x="454" y="22" on="1"/>
        <pt x="454" y="-15" on="0"/>
        <pt x="389" y="-15" on="1"/>
        <pt x="223" y="0" on="1"/>
      </contour>
      <contour>
        <pt x="914" y="542" on="1"/>
        <pt x="676" y="1138" on="1"/>
        <pt x="607" y="963" on="0"/>
        <pt x="429" y="542" on="1"/>
      </contour>
    </TTGlyph>
    <TTGlyph name="B" xMin="65" yMin="-25" xMax="1129" yMax="1365">
      <contour>
        <pt x="130" y="-15" on="1"/>
        <pt x="65" y="-15" on="0"/>
        <pt x="65" y="22" on="1"/>
        <pt x="65" y="51" on="0"/>
        <pt x="101" y="51" on="1"/>
        <pt x="150" y="46" on="1"/>
        <pt x="204" y="46" on="0"/>
        <pt x="225" y="98" on="1"/>
        <pt x="248" y="156" on="0"/>
        <pt x="248" y="317" on="1"/>
        <pt x="248" y="1023" on="1"/>
        <pt x="248" y="1191" on="0"/>
        <pt x="214" y="1275" on="0"/>
        <pt x="174" y="1295" on="0"/>
        <pt x="144" y="1295" on="1"/>
        <pt x="101" y="1290" on="1"/>
        <pt x="65" y="1290" on="0"/>
        <pt x="65" y="1319" on="1"/>
        <pt x="65" y="1356" on="0"/>
        <pt x="175" y="1356" on="0"/>
        <pt x="257" y="1340" on="0"/>
        <pt x="332" y="1340" on="0"/>
        <pt x="394" y="1348" on="0"/>
        <pt x="428" y="1352" on="1"/>
        <pt x="524" y="1365" on="0"/>
        <pt x="668" y="1365" on="0"/>
        <pt x="813" y="1323" on="0"/>
        <pt x="865" y="1284" on="1"/>
        <pt x="975" y="1203" on="0"/>
        <pt x="975" y="1074" on="1"/>
        <pt x="975" y="903" on="0"/>
        <pt x="830" y="784" on="1"/>
        <pt x="955" y="749" on="0"/>
        <pt x="1040" y="644" on="1"/>
        <pt x="1129" y="535" on="0"/>
        <pt x="1129" y="401" on="1"/>
        <pt x="1129" y="211" on="0"/>
        <pt x="1003" y="93" on="1"/>
        <pt x="877" y="-25" on="0"/>
        <pt x="673" y="-25" on="1"/>
        <pt x="609" y="-25" on="0"/>
        <pt x="524" y="-16" on="1"/>
        <pt x="359" y="0" on="0"/>
        <pt x="302" y="0" on="1"/>
      </contour>
      <contour>
        <pt x="405" y="803" on="1"/>
        <pt x="517" y="792" on="0"/>
        <pt x="587" y="792" on="1"/>
        <pt x="688" y="792" on="0"/>
        <pt x="734" y="798" on="0"/>
        <pt x="772" y="832" on="0"/>
        <pt x="788" y="859" on="1"/>
        <pt x="825" y="921" on="0"/>
        <pt x="825" y="1061" on="0"/>
        <pt x="777" y="1168" on="0"/>
        <pt x="736" y="1206" on="1"/>
        <pt x="652" y="1282" on="0"/>
        <pt x="525" y="1282" on="1"/>
        <pt x="464" y="1282" on="0"/>
        <pt x="410" y="1261" on="1"/>
        <pt x="407" y="1211" on="0"/>
        <pt x="406" y="1160" on="0"/>
        <pt x="405" y="1120" on="0"/>
        <pt x="405" y="1104" on="1"/>
      </contour>
      <contour>
        <pt x="830" y="651" on="0"/>
        <pt x="709" y="714" on="0"/>
        <pt x="655" y="714" on="1"/>
        <pt x="546" y="714" on="1"/>
        <pt x="490" y="714" on="0"/>
        <pt x="405" y="709" on="1"/>
        <pt x="405" y="461" on="1"/>
        <pt x="405" y="237" on="0"/>
        <pt x="412" y="116" on="1"/>
        <pt x="501" y="60" on="0"/>
        <pt x="641" y="60" on="1"/>
        <pt x="864" y="60" on="0"/>
        <pt x="934" y="220" on="1"/>
        <pt x="957" y="274" on="0"/>
        <pt x="957" y="417" on="0"/>
        <pt x="913" y="548" on="0"/>
      </contour>
    </TTGlyph>
    <TTGlyph name="C" xMin="100" yMin="-25" xMax="1438" yMax="1365">
      <contour>
        <pt x="1368" y="1051" on="1"/>
        <pt x="1368" y="1012" on="0"/>
        <pt x="1341" y="1012" on="1"/>
        <pt x="1317" y="1012" on="0"/>
        <pt x="1286" y="1109" on="0"/>
        <pt x="1200" y="1195" on="0"/>
        <pt x="1140" y="1224" on="1"/>
        <pt x="1015" y="1285" on="0"/>
        <pt x="728" y="1285" on="0"/>
        <pt x="519" y="1208" on="0"/>
        <pt x="444" y="1136" on="1"/>
        <pt x="288" y="983" on="0"/>
        <pt x="288" y="723" on="1"/>
        <pt x="288" y="435" on="0"/>
        <pt x="464" y="248" on="1"/>
        <pt x="639" y="62" on="0"/>
        <pt x="912" y="62" on="1"/>
        <pt x="1216" y="62" on="0"/>
        <pt x="1382" y="341" on="1"/>
        <pt x="1393" y="359" on="0"/>
        <pt x="1405" y="361" on="1"/>
        <pt x="1416" y="361" on="0"/>
        <pt x="1438" y="313" on="0"/>
        <pt x="1438" y="283" on="1"/>
        <pt x="1438" y="233" on="0"/>
        <pt x="1268" y="73" on="0"/>
        <pt x="1025" y="-25" on="0"/>
        <pt x="702" y="-25" on="0"/>
        <pt x="413" y="80" on="0"/>
        <pt x="312" y="171" on="1"/>
        <pt x="100" y="361" on="0"/>
        <pt x="100" y="646" on="1"/>
        <pt x="100" y="968" on="0"/>
        <pt x="314" y="1166" on="1"/>
        <pt x="528" y="1365" on="0"/>
        <pt x="877" y="1365" on="1"/>
        <pt x="1129" y="1365" on="0"/>
        <pt x="1294" y="1298" on="1"/>
        <pt x="1326" y="1284" on="0"/>
        <pt x="1336" y="1271" on="1"/>
        <pt x="1356" y="1243" on="0"/>
        <pt x="1363" y="1132" on="0"/>
        <pt x="1364" y="1111" on="1"/>
        <pt x="1368" y="1062" on="0"/>
      </contour>
    </TTGlyph>
    <TTGlyph name="Ccedilla" xMin="100" yMin="-461" xMax="1438" yMax="1365">
      <contour>
        <pt x="725" y="-181" on="1"/>
        <pt x="725" y="-134" on="0"/>
        <pt x="775" y="-20" on="1"/>
        <pt x="469" y="9" on="0"/>
        <pt x="282" y="200" on="1"/>
        <pt x="100" y="385" on="0"/>
        <pt x="100" y="646" on="1"/>
        <pt x="100" y="968" on="0"/>
        <pt x="314" y="1166" on="1"/>
        <pt x="528" y="1365" on="0"/>
        <pt x="877" y="1365" on="1"/>
        <pt x="1129" y="1365" on="0"/>
        <pt x="1294" y="1298" on="1"/>
        <pt x="1326" y="1284" on="0"/>
        <pt x="1336" y="1271" on="1"/>
        <pt x="1356" y="1243" on="0"/>
        <pt x="1363" y="1132" on="0"/>
        <pt x="1364" y="1111" on="1"/>
        <pt x="1368" y="1062" on="0"/>
        <pt x="1368" y="1051" on="1"/>
        <pt x="1368" y="1012" on="0"/>
        <pt x="1341" y="1012" on="1"/>
        <pt x="1317" y="1012" on="0"/>
        <pt x="1286" y="1109" on="0"/>
        <pt x="1200" y="1195" on="0"/>
        <pt x="1140" y="1224" on="1"/>
        <pt x="1015" y="1285" on="0"/>
        <pt x="728" y="1285" on="0"/>
        <pt x="519" y="1208" on="0"/>
        <pt x="444" y="1136" on="1"/>
        <pt x="288" y="983" on="0"/>
        <pt x="288" y="723" on="1"/>
        <pt x="288" y="435" on="0"/>
        <pt x="464" y="248" on="1"/>
        <pt x="639" y="62" on="0"/>
        <pt x="912" y="62" on="1"/>
        <pt x="1216" y="62" on="0"/>
        <pt x="1382" y="341" on="1"/>
        <pt x="1393" y="359" on="0"/>
        <pt x="1405" y="361" on="1"/>
        <pt x="1416" y="361" on="0"/>
        <pt x="1438" y="313" on="0"/>
        <pt x="1438" y="283" on="1"/>
        <pt x="1438" y="233" on="0"/>
        <pt x="1267" y="72" on="0"/>
        <pt x="1025" y="-25" on="0"/>
        <pt x="881" y="-25" on="1"/>
        <pt x="873" y="-25" on="0"/>
        <pt x="857" y="-25" on="0"/>
        <pt x="849" y="-24" on="1"/>
        <pt x="831" y="-67" on="0"/>
        <pt x="819" y="-108" on="1"/>
        <pt x="911" y="-138" on="0"/>
        <pt x="984" y="-223" on="0"/>
        <pt x="984" y="-322" on="0"/>
        <pt x="953" y="-385" on="0"/>
        <pt x="926" y="-409" on="1"/>
        <pt x="868" y="-461" on="0"/>
        <pt x="784" y="-461" on="1"/>
        <pt x="720" y="-461" on="0"/>
        <pt x="684" y="-445" on="1"/>
        <pt x="626" y="-419" on="0"/>
        <pt x="626" y="-392" on="1"/>
        <pt x="626" y="-352" on="0"/>
        <pt x="660" y="-318" on="1"/>
        <pt x="669" y="-309" on="0"/>
        <pt x="678" y="-309" on="1"/>
        <pt x="691" y="-309" on="0"/>
        <pt x="710" y="-339" on="1"/>
        <pt x="749" y="-400" on="0"/>
        <pt x="812" y="-400" on="1"/>
        <pt x="864" y="-400" on="0"/>
        <pt x="885" y="-359" on="1"/>
        <pt x="892" y="-345" on="0"/>
        <pt x="892" y="-312" on="0"/>
        <pt x="883" y="-287" on="0"/>
        <pt x="870" y="-274" on="1"/>
        <pt x="843" y="-250" on="0"/>
        <pt x="743" y="-212" on="0"/>
        <pt x="725" y="-192" on="0"/>
      </contour>
    </TTGlyph>
    <TTGlyph name="D" xMin="68" yMin="-20" xMax="1437" yMax="1365">
      <contour>
        <pt x="133" y="-15" on="1"/>
        <pt x="68" y="-15" on="0"/>
        <pt x="68" y="22" on="1"/>
        <pt x="68" y="51" on="0"/>
        <pt x="104" y="51" on="1"/>
        <pt x="153" y="46" on="1"/>
        <pt x="213" y="46" on="0"/>
        <pt x="234" y="113" on="1"/>
        <pt x="251" y="170" on="0"/>
        <pt x="251" y="317" on="1"/>
        <pt x="251" y="1023" on="1"/>
        <pt x="251" y="1170" on="0"/>
        <pt x="223" y="1261" on="0"/>
        <pt x="184" y="1294" on="0"/>
        <pt x="153" y="1294" on="1"/>
        <pt x="104" y="1290" on="1"/>
        <pt x="68" y="1290" on="0"/>
        <pt x="68" y="1319" on="1"/>
        <pt x="68" y="1356" on="0"/>
        <pt x="178" y="1356" on="0"/>
        <pt x="260" y="1340" on="0"/>
        <pt x="300" y="1340" on="1"/>
        <pt x="406" y="1340" on="0"/>
        <pt x="476" y="1350" on="1"/>
        <pt x="582" y="1365" on="0"/>
        <pt x="857" y="1365" on="0"/>
        <pt x="1130" y="1267" on="0"/>
        <pt x="1228" y="1177" on="1"/>
        <pt x="1437" y="986" on="0"/>
        <pt x="1437" y="675" on="1"/>
        <pt x="1437" y="380" on="0"/>
        <pt x="1232" y="184" on="1"/>
        <pt x="1020" y="-20" on="0"/>
        <pt x="676" y="-20" on="1"/>
        <pt x="593" y="-20" on="0"/>
        <pt x="515" y="-13" on="1"/>
        <pt x="370" y="0" on="0"/>
        <pt x="305" y="0" on="1"/>
      </contour>
      <contour>
        <pt x="408" y="461" on="1"/>
        <pt x="408" y="283" on="0"/>
        <pt x="417" y="130" on="1"/>
        <pt x="550" y="61" on="0"/>
        <pt x="716" y="61" on="1"/>
        <pt x="837" y="61" on="0"/>
        <pt x="967" y="118" on="1"/>
        <pt x="1173" y="208" on="0"/>
        <pt x="1236" y="440" on="1"/>
        <pt x="1259" y="522" on="0"/>
        <pt x="1259" y="783" on="0"/>
        <pt x="1170" y="1028" on="0"/>
        <pt x="1090" y="1112" on="1"/>
        <pt x="927" y="1285" on="0"/>
        <pt x="651" y="1285" on="1"/>
        <pt x="454" y="1285" on="0"/>
        <pt x="425" y="1233" on="1"/>
        <pt x="410" y="1205" on="0"/>
        <pt x="408" y="1134" on="0"/>
        <pt x="408" y="1100" on="1"/>
      </contour>
    </TTGlyph>
    <TTGlyph name="E" xMin="65" yMin="-20" xMax="1073" yMax="1356">
      <contour>
        <pt x="120" y="-15" on="1"/>
        <pt x="65" y="-15" on="0"/>
        <pt x="65" y="22" on="1"/>
        <pt x="65" y="51" on="0"/>
        <pt x="101" y="51" on="1"/>
        <pt x="150" y="46" on="1"/>
        <pt x="206" y="46" on="0"/>
        <pt x="226" y="94" on="1"/>
        <pt x="248" y="149" on="0"/>
        <pt x="248" y="314" on="1"/>
        <pt x="248" y="1023" on="1"/>
        <pt x="248" y="1187" on="0"/>
        <pt x="217" y="1272" on="0"/>
        <pt x="179" y="1294" on="0"/>
        <pt x="150" y="1294" on="1"/>
        <pt x="101" y="1290" on="1"/>
        <pt x="65" y="1290" on="0"/>
        <pt x="65" y="1319" on="1"/>
        <pt x="65" y="1356" on="0"/>
        <pt x="172" y="1356" on="0"/>
        <pt x="241" y="1351" on="0"/>
        <pt x="276" y="1348" on="1"/>
        <pt x="369" y="1340" on="0"/>
        <pt x="476" y="1340" on="0"/>
        <pt x="596" y="1345" on="0"/>
        <pt x="670" y="1348" on="1"/>
        <pt x="865" y="1356" on="0"/>
        <pt x="1016" y="1356" on="0"/>
        <pt x="1033" y="1338" on="0"/>
        <pt x="1033" y="1307" on="0"/>
        <pt x="1032" y="1279" on="0"/>
        <pt x="1031" y="1262" on="1"/>
        <pt x="1030" y="1239" on="0"/>
        <pt x="1020" y="1148" on="0"/>
        <pt x="1006" y="1117" on="0"/>
        <pt x="980" y="1117" on="0"/>
        <pt x="970" y="1130" on="0"/>
        <pt x="953" y="1177" on="0"/>
        <pt x="910" y="1220" on="0"/>
        <pt x="864" y="1234" on="1"/>
        <pt x="774" y="1261" on="0"/>
        <pt x="531" y="1261" on="1"/>
        <pt x="442" y="1261" on="1"/>
        <pt x="418" y="1261" on="0"/>
        <pt x="405" y="1247" on="0"/>
        <pt x="405" y="1222" on="1"/>
        <pt x="405" y="801" on="1"/>
        <pt x="524" y="787" on="0"/>
        <pt x="681" y="787" on="0"/>
        <pt x="748" y="789" on="0"/>
        <pt x="770" y="794" on="1"/>
        <pt x="809" y="801" on="0"/>
        <pt x="826" y="829" on="1"/>
        <pt x="860" y="882" on="0"/>
        <pt x="881" y="882" on="1"/>
        <pt x="908" y="882" on="0"/>
        <pt x="908" y="854" on="1"/>
        <pt x="873" y="712" on="1"/>
        <pt x="877" y="636" on="1"/>
        <pt x="877" y="564" on="0"/>
        <pt x="843" y="564" on="1"/>
        <pt x="814" y="564" on="0"/>
        <pt x="814" y="641" on="0"/>
        <pt x="805" y="679" on="0"/>
        <pt x="784" y="690" on="1"/>
        <pt x="752" y="706" on="0"/>
        <pt x="504" y="706" on="0"/>
        <pt x="405" y="695" on="1"/>
        <pt x="405" y="458" on="1"/>
        <pt x="405" y="237" on="0"/>
        <pt x="415" y="93" on="1"/>
        <pt x="496" y="75" on="0"/>
        <pt x="686" y="75" on="0"/>
        <pt x="821" y="85" on="0"/>
        <pt x="870" y="100" on="1"/>
        <pt x="967" y="129" on="0"/>
        <pt x="1013" y="211" on="1"/>
        <pt x="1033" y="247" on="0"/>
        <pt x="1073" y="247" on="0"/>
        <pt x="1073" y="218" on="1"/>
        <pt x="1073" y="206" on="0"/>
        <pt x="1066" y="187" on="1"/>
        <pt x="1058" y="161" on="0"/>
        <pt x="1028" y="58" on="0"/>
        <pt x="1012" y="12" on="0"/>
        <pt x="1002" y="0" on="1"/>
        <pt x="987" y="-20" on="0"/>
        <pt x="899" y="-20" on="0"/>
        <pt x="817" y="-19" on="0"/>
        <pt x="772" y="-18" on="1"/>
        <pt x="720" y="-16" on="0"/>
        <pt x="611" y="-10" on="1"/>
        <pt x="339" y="3" on="0"/>
        <pt x="245" y="-5" on="0"/>
        <pt x="197" y="-10" on="0"/>
        <pt x="151" y="-15" on="0"/>
      </contour>
    </TTGlyph>
    <TTGlyph name="Eacute" xMin="65" yMin="-20" xMax="1073" yMax="1764">
      <contour>
        <pt x="497" y="1529" on="1"/>
        <pt x="437" y="1509" on="0"/>
        <pt x="417" y="1509" on="0"/>
        <pt x="399" y="1535" on="0"/>
        <pt x="399" y="1545" on="1"/>
        <pt x="399" y="1561" on="0"/>
        <pt x="420" y="1573" on="1"/>
        <pt x="759" y="1756" on="1"/>
        <pt x="772" y="1764" on="0"/>
        <pt x="786" y="1764" on="0"/>
        <pt x="806" y="1746" on="0"/>
        <pt x="816" y="1732" on="1"/>
        <pt x="841" y="1695" on="0"/>
        <pt x="841" y="1654" on="0"/>
        <pt x="833" y="1643" on="0"/>
        <pt x="822" y="1639" on="1"/>
      </contour>
      <contour>
        <pt x="120" y="-15" on="1"/>
        <pt x="65" y="-15" on="0"/>
        <pt x="65" y="22" on="1"/>
        <pt x="65" y="51" on="0"/>
        <pt x="101" y="51" on="1"/>
        <pt x="150" y="46" on="1"/>
        <pt x="206" y="46" on="0"/>
        <pt x="226" y="94" on="1"/>
        <pt x="248" y="149" on="0"/>
        <pt x="248" y="314" on="1"/>
        <pt x="248" y="1023" on="1"/>
        <pt x="248" y="1187" on="0"/>
        <pt x="217" y="1272" on="0"/>
        <pt x="179" y="1294" on="0"/>
        <pt x="150" y="1294" on="1"/>
        <pt x="101" y="1290" on="1"/>
        <pt x="65" y="1290" on="0"/>
        <pt x="65" y="1319" on="1"/>
        <pt x="65" y="1356" on="0"/>
        <pt x="172" y="1356" on="0"/>
        <pt x="241" y="1351" on="0"/>
        <pt x="276" y="1348" on="1"/>
        <pt x="369" y="1340" on="0"/>
        <pt x="476" y="1340" on="0"/>
        <pt x="596" y="1345" on="0"/>
        <pt x="670" y="1348" on="1"/>
        <pt x="865" y="1356" on="0"/>
        <pt x="1016" y="1356" on="0"/>
        <pt x="1033" y="1338" on="0"/>
        <pt x="1033" y="1307" on="0"/>
        <pt x="1032" y="1279" on="0"/>
        <pt x="1031" y="1262" on="1"/>
        <pt x="1030" y="1239" on="0"/>
        <pt x="1020" y="1148" on="0"/>
        <pt x="1006" y="1117" on="0"/>
        <pt x="980" y="1117" on="0"/>
        <pt x="970" y="1130" on="0"/>
        <pt x="953" y="1177" on="0"/>
        <pt x="910" y="1220" on="0"/>
        <pt x="864" y="1234" on="1"/>
        <pt x="774" y="1261" on="0"/>
        <pt x="531" y="1261" on="1"/>
        <pt x="442" y="1261" on="1"/>
        <pt x="418" y="1261" on="0"/>
        <pt x="405" y="1247" on="0"/>
        <pt x="405" y="1222" on="1"/>
        <pt x="405" y="801" on="1"/>
        <pt x="524" y="787" on="0"/>
        <pt x="681" y="787" on="0"/>
        <pt x="748" y="789" on="0"/>
        <pt x="770" y="794" on="1"/>
        <pt x="809" y="801" on="0"/>
        <pt x="826" y="829" on="1"/>
        <pt x="860" y="882" on="0"/>
        <pt x="881" y="882" on="1"/>
        <pt x="908" y="882" on="0"/>
        <pt x="908" y="854" on="1"/>
        <pt x="873" y="712" on="1"/>
        <pt x="877" y="636" on="1"/>
        <pt x="877" y="564" on="0"/>
        <pt x="843" y="564" on="1"/>
        <pt x="814" y="564" on="0"/>
        <pt x="814" y="641" on="0"/>
        <pt x="805" y="679" on="0"/>
        <pt x="784" y="690" on="1"/>
        <pt x="752" y="706" on="0"/>
        <pt x="504" y="706" on="0"/>
        <pt x="405" y="695" on="1"/>
        <pt x="405" y="458" on="1"/>
        <pt x="405" y="237" on="0"/>
        <pt x="415" y="93" on="1"/>
        <pt x="496" y="75" on="0"/>
        <pt x="686" y="75" on="0"/>
        <pt x="821" y="85" on="0"/>
        <pt x="870" y="100" on="1"/>
        <pt x="967" y="129" on="0"/>
        <pt x="1013" y="211" on="1"/>
        <pt x="1033" y="247" on="0"/>
        <pt x="1073" y="247" on="0"/>
        <pt x="1073" y="218" on="1"/>
        <pt x="1073" y="206" on="0"/>
        <pt x="1066" y="187" on="1"/>
        <pt x="1058" y="161" on="0"/>
        <pt x="1028" y="58" on="0"/>
        <pt x="1012" y="12" on="0"/>
        <pt x="1002" y="0" on="1"/>
        <pt x="987" y="-20" on="0"/>
        <pt x="899" y="-20" on="0"/>
        <pt x="817" y="-19" on="0"/>
        <pt x="772" y="-18" on="1"/>
        <pt x="720" y="-16" on="0"/>
        <pt x="611" y="-10" on="1"/>
        <pt x="339" y="3" on="0"/>
        <pt x="245" y="-5" on="0"/>
        <pt x="197" y="-10" on="0"/>
        <pt x="151" y="-15" on="0"/>
      </contour>
    </TTGlyph>
    <TTGlyph name="Ecircumflex" xMin="65" yMin="-20" xMax="1073" yMax="1770">
      <contour>
        <pt x="432" y="1520" on="1"/>
        <pt x="403" y="1501" on="0"/>
        <pt x="384" y="1501" on="0"/>
        <pt x="359" y="1527" on="0"/>
        <pt x="359" y="1536" on="1"/>
        <pt x="359" y="1549" on="0"/>
        <pt x="376" y="1564" on="1"/>
        <pt x="566" y="1733" on="1"/>
        <pt x="580" y="1745" on="0"/>
        <pt x="597" y="1760" on="0"/>
        <pt x="602" y="1764" on="1"/>
        <pt x="611" y="1770" on="0"/>
        <pt x="623" y="1770" on="0"/>
        <pt x="630" y="1768" on="0"/>
        <pt x="636" y="1764" on="1"/>
        <pt x="644" y="1758" on="0"/>
        <pt x="674" y="1733" on="1"/>
        <pt x="864" y="1564" on="1"/>
        <pt x="881" y="1549" on="0"/>
        <pt x="881" y="1527" on="0"/>
        <pt x="856" y="1501" on="0"/>
        <pt x="848" y="1501" on="1"/>
        <pt x="837" y="1501" on="0"/>
        <pt x="808" y="1520" on="1"/>
        <pt x="620" y="1638" on="1"/>
      </contour>
      <contour>
        <pt x="120" y="-15" on="1"/>
        <pt x="65" y="-15" on="0"/>
        <pt x="65" y="22" on="1"/>
        <pt x="65" y="51" on="0"/>
        <pt x="101" y="51" on="1"/>
        <pt x="150" y="46" on="1"/>
        <pt x="206" y="46" on="0"/>
        <pt x="226" y="94" on="1"/>
        <pt x="248" y="149" on="0"/>
        <pt x="248" y="314" on="1"/>
        <pt x="248" y="1023" on="1"/>
        <pt x="248" y="1187" on="0"/>
        <pt x="217" y="1272" on="0"/>
        <pt x="179" y="1294" on="0"/>
        <pt x="150" y="1294" on="1"/>
        <pt x="101" y="1290" on="1"/>
        <pt x="65" y="1290" on="0"/>
        <pt x="65" y="1319" on="1"/>
        <pt x="65" y="1356" on="0"/>
        <pt x="172" y="1356" on="0"/>
        <pt x="241" y="1351" on="0"/>
        <pt x="276" y="1348" on="1"/>
        <pt x="369" y="1340" on="0"/>
        <pt x="476" y="1340" on="0"/>
        <pt x="596" y="1345" on="0"/>
        <pt x="670" y="1348" on="1"/>
        <pt x="865" y="1356" on="0"/>
        <pt x="1016" y="1356" on="0"/>
        <pt x="1033" y="1338" on="0"/>
        <pt x="1033" y="1307" on="0"/>
        <pt x="1032" y="1279" on="0"/>
        <pt x="1031" y="1262" on="1"/>
        <pt x="1030" y="1239" on="0"/>
        <pt x="1020" y="1148" on="0"/>
        <pt x="1006" y="1117" on="0"/>
        <pt x="980" y="1117" on="0"/>
        <pt x="970" y="1130" on="0"/>
        <pt x="953" y="1177" on="0"/>
        <pt x="910" y="1220" on="0"/>
        <pt x="864" y="1234" on="1"/>
        <pt x="774" y="1261" on="0"/>
        <pt x="531" y="1261" on="1"/>
        <pt x="442" y="1261" on="1"/>
        <pt x="418" y="1261" on="0"/>
        <pt x="405" y="1247" on="0"/>
        <pt x="405" y="1222" on="1"/>
        <pt x="405" y="801" on="1"/>
        <pt x="524" y="787" on="0"/>
        <pt x="681" y="787" on="0"/>
        <pt x="748" y="789" on="0"/>
        <pt x="770" y="794" on="1"/>
        <pt x="809" y="801" on="0"/>
        <pt x="826" y="829" on="1"/>
        <pt x="860" y="882" on="0"/>
        <pt x="881" y="882" on="1"/>
        <pt x="908" y="882" on="0"/>
        <pt x="908" y="854" on="1"/>
        <pt x="873" y="712" on="1"/>
        <pt x="877" y="636" on="1"/>
        <pt x="877" y="564" on="0"/>
        <pt x="843" y="564" on="1"/>
        <pt x="814" y="564" on="0"/>
        <pt x="814" y="641" on="0"/>
        <pt x="805" y="679" on="0"/>
        <pt x="784" y="690" on="1"/>
        <pt x="752" y="706" on="0"/>
        <pt x="504" y="706" on="0"/>
        <pt x="405" y="695" on="1"/>
        <pt x="405" y="458" on="1"/>
        <pt x="405" y="237" on="0"/>
        <pt x="415" y="93" on="1"/>
        <pt x="496" y="75" on="0"/>
        <pt x="686" y="75" on="0"/>
        <pt x="821" y="85" on="0"/>
        <pt x="870" y="100" on="1"/>
        <pt x="967" y="129" on="0"/>
        <pt x="1013" y="211" on="1"/>
        <pt x="1033" y="247" on="0"/>
        <pt x="1073" y="247" on="0"/>
        <pt x="1073" y="218" on="1"/>
        <pt x="1073" y="206" on="0"/>
        <pt x="1066" y="187" on="1"/>
        <pt x="1058" y="161" on="0"/>
        <pt x="1028" y="58" on="0"/>
        <pt x="1012" y="12" on="0"/>
        <pt x="1002" y="0" on="1"/>
        <pt x="987" y="-20" on="0"/>
        <pt x="899" y="-20" on="0"/>
        <pt x="817" y="-19" on="0"/>
        <pt x="772" y="-18" on="1"/>
        <pt x="720" y="-16" on="0"/>
        <pt x="611" y="-10" on="1"/>
        <pt x="339" y="3" on="0"/>
        <pt x="245" y="-5" on="0"/>
        <pt x="197" y="-10" on="0"/>
        <pt x="151" y="-15" on="0"/>
      </contour>
    </TTGlyph>
    <TTGlyph name="Edieresis" xMin="65" yMin="-20" xMax="1073" yMax="1742">
      <contour>
        <pt x="949" y="1601" on="0"/>
        <pt x="892" y="1542" on="0"/>
        <pt x="795" y="1542" on="0"/>
        <pt x="742" y="1599" on="0"/>
        <pt x="742" y="1666" on="0"/>
        <pt x="760" y="1702" on="0"/>
        <pt x="774" y="1715" on="1"/>
        <pt x="805" y="1742" on="0"/>
        <pt x="894" y="1742" on="0"/>
        <pt x="949" y="1686" on="0"/>
      </contour>
      <contour>
        <pt x="499" y="1601" on="0"/>
        <pt x="442" y="1542" on="0"/>
        <pt x="345" y="1542" on="0"/>
        <pt x="292" y="1599" on="0"/>
        <pt x="292" y="1666" on="0"/>
        <pt x="310" y="1702" on="0"/>
        <pt x="324" y="1715" on="1"/>
        <pt x="355" y="1742" on="0"/>
        <pt x="444" y="1742" on="0"/>
        <pt x="499" y="1686" on="0"/>
      </contour>
      <contour>
        <pt x="120" y="-15" on="1"/>
        <pt x="65" y="-15" on="0"/>
        <pt x="65" y="22" on="1"/>
        <pt x="65" y="51" on="0"/>
        <pt x="101" y="51" on="1"/>
        <pt x="150" y="46" on="1"/>
        <pt x="206" y="46" on="0"/>
        <pt x="226" y="94" on="1"/>
        <pt x="248" y="149" on="0"/>
        <pt x="248" y="314" on="1"/>
        <pt x="248" y="1023" on="1"/>
        <pt x="248" y="1187" on="0"/>
        <pt x="217" y="1272" on="0"/>
        <pt x="179" y="1294" on="0"/>
        <pt x="150" y="1294" on="1"/>
        <pt x="101" y="1290" on="1"/>
        <pt x="65" y="1290" on="0"/>
        <pt x="65" y="1319" on="1"/>
        <pt x="65" y="1356" on="0"/>
        <pt x="172" y="1356" on="0"/>
        <pt x="241" y="1351" on="0"/>
        <pt x="276" y="1348" on="1"/>
        <pt x="369" y="1340" on="0"/>
        <pt x="476" y="1340" on="0"/>
        <pt x="596" y="1345" on="0"/>
        <pt x="670" y="1348" on="1"/>
        <pt x="865" y="1356" on="0"/>
        <pt x="1016" y="1356" on="0"/>
        <pt x="1033" y="1338" on="0"/>
        <pt x="1033" y="1307" on="0"/>
        <pt x="1032" y="1279" on="0"/>
        <pt x="1031" y="1262" on="1"/>
        <pt x="1030" y="1239" on="0"/>
        <pt x="1020" y="1148" on="0"/>
        <pt x="1006" y="1117" on="0"/>
        <pt x="980" y="1117" on="0"/>
        <pt x="970" y="1130" on="0"/>
        <pt x="953" y="1177" on="0"/>
        <pt x="910" y="1220" on="0"/>
        <pt x="864" y="1234" on="1"/>
        <pt x="774" y="1261" on="0"/>
        <pt x="531" y="1261" on="1"/>
        <pt x="442" y="1261" on="1"/>
        <pt x="418" y="1261" on="0"/>
        <pt x="405" y="1247" on="0"/>
        <pt x="405" y="1222" on="1"/>
        <pt x="405" y="801" on="1"/>
        <pt x="524" y="787" on="0"/>
        <pt x="681" y="787" on="0"/>
        <pt x="748" y="789" on="0"/>
        <pt x="770" y="794" on="1"/>
        <pt x="809" y="801" on="0"/>
        <pt x="826" y="829" on="1"/>
        <pt x="860" y="882" on="0"/>
        <pt x="881" y="882" on="1"/>
        <pt x="908" y="882" on="0"/>
        <pt x="908" y="854" on="1"/>
        <pt x="873" y="712" on="1"/>
        <pt x="877" y="636" on="1"/>
        <pt x="877" y="564" on="0"/>
        <pt x="843" y="564" on="1"/>
        <pt x="814" y="564" on="0"/>
        <pt x="814" y="641" on="0"/>
        <pt x="805" y="679" on="0"/>
        <pt x="784" y="690" on="1"/>
        <pt x="752" y="706" on="0"/>
        <pt x="504" y="706" on="0"/>
        <pt x="405" y="695" on="1"/>
        <pt x="405" y="458" on="1"/>
        <pt x="405" y="237" on="0"/>
        <pt x="415" y="93" on="1"/>
        <pt x="496" y="75" on="0"/>
        <pt x="686" y="75" on="0"/>
        <pt x="821" y="85" on="0"/>
        <pt x="870" y="100" on="1"/>
        <pt x="967" y="129" on="0"/>
        <pt x="1013" y="211" on="1"/>
        <pt x="1033" y="247" on="0"/>
        <pt x="1073" y="247" on="0"/>
        <pt x="1073" y="218" on="1"/>
        <pt x="1073" y="206" on="0"/>
        <pt x="1066" y="187" on="1"/>
        <pt x="1058" y="161" on="0"/>
        <pt x="1028" y="58" on="0"/>
        <pt x="1012" y="12" on="0"/>
        <pt x="1002" y="0" on="1"/>
        <pt x="987" y="-20" on="0"/>
        <pt x="899" y="-20" on="0"/>
        <pt x="817" y="-19" on="0"/>
        <pt x="772" y="-18" on="1"/>
        <pt x="720" y="-16" on="0"/>
        <pt x="611" y="-10" on="1"/>
        <pt x="339" y="3" on="0"/>
        <pt x="245" y="-5" on="0"/>
        <pt x="197" y="-10" on="0"/>
        <pt x="151" y="-15" on="0"/>
      </contour>
    </TTGlyph>
    <TTGlyph name="Egrave" xMin="65" yMin="-20" xMax="1073" yMax="1761">
      <contour>
        <pt x="418" y="1636" on="1"/>
        <pt x="399" y="1643" on="0"/>
        <pt x="399" y="1676" on="0"/>
        <pt x="414" y="1714" on="0"/>
        <pt x="424" y="1728" on="1"/>
        <pt x="446" y="1761" on="0"/>
        <pt x="458" y="1761" on="1"/>
        <pt x="468" y="1761" on="0"/>
        <pt x="481" y="1753" on="1"/>
        <pt x="820" y="1570" on="1"/>
        <pt x="841" y="1558" on="0"/>
        <pt x="841" y="1532" on="0"/>
        <pt x="823" y="1506" on="0"/>
        <pt x="814" y="1506" on="1"/>
        <pt x="803" y="1506" on="0"/>
        <pt x="743" y="1526" on="1"/>
      </contour>
      <contour>
        <pt x="120" y="-15" on="1"/>
        <pt x="65" y="-15" on="0"/>
        <pt x="65" y="22" on="1"/>
        <pt x="65" y="51" on="0"/>
        <pt x="101" y="51" on="1"/>
        <pt x="150" y="46" on="1"/>
        <pt x="206" y="46" on="0"/>
        <pt x="226" y="94" on="1"/>
        <pt x="248" y="149" on="0"/>
        <pt x="248" y="314" on="1"/>
        <pt x="248" y="1023" on="1"/>
        <pt x="248" y="1187" on="0"/>
        <pt x="217" y="1272" on="0"/>
        <pt x="179" y="1294" on="0"/>
        <pt x="150" y="1294" on="1"/>
        <pt x="101" y="1290" on="1"/>
        <pt x="65" y="1290" on="0"/>
        <pt x="65" y="1319" on="1"/>
        <pt x="65" y="1356" on="0"/>
        <pt x="172" y="1356" on="0"/>
        <pt x="241" y="1351" on="0"/>
        <pt x="276" y="1348" on="1"/>
        <pt x="369" y="1340" on="0"/>
        <pt x="476" y="1340" on="0"/>
        <pt x="596" y="1345" on="0"/>
        <pt x="670" y="1348" on="1"/>
        <pt x="865" y="1356" on="0"/>
        <pt x="1016" y="1356" on="0"/>
        <pt x="1033" y="1338" on="0"/>
        <pt x="1033" y="1307" on="0"/>
        <pt x="1032" y="1279" on="0"/>
        <pt x="1031" y="1262" on="1"/>
        <pt x="1030" y="1239" on="0"/>
        <pt x="1020" y="1148" on="0"/>
        <pt x="1006" y="1117" on="0"/>
        <pt x="980" y="1117" on="0"/>
        <pt x="970" y="1130" on="0"/>
        <pt x="953" y="1177" on="0"/>
        <pt x="910" y="1220" on="0"/>
        <pt x="864" y="1234" on="1"/>
        <pt x="774" y="1261" on="0"/>
        <pt x="531" y="1261" on="1"/>
        <pt x="442" y="1261" on="1"/>
        <pt x="418" y="1261" on="0"/>
        <pt x="405" y="1247" on="0"/>
        <pt x="405" y="1222" on="1"/>
        <pt x="405" y="801" on="1"/>
        <pt x="524" y="787" on="0"/>
        <pt x="681" y="787" on="0"/>
        <pt x="748" y="789" on="0"/>
        <pt x="770" y="794" on="1"/>
        <pt x="809" y="801" on="0"/>
        <pt x="826" y="829" on="1"/>
        <pt x="860" y="882" on="0"/>
        <pt x="881" y="882" on="1"/>
        <pt x="908" y="882" on="0"/>
        <pt x="908" y="854" on="1"/>
        <pt x="873" y="712" on="1"/>
        <pt x="877" y="636" on="1"/>
        <pt x="877" y="564" on="0"/>
        <pt x="843" y="564" on="1"/>
        <pt x="814" y="564" on="0"/>
        <pt x="814" y="641" on="0"/>
        <pt x="805" y="679" on="0"/>
        <pt x="784" y="690" on="1"/>
        <pt x="752" y="706" on="0"/>
        <pt x="504" y="706" on="0"/>
        <pt x="405" y="695" on="1"/>
        <pt x="405" y="458" on="1"/>
        <pt x="405" y="237" on="0"/>
        <pt x="415" y="93" on="1"/>
        <pt x="496" y="75" on="0"/>
        <pt x="686" y="75" on="0"/>
        <pt x="821" y="85" on="0"/>
        <pt x="870" y="100" on="1"/>
        <pt x="967" y="129" on="0"/>
        <pt x="1013" y="211" on="1"/>
        <pt x="1033" y="247" on="0"/>
        <pt x="1073" y="247" on="0"/>
        <pt x="1073" y="218" on="1"/>
        <pt x="1073" y="206" on="0"/>
        <pt x="1066" y="187" on="1"/>
        <pt x="1058" y="161" on="0"/>
        <pt x="1028" y="58" on="0"/>
        <pt x="1012" y="12" on="0"/>
        <pt x="1002" y="0" on="1"/>
        <pt x="987" y="-20" on="0"/>
        <pt x="899" y="-20" on="0"/>
        <pt x="817" y="-19" on="0"/>
        <pt x="772" y="-18" on="1"/>
        <pt x="720" y="-16" on="0"/>
        <pt x="611" y="-10" on="1"/>
        <pt x="339" y="3" on="0"/>
        <pt x="245" y="-5" on="0"/>
        <pt x="197" y="-10" on="0"/>
        <pt x="151" y="-15" on="0"/>
      </contour>
    </TTGlyph>
    <TTGlyph name="Eth" xMin="68" yMin="-20" xMax="1437" yMax="1365">
      <contour>
        <pt x="133" y="-15" on="1"/>
        <pt x="68" y="-15" on="0"/>
        <pt x="68" y="22" on="1"/>
        <pt x="68" y="51" on="0"/>
        <pt x="104" y="51" on="1"/>
        <pt x="153" y="46" on="1"/>
        <pt x="213" y="46" on="0"/>
        <pt x="234" y="113" on="1"/>
        <pt x="251" y="170" on="0"/>
        <pt x="251" y="317" on="1"/>
        <pt x="251" y="648" on="1"/>
        <pt x="102" y="648" on="1"/>
        <pt x="78" y="648" on="0"/>
        <pt x="78" y="666" on="1"/>
        <pt x="78" y="690" on="0"/>
        <pt x="99" y="733" on="0"/>
        <pt x="111" y="733" on="1"/>
        <pt x="251" y="733" on="1"/>
        <pt x="251" y="1023" on="1"/>
        <pt x="251" y="1170" on="0"/>
        <pt x="223" y="1261" on="0"/>
        <pt x="184" y="1294" on="0"/>
        <pt x="153" y="1294" on="1"/>
        <pt x="104" y="1290" on="1"/>
        <pt x="68" y="1290" on="0"/>
        <pt x="68" y="1319" on="1"/>
        <pt x="68" y="1356" on="0"/>
        <pt x="178" y="1356" on="0"/>
        <pt x="260" y="1340" on="0"/>
        <pt x="300" y="1340" on="1"/>
        <pt x="406" y="1340" on="0"/>
        <pt x="476" y="1350" on="1"/>
        <pt x="582" y="1365" on="0"/>
        <pt x="857" y="1365" on="0"/>
        <pt x="1130" y="1267" on="0"/>
        <pt x="1228" y="1177" on="1"/>
        <pt x="1437" y="986" on="0"/>
        <pt x="1437" y="675" on="1"/>
        <pt x="1437" y="380" on="0"/>
        <pt x="1232" y="184" on="1"/>
        <pt x="1020" y="-20" on="0"/>
        <pt x="676" y="-20" on="1"/>
        <pt x="593" y="-20" on="0"/>
        <pt x="515" y="-13" on="1"/>
        <pt x="370" y="0" on="0"/>
        <pt x="305" y="0" on="1"/>
      </contour>
      <contour>
        <pt x="714" y="733" on="1"/>
        <pt x="737" y="733" on="0"/>
        <pt x="737" y="715" on="1"/>
        <pt x="737" y="691" on="0"/>
        <pt x="716" y="648" on="0"/>
        <pt x="704" y="648" on="1"/>
        <pt x="408" y="648" on="1"/>
        <pt x="408" y="461" on="1"/>
        <pt x="408" y="283" on="0"/>
        <pt x="417" y="130" on="1"/>
        <pt x="550" y="61" on="0"/>
        <pt x="716" y="61" on="1"/>
        <pt x="837" y="61" on="0"/>
        <pt x="967" y="118" on="1"/>
        <pt x="1173" y="208" on="0"/>
        <pt x="1236" y="440" on="1"/>
        <pt x="1259" y="522" on="0"/>
        <pt x="1259" y="783" on="0"/>
        <pt x="1170" y="1028" on="0"/>
        <pt x="1090" y="1112" on="1"/>
        <pt x="927" y="1285" on="0"/>
        <pt x="651" y="1285" on="1"/>
        <pt x="454" y="1285" on="0"/>
        <pt x="425" y="1233" on="1"/>
        <pt x="410" y="1205" on="0"/>
        <pt x="408" y="1134" on="0"/>
        <pt x="408" y="1100" on="1"/>
        <pt x="408" y="733" on="1"/>
      </contour>
    </TTGlyph>
    <TTGlyph name="Euro" xMin="65" yMin="-25" xMax="1341" yMax="1365">
      <contour>
        <pt x="1055" y="615" on="1"/>
        <pt x="1078" y="615" on="0"/>
        <pt x="1078" y="597" on="1"/>
        <pt x="1078" y="573" on="0"/>
        <pt x="1057" y="530" on="0"/>
        <pt x="1045" y="530" on="1"/>
        <pt x="424" y="530" on="1"/>
        <pt x="466" y="318" on="0"/>
        <pt x="593" y="190" on="1"/>
        <pt x="720" y="62" on="0"/>
        <pt x="894" y="62" on="1"/>
        <pt x="1021" y="62" on="0"/>
        <pt x="1161" y="130" on="0"/>
        <pt x="1248" y="211" on="0"/>
        <pt x="1292" y="285" on="0"/>
        <pt x="1302" y="291" on="0"/>
        <pt x="1318" y="292" on="0"/>
        <pt x="1340" y="254" on="0"/>
        <pt x="1340" y="188" on="0"/>
        <pt x="1308" y="139" on="0"/>
        <pt x="1281" y="114" on="1"/>
        <pt x="1127" y="-25" on="0"/>
        <pt x="863" y="-25" on="1"/>
        <pt x="596" y="-25" on="0"/>
        <pt x="422" y="145" on="1"/>
        <pt x="266" y="297" on="0"/>
        <pt x="231" y="530" on="1"/>
        <pt x="89" y="530" on="1"/>
        <pt x="65" y="530" on="0"/>
        <pt x="65" y="548" on="1"/>
        <pt x="65" y="572" on="0"/>
        <pt x="86" y="615" on="0"/>
        <pt x="98" y="615" on="1"/>
        <pt x="223" y="615" on="1"/>
        <pt x="222" y="623" on="0"/>
        <pt x="222" y="630" on="1"/>
        <pt x="222" y="646" on="1"/>
        <pt x="222" y="688" on="0"/>
        <pt x="226" y="730" on="1"/>
        <pt x="89" y="730" on="1"/>
        <pt x="65" y="730" on="0"/>
        <pt x="65" y="748" on="1"/>
        <pt x="65" y="772" on="0"/>
        <pt x="86" y="815" on="0"/>
        <pt x="98" y="815" on="1"/>
        <pt x="241" y="815" on="1"/>
        <pt x="293" y="1050" on="0"/>
        <pt x="470" y="1203" on="1"/>
        <pt x="656" y="1365" on="0"/>
        <pt x="915" y="1365" on="1"/>
        <pt x="1067" y="1365" on="0"/>
        <pt x="1167" y="1336" on="1"/>
        <pt x="1341" y="1286" on="0"/>
        <pt x="1341" y="1245" on="1"/>
        <pt x="1341" y="1232" on="0"/>
        <pt x="1307" y="1171" on="0"/>
        <pt x="1288" y="1103" on="0"/>
        <pt x="1275" y="1051" on="0"/>
        <pt x="1260" y="1021" on="0"/>
        <pt x="1243" y="1021" on="1"/>
        <pt x="1215" y="1021" on="0"/>
        <pt x="1215" y="1072" on="1"/>
        <pt x="1215" y="1168" on="0"/>
        <pt x="1162" y="1205" on="1"/>
        <pt x="1048" y="1285" on="0"/>
        <pt x="877" y="1285" on="1"/>
        <pt x="712" y="1285" on="0"/>
        <pt x="581" y="1164" on="1"/>
        <pt x="436" y="1031" on="0"/>
        <pt x="410" y="815" on="1"/>
        <pt x="1135" y="815" on="1"/>
        <pt x="1158" y="815" on="0"/>
        <pt x="1158" y="797" on="1"/>
        <pt x="1158" y="773" on="0"/>
        <pt x="1137" y="730" on="0"/>
        <pt x="1125" y="730" on="1"/>
        <pt x="405" y="730" on="1"/>
        <pt x="405" y="723" on="1"/>
        <pt x="405" y="680" on="0"/>
        <pt x="410" y="615" on="1"/>
      </contour>
    </TTGlyph>
    <TTGlyph name="F" xMin="68" yMin="-15" xMax="992" yMax="1356">
      <contour>
        <pt x="133" y="-15" on="1"/>
        <pt x="68" y="-15" on="0"/>
        <pt x="68" y="22" on="1"/>
        <pt x="68" y="51" on="0"/>
        <pt x="104" y="51" on="1"/>
        <pt x="153" y="46" on="1"/>
        <pt x="213" y="46" on="0"/>
        <pt x="234" y="113" on="1"/>
        <pt x="251" y="170" on="0"/>
        <pt x="251" y="317" on="1"/>
        <pt x="251" y="1023" on="1"/>
        <pt x="251" y="1170" on="0"/>
        <pt x="223" y="1261" on="0"/>
        <pt x="184" y="1294" on="0"/>
        <pt x="153" y="1294" on="1"/>
        <pt x="104" y="1290" on="1"/>
        <pt x="68" y="1290" on="0"/>
        <pt x="68" y="1319" on="1"/>
        <pt x="68" y="1356" on="0"/>
        <pt x="175" y="1356" on="0"/>
        <pt x="243" y="1351" on="0"/>
        <pt x="278" y="1348" on="1"/>
        <pt x="370" y="1340" on="0"/>
        <pt x="464" y="1340" on="0"/>
        <pt x="572" y="1345" on="0"/>
        <pt x="642" y="1348" on="1"/>
        <pt x="829" y="1356" on="0"/>
        <pt x="975" y="1356" on="0"/>
        <pt x="992" y="1338" on="0"/>
        <pt x="992" y="1307" on="0"/>
        <pt x="991" y="1279" on="0"/>
        <pt x="990" y="1262" on="1"/>
        <pt x="989" y="1239" on="0"/>
        <pt x="979" y="1148" on="0"/>
        <pt x="965" y="1117" on="0"/>
        <pt x="939" y="1117" on="0"/>
        <pt x="929" y="1130" on="0"/>
        <pt x="912" y="1177" on="0"/>
        <pt x="869" y="1220" on="0"/>
        <pt x="822" y="1234" on="1"/>
        <pt x="733" y="1261" on="0"/>
        <pt x="490" y="1261" on="1"/>
        <pt x="441" y="1261" on="1"/>
        <pt x="417" y="1261" on="0"/>
        <pt x="404" y="1247" on="0"/>
        <pt x="404" y="1222" on="1"/>
        <pt x="404" y="779" on="1"/>
        <pt x="499" y="768" on="0"/>
        <pt x="649" y="768" on="0"/>
        <pt x="716" y="770" on="0"/>
        <pt x="738" y="774" on="1"/>
        <pt x="777" y="782" on="0"/>
        <pt x="794" y="810" on="1"/>
        <pt x="828" y="863" on="0"/>
        <pt x="849" y="863" on="1"/>
        <pt x="876" y="863" on="0"/>
        <pt x="876" y="835" on="1"/>
        <pt x="841" y="693" on="1"/>
        <pt x="845" y="617" on="1"/>
        <pt x="845" y="545" on="0"/>
        <pt x="811" y="545" on="1"/>
        <pt x="782" y="545" on="0"/>
        <pt x="782" y="622" on="0"/>
        <pt x="773" y="660" on="0"/>
        <pt x="752" y="670" on="1"/>
        <pt x="720" y="687" on="0"/>
        <pt x="575" y="687" on="1"/>
        <pt x="572" y="687" on="0"/>
        <pt x="404" y="679" on="1"/>
        <pt x="404" y="317" on="1"/>
        <pt x="404" y="166" on="0"/>
        <pt x="431" y="79" on="0"/>
        <pt x="470" y="46" on="0"/>
        <pt x="502" y="46" on="1"/>
        <pt x="556" y="51" on="1"/>
        <pt x="594" y="51" on="0"/>
        <pt x="594" y="22" on="1"/>
        <pt x="594" y="-15" on="0"/>
        <pt x="528" y="-15" on="1"/>
        <pt x="340" y="0" on="1"/>
        <pt x="267" y="0" on="0"/>
        <pt x="165" y="-15" on="0"/>
      </contour>
    </TTGlyph>
    <TTGlyph name="G" xMin="83" yMin="-28" xMax="1445" yMax="1368">
      <contour>
        <pt x="1406" y="638" on="1"/>
        <pt x="1445" y="638" on="0"/>
        <pt x="1445" y="609" on="1"/>
        <pt x="1445" y="595" on="0"/>
        <pt x="1428" y="580" on="0"/>
        <pt x="1391" y="565" on="0"/>
        <pt x="1372" y="542" on="0"/>
        <pt x="1366" y="519" on="1"/>
        <pt x="1356" y="475" on="0"/>
        <pt x="1356" y="351" on="0"/>
        <pt x="1358" y="312" on="0"/>
        <pt x="1360" y="292" on="1"/>
        <pt x="1365" y="219" on="0"/>
        <pt x="1375" y="174" on="0"/>
        <pt x="1375" y="132" on="0"/>
        <pt x="1323" y="84" on="0"/>
        <pt x="1237" y="42" on="0"/>
        <pt x="1125" y="9" on="0"/>
        <pt x="1066" y="-3" on="1"/>
        <pt x="942" y="-28" on="0"/>
        <pt x="838" y="-28" on="1"/>
        <pt x="479" y="-28" on="0"/>
        <pt x="272" y="177" on="1"/>
        <pt x="83" y="365" on="0"/>
        <pt x="83" y="652" on="1"/>
        <pt x="83" y="975" on="0"/>
        <pt x="292" y="1171" on="1"/>
        <pt x="503" y="1368" on="0"/>
        <pt x="851" y="1368" on="1"/>
        <pt x="1109" y="1368" on="0"/>
        <pt x="1262" y="1306" on="1"/>
        <pt x="1292" y="1293" on="0"/>
        <pt x="1303" y="1279" on="1"/>
        <pt x="1324" y="1252" on="0"/>
        <pt x="1331" y="1138" on="0"/>
        <pt x="1332" y="1116" on="1"/>
        <pt x="1336" y="1066" on="0"/>
        <pt x="1336" y="1054" on="1"/>
        <pt x="1336" y="1015" on="0"/>
        <pt x="1309" y="1015" on="1"/>
        <pt x="1283" y="1015" on="0"/>
        <pt x="1254" y="1114" on="0"/>
        <pt x="1168" y="1202" on="0"/>
        <pt x="1108" y="1232" on="1"/>
        <pt x="988" y="1292" on="0"/>
        <pt x="696" y="1292" on="0"/>
        <pt x="493" y="1213" on="0"/>
        <pt x="422" y="1139" on="1"/>
        <pt x="273" y="985" on="0"/>
        <pt x="273" y="723" on="1"/>
        <pt x="273" y="443" on="0"/>
        <pt x="444" y="249" on="1"/>
        <pt x="525" y="158" on="0"/>
        <pt x="748" y="53" on="0"/>
        <pt x="880" y="53" on="1"/>
        <pt x="1089" y="53" on="0"/>
        <pt x="1153" y="132" on="1"/>
        <pt x="1194" y="184" on="0"/>
        <pt x="1194" y="274" on="1"/>
        <pt x="1194" y="491" on="1"/>
        <pt x="1194" y="538" on="0"/>
        <pt x="1172" y="549" on="1"/>
        <pt x="1143" y="564" on="0"/>
        <pt x="1092" y="564" on="1"/>
        <pt x="1006" y="564" on="0"/>
        <pt x="1006" y="640" on="0"/>
        <pt x="1074" y="640" on="1"/>
        <pt x="1275" y="627" on="1"/>
      </contour>
    </TTGlyph>
    <TTGlyph name="H" xMin="68" yMin="-15" xMax="1454" yMax="1356">
      <contour>
        <pt x="133" y="-15" on="1"/>
        <pt x="68" y="-15" on="0"/>
        <pt x="68" y="22" on="1"/>
        <pt x="68" y="51" on="0"/>
        <pt x="104" y="51" on="1"/>
        <pt x="153" y="46" on="1"/>
        <pt x="207" y="46" on="0"/>
        <pt x="228" y="98" on="1"/>
        <pt x="251" y="156" on="0"/>
        <pt x="251" y="317" on="1"/>
        <pt x="251" y="1023" on="1"/>
        <pt x="251" y="1188" on="0"/>
        <pt x="216" y="1273" on="0"/>
        <pt x="179" y="1294" on="0"/>
        <pt x="153" y="1294" on="1"/>
        <pt x="104" y="1290" on="1"/>
        <pt x="68" y="1290" on="0"/>
        <pt x="68" y="1319" on="1"/>
        <pt x="68" y="1356" on="0"/>
        <pt x="178" y="1356" on="0"/>
        <pt x="277" y="1340" on="0"/>
        <pt x="331" y="1340" on="1"/>
        <pt x="385" y="1340" on="0"/>
        <pt x="480" y="1356" on="0"/>
        <pt x="590" y="1356" on="0"/>
        <pt x="590" y="1319" on="1"/>
        <pt x="590" y="1290" on="0"/>
        <pt x="554" y="1290" on="1"/>
        <pt x="506" y="1294" on="1"/>
        <pt x="452" y="1294" on="0"/>
        <pt x="431" y="1242" on="1"/>
        <pt x="408" y="1184" on="0"/>
        <pt x="408" y="1023" on="1"/>
        <pt x="408" y="796" on="1"/>
        <pt x="1115" y="796" on="1"/>
        <pt x="1115" y="1023" on="1"/>
        <pt x="1115" y="1188" on="0"/>
        <pt x="1080" y="1273" on="0"/>
        <pt x="1043" y="1294" on="0"/>
        <pt x="1017" y="1294" on="1"/>
        <pt x="968" y="1290" on="1"/>
        <pt x="932" y="1290" on="0"/>
        <pt x="932" y="1319" on="1"/>
        <pt x="932" y="1356" on="0"/>
        <pt x="1042" y="1356" on="0"/>
        <pt x="1141" y="1340" on="0"/>
        <pt x="1195" y="1340" on="1"/>
        <pt x="1249" y="1340" on="0"/>
        <pt x="1344" y="1356" on="0"/>
        <pt x="1454" y="1356" on="0"/>
        <pt x="1454" y="1319" on="1"/>
        <pt x="1454" y="1290" on="0"/>
        <pt x="1418" y="1290" on="1"/>
        <pt x="1370" y="1294" on="1"/>
        <pt x="1316" y="1294" on="0"/>
        <pt x="1295" y="1242" on="1"/>
        <pt x="1272" y="1184" on="0"/>
        <pt x="1272" y="1023" on="1"/>
        <pt x="1272" y="317" on="1"/>
        <pt x="1272" y="154" on="0"/>
        <pt x="1307" y="68" on="0"/>
        <pt x="1344" y="46" on="0"/>
        <pt x="1370" y="46" on="1"/>
        <pt x="1418" y="51" on="1"/>
        <pt x="1454" y="51" on="0"/>
        <pt x="1454" y="22" on="1"/>
        <pt x="1454" y="-15" on="0"/>
        <pt x="1390" y="-15" on="1"/>
        <pt x="1357" y="-15" on="0"/>
        <pt x="1320" y="-9" on="1"/>
        <pt x="1263" y="0" on="0"/>
        <pt x="1131" y="0" on="0"/>
        <pt x="1029" y="-15" on="0"/>
        <pt x="997" y="-15" on="1"/>
        <pt x="932" y="-15" on="0"/>
        <pt x="932" y="22" on="1"/>
        <pt x="932" y="51" on="0"/>
        <pt x="968" y="51" on="1"/>
        <pt x="1017" y="46" on="1"/>
        <pt x="1071" y="46" on="0"/>
        <pt x="1092" y="98" on="1"/>
        <pt x="1115" y="156" on="0"/>
        <pt x="1115" y="317" on="1"/>
        <pt x="1115" y="701" on="1"/>
        <pt x="408" y="701" on="1"/>
        <pt x="408" y="317" on="1"/>
        <pt x="408" y="154" on="0"/>
        <pt x="443" y="68" on="0"/>
        <pt x="480" y="46" on="0"/>
        <pt x="506" y="46" on="1"/>
        <pt x="554" y="51" on="1"/>
        <pt x="590" y="51" on="0"/>
        <pt x="590" y="22" on="1"/>
        <pt x="590" y="-15" on="0"/>
        <pt x="526" y="-15" on="1"/>
        <pt x="493" y="-15" on="0"/>
        <pt x="456" y="-9" on="1"/>
        <pt x="336" y="10" on="0"/>
        <pt x="165" y="-15" on="0"/>
      </contour>
    </TTGlyph>
    <TTGlyph name="I" xMin="76" yMin="-15" xMax="612" yMax="1356">
      <contour>
        <pt x="146" y="-15" on="1"/>
        <pt x="81" y="-15" on="0"/>
        <pt x="81" y="22" on="1"/>
        <pt x="81" y="51" on="0"/>
        <pt x="117" y="51" on="1"/>
        <pt x="166" y="46" on="1"/>
        <pt x="220" y="46" on="0"/>
        <pt x="241" y="98" on="1"/>
        <pt x="264" y="156" on="0"/>
        <pt x="264" y="317" on="1"/>
        <pt x="259" y="1023" on="1"/>
        <pt x="259" y="1188" on="0"/>
        <pt x="224" y="1273" on="0"/>
        <pt x="187" y="1294" on="0"/>
        <pt x="161" y="1294" on="1"/>
        <pt x="112" y="1290" on="1"/>
        <pt x="76" y="1290" on="0"/>
        <pt x="76" y="1319" on="1"/>
        <pt x="76" y="1356" on="0"/>
        <pt x="186" y="1356" on="0"/>
        <pt x="285" y="1340" on="0"/>
        <pt x="339" y="1340" on="1"/>
        <pt x="393" y="1340" on="0"/>
        <pt x="491" y="1356" on="0"/>
        <pt x="600" y="1356" on="0"/>
        <pt x="600" y="1319" on="1"/>
        <pt x="600" y="1290" on="0"/>
        <pt x="564" y="1290" on="1"/>
        <pt x="516" y="1294" on="1"/>
        <pt x="462" y="1294" on="0"/>
        <pt x="441" y="1242" on="1"/>
        <pt x="418" y="1184" on="0"/>
        <pt x="418" y="1023" on="1"/>
        <pt x="423" y="317" on="1"/>
        <pt x="423" y="156" on="0"/>
        <pt x="462" y="68" on="0"/>
        <pt x="502" y="46" on="0"/>
        <pt x="528" y="46" on="1"/>
        <pt x="576" y="51" on="1"/>
        <pt x="612" y="51" on="0"/>
        <pt x="612" y="22" on="1"/>
        <pt x="612" y="-15" on="0"/>
        <pt x="548" y="-15" on="1"/>
        <pt x="515" y="-15" on="0"/>
        <pt x="478" y="-9" on="1"/>
        <pt x="353" y="11" on="0"/>
        <pt x="178" y="-15" on="0"/>
      </contour>
    </TTGlyph>
    <TTGlyph name="IJ" xMin="76" yMin="-276" xMax="1280" yMax="1356">
      <contour>
        <pt x="1244" y="1290" on="1"/>
        <pt x="1196" y="1294" on="1"/>
        <pt x="1138" y="1294" on="0"/>
        <pt x="1118" y="1236" on="1"/>
        <pt x="1098" y="1179" on="0"/>
        <pt x="1098" y="1023" on="1"/>
        <pt x="1098" y="177" on="1"/>
        <pt x="1098" y="-20" on="0"/>
        <pt x="997" y="-148" on="1"/>
        <pt x="895" y="-276" on="0"/>
        <pt x="737" y="-276" on="1"/>
        <pt x="624" y="-276" on="0"/>
        <pt x="585" y="-208" on="1"/>
        <pt x="573" y="-187" on="0"/>
        <pt x="573" y="-137" on="0"/>
        <pt x="612" y="-101" on="0"/>
        <pt x="683" y="-101" on="0"/>
        <pt x="735" y="-158" on="0"/>
        <pt x="738" y="-209" on="1"/>
        <pt x="750" y="-212" on="0"/>
        <pt x="802" y="-212" on="0"/>
        <pt x="864" y="-166" on="0"/>
        <pt x="888" y="-121" on="1"/>
        <pt x="941" y="-22" on="0"/>
        <pt x="941" y="144" on="1"/>
        <pt x="941" y="1023" on="1"/>
        <pt x="941" y="1181" on="0"/>
        <pt x="910" y="1268" on="0"/>
        <pt x="872" y="1294" on="0"/>
        <pt x="843" y="1294" on="1"/>
        <pt x="794" y="1290" on="1"/>
        <pt x="758" y="1290" on="0"/>
        <pt x="758" y="1319" on="1"/>
        <pt x="758" y="1356" on="0"/>
        <pt x="823" y="1356" on="1"/>
        <pt x="855" y="1356" on="0"/>
        <pt x="895" y="1350" on="1"/>
        <pt x="970" y="1340" on="0"/>
        <pt x="1053" y="1340" on="0"/>
        <pt x="1104" y="1345" on="0"/>
        <pt x="1126" y="1348" on="1"/>
        <pt x="1187" y="1356" on="0"/>
        <pt x="1216" y="1356" on="1"/>
        <pt x="1280" y="1356" on="0"/>
        <pt x="1280" y="1319" on="1"/>
        <pt x="1280" y="1290" on="0"/>
      </contour>
      <contour>
        <pt x="146" y="-15" on="1"/>
        <pt x="81" y="-15" on="0"/>
        <pt x="81" y="22" on="1"/>
        <pt x="81" y="51" on="0"/>
        <pt x="117" y="51" on="1"/>
        <pt x="166" y="46" on="1"/>
        <pt x="220" y="46" on="0"/>
        <pt x="241" y="98" on="1"/>
        <pt x="264" y="156" on="0"/>
        <pt x="264" y="317" on="1"/>
        <pt x="259" y="1023" on="1"/>
        <pt x="259" y="1188" on="0"/>
        <pt x="224" y="1273" on="0"/>
        <pt x="187" y="1294" on="0"/>
        <pt x="161" y="1294" on="1"/>
        <pt x="112" y="1290" on="1"/>
        <pt x="76" y="1290" on="0"/>
        <pt x="76" y="1319" on="1"/>
        <pt x="76" y="1356" on="0"/>
        <pt x="186" y="1356" on="0"/>
        <pt x="285" y="1340" on="0"/>
        <pt x="339" y="1340" on="1"/>
        <pt x="393" y="1340" on="0"/>
        <pt x="491" y="1356" on="0"/>
        <pt x="600" y="1356" on="0"/>
        <pt x="600" y="1319" on="1"/>
        <pt x="600" y="1290" on="0"/>
        <pt x="564" y="1290" on="1"/>
        <pt x="516" y="1294" on="1"/>
        <pt x="462" y="1294" on="0"/>
        <pt x="441" y="1242" on="1"/>
        <pt x="418" y="1184" on="0"/>
        <pt x="418" y="1023" on="1"/>
        <pt x="423" y="317" on="1"/>
        <pt x="423" y="156" on="0"/>
        <pt x="462" y="68" on="0"/>
        <pt x="502" y="46" on="0"/>
        <pt x="528" y="46" on="1"/>
        <pt x="576" y="51" on="1"/>
        <pt x="612" y="51" on="0"/>
        <pt x="612" y="22" on="1"/>
        <pt x="612" y="-15" on="0"/>
        <pt x="548" y="-15" on="1"/>
        <pt x="515" y="-15" on="0"/>
        <pt x="478" y="-9" on="1"/>
        <pt x="353" y="11" on="0"/>
        <pt x="178" y="-15" on="0"/>
      </contour>
    </TTGlyph>
    <TTGlyph name="Iacute" xMin="76" yMin="-15" xMax="612" yMax="1764">
      <contour>
        <pt x="221" y="1529" on="1"/>
        <pt x="161" y="1509" on="0"/>
        <pt x="141" y="1509" on="0"/>
        <pt x="123" y="1535" on="0"/>
        <pt x="123" y="1545" on="1"/>
        <pt x="123" y="1561" on="0"/>
        <pt x="144" y="1573" on="1"/>
        <pt x="483" y="1756" on="1"/>
        <pt x="496" y="1764" on="0"/>
        <pt x="510" y="1764" on="0"/>
        <pt x="530" y="1746" on="0"/>
        <pt x="540" y="1732" on="1"/>
        <pt x="565" y="1695" on="0"/>
        <pt x="565" y="1654" on="0"/>
        <pt x="557" y="1643" on="0"/>
        <pt x="546" y="1639" on="1"/>
      </contour>
      <contour>
        <pt x="146" y="-15" on="1"/>
        <pt x="81" y="-15" on="0"/>
        <pt x="81" y="22" on="1"/>
        <pt x="81" y="51" on="0"/>
        <pt x="117" y="51" on="1"/>
        <pt x="166" y="46" on="1"/>
        <pt x="220" y="46" on="0"/>
        <pt x="241" y="98" on="1"/>
        <pt x="264" y="156" on="0"/>
        <pt x="264" y="317" on="1"/>
        <pt x="259" y="1023" on="1"/>
        <pt x="259" y="1188" on="0"/>
        <pt x="224" y="1273" on="0"/>
        <pt x="187" y="1294" on="0"/>
        <pt x="161" y="1294" on="1"/>
        <pt x="112" y="1290" on="1"/>
        <pt x="76" y="1290" on="0"/>
        <pt x="76" y="1319" on="1"/>
        <pt x="76" y="1356" on="0"/>
        <pt x="186" y="1356" on="0"/>
        <pt x="285" y="1340" on="0"/>
        <pt x="339" y="1340" on="1"/>
        <pt x="393" y="1340" on="0"/>
        <pt x="491" y="1356" on="0"/>
        <pt x="600" y="1356" on="0"/>
        <pt x="600" y="1319" on="1"/>
        <pt x="600" y="1290" on="0"/>
        <pt x="564" y="1290" on="1"/>
        <pt x="516" y="1294" on="1"/>
        <pt x="462" y="1294" on="0"/>
        <pt x="441" y="1242" on="1"/>
        <pt x="418" y="1184" on="0"/>
        <pt x="418" y="1023" on="1"/>
        <pt x="423" y="317" on="1"/>
        <pt x="423" y="156" on="0"/>
        <pt x="462" y="68" on="0"/>
        <pt x="502" y="46" on="0"/>
        <pt x="528" y="46" on="1"/>
        <pt x="576" y="51" on="1"/>
        <pt x="612" y="51" on="0"/>
        <pt x="612" y="22" on="1"/>
        <pt x="612" y="-15" on="0"/>
        <pt x="548" y="-15" on="1"/>
        <pt x="515" y="-15" on="0"/>
        <pt x="478" y="-9" on="1"/>
        <pt x="353" y="11" on="0"/>
        <pt x="178" y="-15" on="0"/>
      </contour>
    </TTGlyph>
    <TTGlyph name="Icircumflex" xMin="76" yMin="-15" xMax="612" yMax="1770">
      <contour>
        <pt x="156" y="1520" on="1"/>
        <pt x="127" y="1501" on="0"/>
        <pt x="108" y="1501" on="0"/>
        <pt x="83" y="1527" on="0"/>
        <pt x="83" y="1536" on="1"/>
        <pt x="83" y="1549" on="0"/>
        <pt x="100" y="1564" on="1"/>
        <pt x="290" y="1733" on="1"/>
        <pt x="304" y="1745" on="0"/>
        <pt x="321" y="1760" on="0"/>
        <pt x="326" y="1764" on="1"/>
        <pt x="335" y="1770" on="0"/>
        <pt x="347" y="1770" on="0"/>
        <pt x="354" y="1768" on="0"/>
        <pt x="360" y="1764" on="1"/>
        <pt x="368" y="1758" on="0"/>
        <pt x="398" y="1733" on="1"/>
        <pt x="588" y="1564" on="1"/>
        <pt x="605" y="1549" on="0"/>
        <pt x="605" y="1527" on="0"/>
        <pt x="580" y="1501" on="0"/>
        <pt x="572" y="1501" on="1"/>
        <pt x="561" y="1501" on="0"/>
        <pt x="532" y="1520" on="1"/>
        <pt x="344" y="1638" on="1"/>
      </contour>
      <contour>
        <pt x="146" y="-15" on="1"/>
        <pt x="81" y="-15" on="0"/>
        <pt x="81" y="22" on="1"/>
        <pt x="81" y="51" on="0"/>
        <pt x="117" y="51" on="1"/>
        <pt x="166" y="46" on="1"/>
        <pt x="220" y="46" on="0"/>
        <pt x="241" y="98" on="1"/>
        <pt x="264" y="156" on="0"/>
        <pt x="264" y="317" on="1"/>
        <pt x="259" y="1023" on="1"/>
        <pt x="259" y="1188" on="0"/>
        <pt x="224" y="1273" on="0"/>
        <pt x="187" y="1294" on="0"/>
        <pt x="161" y="1294" on="1"/>
        <pt x="112" y="1290" on="1"/>
        <pt x="76" y="1290" on="0"/>
        <pt x="76" y="1319" on="1"/>
        <pt x="76" y="1356" on="0"/>
        <pt x="186" y="1356" on="0"/>
        <pt x="285" y="1340" on="0"/>
        <pt x="339" y="1340" on="1"/>
        <pt x="393" y="1340" on="0"/>
        <pt x="491" y="1356" on="0"/>
        <pt x="600" y="1356" on="0"/>
        <pt x="600" y="1319" on="1"/>
        <pt x="600" y="1290" on="0"/>
        <pt x="564" y="1290" on="1"/>
        <pt x="516" y="1294" on="1"/>
        <pt x="462" y="1294" on="0"/>
        <pt x="441" y="1242" on="1"/>
        <pt x="418" y="1184" on="0"/>
        <pt x="418" y="1023" on="1"/>
        <pt x="423" y="317" on="1"/>
        <pt x="423" y="156" on="0"/>
        <pt x="462" y="68" on="0"/>
        <pt x="502" y="46" on="0"/>
        <pt x="528" y="46" on="1"/>
        <pt x="576" y="51" on="1"/>
        <pt x="612" y="51" on="0"/>
        <pt x="612" y="22" on="1"/>
        <pt x="612" y="-15" on="0"/>
        <pt x="548" y="-15" on="1"/>
        <pt x="515" y="-15" on="0"/>
        <pt x="478" y="-9" on="1"/>
        <pt x="353" y="11" on="0"/>
        <pt x="178" y="-15" on="0"/>
      </contour>
    </TTGlyph>
    <TTGlyph name="Idieresis" xMin="16" yMin="-15" xMax="673" yMax="1742">
      <contour>
        <pt x="673" y="1601" on="0"/>
        <pt x="616" y="1542" on="0"/>
        <pt x="519" y="1542" on="0"/>
        <pt x="466" y="1599" on="0"/>
        <pt x="466" y="1666" on="0"/>
        <pt x="484" y="1702" on="0"/>
        <pt x="498" y="1715" on="1"/>
        <pt x="529" y="1742" on="0"/>
        <pt x="618" y="1742" on="0"/>
        <pt x="673" y="1686" on="0"/>
      </contour>
      <contour>
        <pt x="223" y="1601" on="0"/>
        <pt x="166" y="1542" on="0"/>
        <pt x="69" y="1542" on="0"/>
        <pt x="16" y="1599" on="0"/>
        <pt x="16" y="1666" on="0"/>
        <pt x="34" y="1702" on="0"/>
        <pt x="48" y="1715" on="1"/>
        <pt x="79" y="1742" on="0"/>
        <pt x="168" y="1742" on="0"/>
        <pt x="223" y="1686" on="0"/>
      </contour>
      <contour>
        <pt x="146" y="-15" on="1"/>
        <pt x="81" y="-15" on="0"/>
        <pt x="81" y="22" on="1"/>
        <pt x="81" y="51" on="0"/>
        <pt x="117" y="51" on="1"/>
        <pt x="166" y="46" on="1"/>
        <pt x="220" y="46" on="0"/>
        <pt x="241" y="98" on="1"/>
        <pt x="264" y="156" on="0"/>
        <pt x="264" y="317" on="1"/>
        <pt x="259" y="1023" on="1"/>
        <pt x="259" y="1188" on="0"/>
        <pt x="224" y="1273" on="0"/>
        <pt x="187" y="1294" on="0"/>
        <pt x="161" y="1294" on="1"/>
        <pt x="112" y="1290" on="1"/>
        <pt x="76" y="1290" on="0"/>
        <pt x="76" y="1319" on="1"/>
        <pt x="76" y="1356" on="0"/>
        <pt x="186" y="1356" on="0"/>
        <pt x="285" y="1340" on="0"/>
        <pt x="339" y="1340" on="1"/>
        <pt x="393" y="1340" on="0"/>
        <pt x="491" y="1356" on="0"/>
        <pt x="600" y="1356" on="0"/>
        <pt x="600" y="1319" on="1"/>
        <pt x="600" y="1290" on="0"/>
        <pt x="564" y="1290" on="1"/>
        <pt x="516" y="1294" on="1"/>
        <pt x="462" y="1294" on="0"/>
        <pt x="441" y="1242" on="1"/>
        <pt x="418" y="1184" on="0"/>
        <pt x="418" y="1023" on="1"/>
        <pt x="423" y="317" on="1"/>
        <pt x="423" y="156" on="0"/>
        <pt x="462" y="68" on="0"/>
        <pt x="502" y="46" on="0"/>
        <pt x="528" y="46" on="1"/>
        <pt x="576" y="51" on="1"/>
        <pt x="612" y="51" on="0"/>
        <pt x="612" y="22" on="1"/>
        <pt x="612" y="-15" on="0"/>
        <pt x="548" y="-15" on="1"/>
        <pt x="515" y="-15" on="0"/>
        <pt x="478" y="-9" on="1"/>
        <pt x="353" y="11" on="0"/>
        <pt x="178" y="-15" on="0"/>
      </contour>
    </TTGlyph>
    <TTGlyph name="Igrave" xMin="76" yMin="-15" xMax="612" yMax="1761">
      <contour>
        <pt x="142" y="1636" on="1"/>
        <pt x="123" y="1643" on="0"/>
        <pt x="123" y="1676" on="0"/>
        <pt x="138" y="1714" on="0"/>
        <pt x="148" y="1728" on="1"/>
        <pt x="170" y="1761" on="0"/>
        <pt x="182" y="1761" on="1"/>
        <pt x="192" y="1761" on="0"/>
        <pt x="205" y="1753" on="1"/>
        <pt x="544" y="1570" on="1"/>
        <pt x="565" y="1558" on="0"/>
        <pt x="565" y="1532" on="0"/>
        <pt x="547" y="1506" on="0"/>
        <pt x="538" y="1506" on="1"/>
        <pt x="527" y="1506" on="0"/>
        <pt x="467" y="1526" on="1"/>
      </contour>
      <contour>
        <pt x="146" y="-15" on="1"/>
        <pt x="81" y="-15" on="0"/>
        <pt x="81" y="22" on="1"/>
        <pt x="81" y="51" on="0"/>
        <pt x="117" y="51" on="1"/>
        <pt x="166" y="46" on="1"/>
        <pt x="220" y="46" on="0"/>
        <pt x="241" y="98" on="1"/>
        <pt x="264" y="156" on="0"/>
        <pt x="264" y="317" on="1"/>
        <pt x="259" y="1023" on="1"/>
        <pt x="259" y="1188" on="0"/>
        <pt x="224" y="1273" on="0"/>
        <pt x="187" y="1294" on="0"/>
        <pt x="161" y="1294" on="1"/>
        <pt x="112" y="1290" on="1"/>
        <pt x="76" y="1290" on="0"/>
        <pt x="76" y="1319" on="1"/>
        <pt x="76" y="1356" on="0"/>
        <pt x="186" y="1356" on="0"/>
        <pt x="285" y="1340" on="0"/>
        <pt x="339" y="1340" on="1"/>
        <pt x="393" y="1340" on="0"/>
        <pt x="491" y="1356" on="0"/>
        <pt x="600" y="1356" on="0"/>
        <pt x="600" y="1319" on="1"/>
        <pt x="600" y="1290" on="0"/>
        <pt x="564" y="1290" on="1"/>
        <pt x="516" y="1294" on="1"/>
        <pt x="462" y="1294" on="0"/>
        <pt x="441" y="1242" on="1"/>
        <pt x="418" y="1184" on="0"/>
        <pt x="418" y="1023" on="1"/>
        <pt x="423" y="317" on="1"/>
        <pt x="423" y="156" on="0"/>
        <pt x="462" y="68" on="0"/>
        <pt x="502" y="46" on="0"/>
        <pt x="528" y="46" on="1"/>
        <pt x="576" y="51" on="1"/>
        <pt x="612" y="51" on="0"/>
        <pt x="612" y="22" on="1"/>
        <pt x="612" y="-15" on="0"/>
        <pt x="548" y="-15" on="1"/>
        <pt x="515" y="-15" on="0"/>
        <pt x="478" y="-9" on="1"/>
        <pt x="353" y="11" on="0"/>
        <pt x="178" y="-15" on="0"/>
      </contour>
    </TTGlyph>
    <TTGlyph name="Itilde" xMin="43" yMin="-15" xMax="645" yMax="1733">
      <contour>
        <pt x="94" y="1518" on="0"/>
        <pt x="90" y="1512" on="0"/>
        <pt x="72" y="1512" on="0"/>
        <pt x="43" y="1535" on="0"/>
        <pt x="43" y="1580" on="0"/>
        <pt x="72" y="1648" on="0"/>
        <pt x="97" y="1674" on="1"/>
        <pt x="152" y="1733" on="0"/>
        <pt x="222" y="1733" on="1"/>
        <pt x="301" y="1733" on="0"/>
        <pt x="382" y="1673" on="1"/>
        <pt x="440" y="1629" on="0"/>
        <pt x="488" y="1622" on="0"/>
        <pt x="508" y="1622" on="1"/>
        <pt x="554" y="1622" on="0"/>
        <pt x="590" y="1718" on="1"/>
        <pt x="595" y="1733" on="0"/>
        <pt x="616" y="1733" on="0"/>
        <pt x="645" y="1710" on="0"/>
        <pt x="645" y="1665" on="0"/>
        <pt x="615" y="1596" on="0"/>
        <pt x="590" y="1570" on="1"/>
        <pt x="536" y="1512" on="0"/>
        <pt x="466" y="1512" on="1"/>
        <pt x="403" y="1512" on="0"/>
        <pt x="334" y="1551" on="0"/>
        <pt x="311" y="1568" on="1"/>
        <pt x="248" y="1615" on="0"/>
        <pt x="200" y="1624" on="0"/>
        <pt x="180" y="1624" on="1"/>
        <pt x="134" y="1624" on="0"/>
        <pt x="98" y="1527" on="1"/>
      </contour>
      <contour>
        <pt x="146" y="-15" on="1"/>
        <pt x="81" y="-15" on="0"/>
        <pt x="81" y="22" on="1"/>
        <pt x="81" y="51" on="0"/>
        <pt x="117" y="51" on="1"/>
        <pt x="166" y="46" on="1"/>
        <pt x="220" y="46" on="0"/>
        <pt x="241" y="98" on="1"/>
        <pt x="264" y="156" on="0"/>
        <pt x="264" y="317" on="1"/>
        <pt x="259" y="1023" on="1"/>
        <pt x="259" y="1188" on="0"/>
        <pt x="224" y="1273" on="0"/>
        <pt x="187" y="1294" on="0"/>
        <pt x="161" y="1294" on="1"/>
        <pt x="112" y="1290" on="1"/>
        <pt x="76" y="1290" on="0"/>
        <pt x="76" y="1319" on="1"/>
        <pt x="76" y="1356" on="0"/>
        <pt x="186" y="1356" on="0"/>
        <pt x="285" y="1340" on="0"/>
        <pt x="339" y="1340" on="1"/>
        <pt x="393" y="1340" on="0"/>
        <pt x="491" y="1356" on="0"/>
        <pt x="600" y="1356" on="0"/>
        <pt x="600" y="1319" on="1"/>
        <pt x="600" y="1290" on="0"/>
        <pt x="564" y="1290" on="1"/>
        <pt x="516" y="1294" on="1"/>
        <pt x="462" y="1294" on="0"/>
        <pt x="441" y="1242" on="1"/>
        <pt x="418" y="1184" on="0"/>
        <pt x="418" y="1023" on="1"/>
        <pt x="423" y="317" on="1"/>
        <pt x="423" y="156" on="0"/>
        <pt x="462" y="68" on="0"/>
        <pt x="502" y="46" on="0"/>
        <pt x="528" y="46" on="1"/>
        <pt x="576" y="51" on="1"/>
        <pt x="612" y="51" on="0"/>
        <pt x="612" y="22" on="1"/>
        <pt x="612" y="-15" on="0"/>
        <pt x="548" y="-15" on="1"/>
        <pt x="515" y="-15" on="0"/>
        <pt x="478" y="-9" on="1"/>
        <pt x="353" y="11" on="0"/>
        <pt x="178" y="-15" on="0"/>
      </contour>
    </TTGlyph>
    <TTGlyph name="J" xMin="-105" yMin="-276" xMax="602" yMax="1356">
      <contour>
        <pt x="566" y="1290" on="1"/>
        <pt x="518" y="1294" on="1"/>
        <pt x="460" y="1294" on="0"/>
        <pt x="440" y="1236" on="1"/>
        <pt x="420" y="1179" on="0"/>
        <pt x="420" y="1023" on="1"/>
        <pt x="420" y="177" on="1"/>
        <pt x="420" y="-20" on="0"/>
        <pt x="319" y="-148" on="1"/>
        <pt x="217" y="-276" on="0"/>
        <pt x="59" y="-276" on="1"/>
        <pt x="-54" y="-276" on="0"/>
        <pt x="-93" y="-208" on="1"/>
        <pt x="-105" y="-187" on="0"/>
        <pt x="-105" y="-137" on="0"/>
        <pt x="-66" y="-101" on="0"/>
        <pt x="5" y="-101" on="0"/>
        <pt x="57" y="-158" on="0"/>
        <pt x="60" y="-209" on="1"/>
        <pt x="72" y="-212" on="0"/>
        <pt x="124" y="-212" on="0"/>
        <pt x="186" y="-166" on="0"/>
        <pt x="210" y="-121" on="1"/>
        <pt x="263" y="-22" on="0"/>
        <pt x="263" y="144" on="1"/>
        <pt x="263" y="1023" on="1"/>
        <pt x="263" y="1181" on="0"/>
        <pt x="232" y="1268" on="0"/>
        <pt x="194" y="1294" on="0"/>
        <pt x="165" y="1294" on="1"/>
        <pt x="116" y="1290" on="1"/>
        <pt x="80" y="1290" on="0"/>
        <pt x="80" y="1319" on="1"/>
        <pt x="80" y="1356" on="0"/>
        <pt x="145" y="1356" on="1"/>
        <pt x="177" y="1356" on="0"/>
        <pt x="217" y="1350" on="1"/>
        <pt x="292" y="1340" on="0"/>
        <pt x="375" y="1340" on="0"/>
        <pt x="426" y="1345" on="0"/>
        <pt x="448" y="1348" on="1"/>
        <pt x="508" y="1356" on="0"/>
        <pt x="538" y="1356" on="1"/>
        <pt x="602" y="1356" on="0"/>
        <pt x="602" y="1319" on="1"/>
        <pt x="602" y="1290" on="0"/>
      </contour>
    </TTGlyph>
    <TTGlyph name="Jcircumflex" xMin="-105" yMin="-276" xMax="607" yMax="1770">
      <contour>
        <pt x="158" y="1520" on="1"/>
        <pt x="129" y="1501" on="0"/>
        <pt x="110" y="1501" on="0"/>
        <pt x="85" y="1527" on="0"/>
        <pt x="85" y="1536" on="1"/>
        <pt x="85" y="1549" on="0"/>
        <pt x="102" y="1564" on="1"/>
        <pt x="292" y="1733" on="1"/>
        <pt x="306" y="1745" on="0"/>
        <pt x="323" y="1760" on="0"/>
        <pt x="328" y="1764" on="1"/>
        <pt x="337" y="1770" on="0"/>
        <pt x="349" y="1770" on="0"/>
        <pt x="356" y="1768" on="0"/>
        <pt x="362" y="1764" on="1"/>
        <pt x="370" y="1758" on="0"/>
        <pt x="400" y="1733" on="1"/>
        <pt x="590" y="1564" on="1"/>
        <pt x="607" y="1549" on="0"/>
        <pt x="607" y="1527" on="0"/>
        <pt x="582" y="1501" on="0"/>
        <pt x="574" y="1501" on="1"/>
        <pt x="563" y="1501" on="0"/>
        <pt x="534" y="1520" on="1"/>
        <pt x="346" y="1638" on="1"/>
      </contour>
      <contour>
        <pt x="566" y="1290" on="1"/>
        <pt x="518" y="1294" on="1"/>
        <pt x="460" y="1294" on="0"/>
        <pt x="440" y="1236" on="1"/>
        <pt x="420" y="1179" on="0"/>
        <pt x="420" y="1023" on="1"/>
        <pt x="420" y="177" on="1"/>
        <pt x="420" y="-20" on="0"/>
        <pt x="319" y="-148" on="1"/>
        <pt x="217" y="-276" on="0"/>
        <pt x="59" y="-276" on="1"/>
        <pt x="-54" y="-276" on="0"/>
        <pt x="-93" y="-208" on="1"/>
        <pt x="-105" y="-187" on="0"/>
        <pt x="-105" y="-137" on="0"/>
        <pt x="-66" y="-101" on="0"/>
        <pt x="5" y="-101" on="0"/>
        <pt x="57" y="-158" on="0"/>
        <pt x="60" y="-209" on="1"/>
        <pt x="72" y="-212" on="0"/>
        <pt x="124" y="-212" on="0"/>
        <pt x="186" y="-166" on="0"/>
        <pt x="210" y="-121" on="1"/>
        <pt x="263" y="-22" on="0"/>
        <pt x="263" y="144" on="1"/>
        <pt x="263" y="1023" on="1"/>
        <pt x="263" y="1181" on="0"/>
        <pt x="232" y="1268" on="0"/>
        <pt x="194" y="1294" on="0"/>
        <pt x="165" y="1294" on="1"/>
        <pt x="116" y="1290" on="1"/>
        <pt x="80" y="1290" on="0"/>
        <pt x="80" y="1319" on="1"/>
        <pt x="80" y="1356" on="0"/>
        <pt x="145" y="1356" on="1"/>
        <pt x="177" y="1356" on="0"/>
        <pt x="217" y="1350" on="1"/>
        <pt x="292" y="1340" on="0"/>
        <pt x="375" y="1340" on="0"/>
        <pt x="426" y="1345" on="0"/>
        <pt x="448" y="1348" on="1"/>
        <pt x="508" y="1356" on="0"/>
        <pt x="538" y="1356" on="1"/>
        <pt x="602" y="1356" on="0"/>
        <pt x="602" y="1319" on="1"/>
        <pt x="602" y="1290" on="0"/>
      </contour>
    </TTGlyph>
    <TTGlyph name="K" xMin="68" yMin="-15" xMax="1335" yMax="1356">
      <contour>
        <pt x="133" y="-15" on="1"/>
        <pt x="68" y="-15" on="0"/>
        <pt x="68" y="22" on="1"/>
        <pt x="68" y="51" on="0"/>
        <pt x="104" y="51" on="1"/>
        <pt x="153" y="46" on="1"/>
        <pt x="211" y="46" on="0"/>
        <pt x="230" y="100" on="1"/>
        <pt x="251" y="158" on="0"/>
        <pt x="251" y="317" on="1"/>
        <pt x="251" y="1023" on="1"/>
        <pt x="251" y="1185" on="0"/>
        <pt x="218" y="1271" on="0"/>
        <pt x="180" y="1294" on="0"/>
        <pt x="153" y="1294" on="1"/>
        <pt x="104" y="1290" on="1"/>
        <pt x="68" y="1290" on="0"/>
        <pt x="68" y="1319" on="1"/>
        <pt x="68" y="1356" on="0"/>
        <pt x="178" y="1356" on="0"/>
        <pt x="277" y="1340" on="0"/>
        <pt x="384" y="1340" on="0"/>
        <pt x="481" y="1356" on="0"/>
        <pt x="590" y="1356" on="0"/>
        <pt x="590" y="1319" on="1"/>
        <pt x="590" y="1290" on="0"/>
        <pt x="554" y="1290" on="1"/>
        <pt x="506" y="1294" on="1"/>
        <pt x="451" y="1294" on="0"/>
        <pt x="430" y="1240" on="1"/>
        <pt x="408" y="1185" on="0"/>
        <pt x="408" y="1023" on="1"/>
        <pt x="408" y="706" on="1"/>
        <pt x="692" y="1043" on="1"/>
        <pt x="856" y="1237" on="0"/>
        <pt x="874" y="1271" on="0"/>
        <pt x="874" y="1285" on="0"/>
        <pt x="855" y="1293" on="0"/>
        <pt x="843" y="1296" on="1"/>
        <pt x="812" y="1302" on="0"/>
        <pt x="812" y="1320" on="1"/>
        <pt x="812" y="1349" on="0"/>
        <pt x="857" y="1349" on="1"/>
        <pt x="871" y="1349" on="0"/>
        <pt x="907" y="1346" on="0"/>
        <pt x="943" y="1343" on="0"/>
        <pt x="976" y="1340" on="0"/>
        <pt x="988" y="1340" on="1"/>
        <pt x="1000" y="1340" on="0"/>
        <pt x="1038" y="1345" on="0"/>
        <pt x="1076" y="1350" on="0"/>
        <pt x="1109" y="1355" on="0"/>
        <pt x="1117" y="1355" on="1"/>
        <pt x="1176" y="1355" on="0"/>
        <pt x="1176" y="1323" on="1"/>
        <pt x="1176" y="1305" on="0"/>
        <pt x="1151" y="1298" on="0"/>
        <pt x="1121" y="1290" on="0"/>
        <pt x="1069" y="1266" on="0"/>
        <pt x="996" y="1219" on="0"/>
        <pt x="951" y="1181" on="1"/>
        <pt x="851" y="1096" on="0"/>
        <pt x="734" y="954" on="1"/>
        <pt x="609" y="804" on="1"/>
        <pt x="1117" y="168" on="1"/>
        <pt x="1214" y="71" on="0"/>
        <pt x="1280" y="63" on="1"/>
        <pt x="1315" y="58" on="0"/>
        <pt x="1335" y="42" on="0"/>
        <pt x="1335" y="30" on="1"/>
        <pt x="1335" y="0" on="0"/>
        <pt x="1270" y="0" on="1"/>
        <pt x="1067" y="0" on="1"/>
        <pt x="1013" y="-2" on="0"/>
        <pt x="944" y="90" on="1"/>
        <pt x="504" y="678" on="1"/>
        <pt x="408" y="564" on="1"/>
        <pt x="408" y="317" on="1"/>
        <pt x="408" y="155" on="0"/>
        <pt x="441" y="69" on="0"/>
        <pt x="479" y="46" on="0"/>
        <pt x="506" y="46" on="1"/>
        <pt x="554" y="51" on="1"/>
        <pt x="590" y="51" on="0"/>
        <pt x="590" y="22" on="1"/>
        <pt x="590" y="-15" on="0"/>
        <pt x="526" y="-15" on="1"/>
        <pt x="493" y="-15" on="0"/>
        <pt x="456" y="-9" on="1"/>
        <pt x="336" y="10" on="0"/>
        <pt x="165" y="-15" on="0"/>
      </contour>
    </TTGlyph>
    <TTGlyph name="L" xMin="68" yMin="-20" xMax="1047" yMax="1356">
      <contour>
        <pt x="123" y="-15" on="1"/>
        <pt x="68" y="-15" on="0"/>
        <pt x="68" y="22" on="1"/>
        <pt x="68" y="51" on="0"/>
        <pt x="104" y="51" on="1"/>
        <pt x="153" y="46" on="1"/>
        <pt x="213" y="46" on="0"/>
        <pt x="234" y="113" on="1"/>
        <pt x="251" y="170" on="0"/>
        <pt x="251" y="317" on="1"/>
        <pt x="251" y="1023" on="1"/>
        <pt x="251" y="1170" on="0"/>
        <pt x="223" y="1261" on="0"/>
        <pt x="184" y="1294" on="0"/>
        <pt x="153" y="1294" on="1"/>
        <pt x="104" y="1290" on="1"/>
        <pt x="68" y="1290" on="0"/>
        <pt x="68" y="1319" on="1"/>
        <pt x="68" y="1356" on="0"/>
        <pt x="178" y="1356" on="0"/>
        <pt x="277" y="1340" on="0"/>
        <pt x="384" y="1340" on="0"/>
        <pt x="481" y="1356" on="0"/>
        <pt x="590" y="1356" on="0"/>
        <pt x="590" y="1319" on="1"/>
        <pt x="590" y="1290" on="0"/>
        <pt x="554" y="1290" on="1"/>
        <pt x="506" y="1294" on="1"/>
        <pt x="445" y="1294" on="0"/>
        <pt x="424" y="1227" on="1"/>
        <pt x="408" y="1174" on="0"/>
        <pt x="408" y="1023" on="1"/>
        <pt x="408" y="458" on="1"/>
        <pt x="408" y="239" on="0"/>
        <pt x="418" y="95" on="1"/>
        <pt x="491" y="75" on="0"/>
        <pt x="668" y="75" on="0"/>
        <pt x="799" y="95" on="0"/>
        <pt x="847" y="115" on="1"/>
        <pt x="937" y="152" on="0"/>
        <pt x="987" y="240" on="1"/>
        <pt x="1007" y="276" on="0"/>
        <pt x="1047" y="276" on="0"/>
        <pt x="1047" y="247" on="1"/>
        <pt x="1047" y="235" on="0"/>
        <pt x="1040" y="216" on="1"/>
        <pt x="1032" y="190" on="0"/>
        <pt x="1002" y="87" on="0"/>
        <pt x="983" y="32" on="0"/>
        <pt x="971" y="14" on="1"/>
        <pt x="947" y="-20" on="0"/>
        <pt x="862" y="-20" on="0"/>
        <pt x="786" y="-19" on="0"/>
        <pt x="703" y="-16" on="0"/>
        <pt x="607" y="-11" on="0"/>
        <pt x="485" y="-5" on="0"/>
        <pt x="395" y="0" on="0"/>
        <pt x="306" y="0" on="0"/>
        <pt x="247" y="-5" on="0"/>
        <pt x="199" y="-10" on="0"/>
        <pt x="153" y="-15" on="0"/>
      </contour>
    </TTGlyph>
    <TTGlyph name="Ldotaccent" xMin="68" yMin="-20" xMax="1162" yMax="1356">
      <contour>
        <pt x="123" y="-15" on="1"/>
        <pt x="68" y="-15" on="0"/>
        <pt x="68" y="22" on="1"/>
        <pt x="68" y="51" on="0"/>
        <pt x="104" y="51" on="1"/>
        <pt x="153" y="46" on="1"/>
        <pt x="213" y="46" on="0"/>
        <pt x="234" y="113" on="1"/>
        <pt x="251" y="170" on="0"/>
        <pt x="251" y="317" on="1"/>
        <pt x="251" y="1023" on="1"/>
        <pt x="251" y="1170" on="0"/>
        <pt x="223" y="1261" on="0"/>
        <pt x="184" y="1294" on="0"/>
        <pt x="153" y="1294" on="1"/>
        <pt x="104" y="1290" on="1"/>
        <pt x="68" y="1290" on="0"/>
        <pt x="68" y="1319" on="1"/>
        <pt x="68" y="1356" on="0"/>
        <pt x="178" y="1356" on="0"/>
        <pt x="277" y="1340" on="0"/>
        <pt x="384" y="1340" on="0"/>
        <pt x="481" y="1356" on="0"/>
        <pt x="590" y="1356" on="0"/>
        <pt x="590" y="1319" on="1"/>
        <pt x="590" y="1290" on="0"/>
        <pt x="554" y="1290" on="1"/>
        <pt x="506" y="1294" on="1"/>
        <pt x="445" y="1294" on="0"/>
        <pt x="424" y="1227" on="1"/>
        <pt x="408" y="1174" on="0"/>
        <pt x="408" y="1023" on="1"/>
        <pt x="408" y="458" on="1"/>
        <pt x="408" y="239" on="0"/>
        <pt x="418" y="95" on="1"/>
        <pt x="491" y="75" on="0"/>
        <pt x="668" y="75" on="0"/>
        <pt x="799" y="95" on="0"/>
        <pt x="847" y="115" on="1"/>
        <pt x="937" y="152" on="0"/>
        <pt x="987" y="240" on="1"/>
        <pt x="1007" y="276" on="0"/>
        <pt x="1047" y="276" on="0"/>
        <pt x="1047" y="247" on="1"/>
        <pt x="1047" y="235" on="0"/>
        <pt x="1040" y="216" on="1"/>
        <pt x="1032" y="190" on="0"/>
        <pt x="1002" y="87" on="0"/>
        <pt x="983" y="32" on="0"/>
        <pt x="971" y="14" on="1"/>
        <pt x="947" y="-20" on="0"/>
        <pt x="862" y="-20" on="0"/>
        <pt x="786" y="-19" on="0"/>
        <pt x="703" y="-16" on="0"/>
        <pt x="607" y="-11" on="0"/>
        <pt x="485" y="-5" on="0"/>
        <pt x="395" y="0" on="0"/>
        <pt x="306" y="0" on="0"/>
        <pt x="247" y="-5" on="0"/>
        <pt x="199" y="-10" on="0"/>
        <pt x="153" y="-15" on="0"/>
      </contour>
      <contour>
        <pt x="992" y="605" on="0"/>
        <pt x="932" y="670" on="0"/>
        <pt x="932" y="745" on="0"/>
        <pt x="951" y="786" on="0"/>
        <pt x="968" y="801" on="1"/>
        <pt x="1002" y="832" on="0"/>
        <pt x="1101" y="832" on="0"/>
        <pt x="1162" y="768" on="0"/>
        <pt x="1162" y="696" on="0"/>
        <pt x="1146" y="655" on="0"/>
        <pt x="1130" y="639" on="1"/>
        <pt x="1098" y="605" on="0"/>
      </contour>
    </TTGlyph>
    <TTGlyph name="Lslash" xMin="68" yMin="-20" xMax="1047" yMax="1356">
      <contour>
        <pt x="123" y="-15" on="1"/>
        <pt x="68" y="-15" on="0"/>
        <pt x="68" y="22" on="1"/>
        <pt x="68" y="51" on="0"/>
        <pt x="104" y="51" on="1"/>
        <pt x="153" y="46" on="1"/>
        <pt x="213" y="46" on="0"/>
        <pt x="234" y="113" on="1"/>
        <pt x="251" y="170" on="0"/>
        <pt x="251" y="317" on="1"/>
        <pt x="251" y="582" on="1"/>
        <pt x="127" y="517" on="1"/>
        <pt x="115" y="511" on="0"/>
        <pt x="101" y="511" on="0"/>
        <pt x="85" y="543" on="0"/>
        <pt x="85" y="562" on="1"/>
        <pt x="85" y="588" on="0"/>
        <pt x="98" y="595" on="1"/>
        <pt x="251" y="676" on="1"/>
        <pt x="251" y="1023" on="1"/>
        <pt x="251" y="1170" on="0"/>
        <pt x="223" y="1261" on="0"/>
        <pt x="184" y="1294" on="0"/>
        <pt x="153" y="1294" on="1"/>
        <pt x="104" y="1290" on="1"/>
        <pt x="68" y="1290" on="0"/>
        <pt x="68" y="1319" on="1"/>
        <pt x="68" y="1356" on="0"/>
        <pt x="178" y="1356" on="0"/>
        <pt x="277" y="1340" on="0"/>
        <pt x="384" y="1340" on="0"/>
        <pt x="481" y="1356" on="0"/>
        <pt x="590" y="1356" on="0"/>
        <pt x="590" y="1319" on="1"/>
        <pt x="590" y="1290" on="0"/>
        <pt x="554" y="1290" on="1"/>
        <pt x="506" y="1294" on="1"/>
        <pt x="445" y="1294" on="0"/>
        <pt x="424" y="1227" on="1"/>
        <pt x="408" y="1174" on="0"/>
        <pt x="408" y="1023" on="1"/>
        <pt x="408" y="759" on="1"/>
        <pt x="606" y="864" on="1"/>
        <pt x="638" y="881" on="0"/>
        <pt x="654" y="881" on="0"/>
        <pt x="668" y="850" on="0"/>
        <pt x="668" y="833" on="1"/>
        <pt x="668" y="803" on="0"/>
        <pt x="652" y="794" on="1"/>
        <pt x="408" y="665" on="1"/>
        <pt x="408" y="458" on="1"/>
        <pt x="408" y="239" on="0"/>
        <pt x="418" y="95" on="1"/>
        <pt x="491" y="75" on="0"/>
        <pt x="668" y="75" on="0"/>
        <pt x="799" y="95" on="0"/>
        <pt x="847" y="115" on="1"/>
        <pt x="937" y="152" on="0"/>
        <pt x="987" y="240" on="1"/>
        <pt x="1007" y="276" on="0"/>
        <pt x="1047" y="276" on="0"/>
        <pt x="1047" y="247" on="1"/>
        <pt x="1047" y="235" on="0"/>
        <pt x="1040" y="216" on="1"/>
        <pt x="1032" y="190" on="0"/>
        <pt x="1002" y="87" on="0"/>
        <pt x="983" y="32" on="0"/>
        <pt x="971" y="14" on="1"/>
        <pt x="947" y="-20" on="0"/>
        <pt x="862" y="-20" on="0"/>
        <pt x="786" y="-19" on="0"/>
        <pt x="703" y="-16" on="0"/>
        <pt x="607" y="-11" on="0"/>
        <pt x="485" y="-5" on="0"/>
        <pt x="395" y="0" on="0"/>
        <pt x="306" y="0" on="0"/>
        <pt x="247" y="-5" on="0"/>
        <pt x="199" y="-10" on="0"/>
        <pt x="153" y="-15" on="0"/>
      </contour>
    </TTGlyph>
    <TTGlyph name="M" xMin="65" yMin="-15" xMax="1836" yMax="1356">
      <contour>
        <pt x="128" y="-15" on="1"/>
        <pt x="65" y="-15" on="0"/>
        <pt x="65" y="56" on="0"/>
        <pt x="107" y="56" on="1"/>
        <pt x="170" y="56" on="0"/>
        <pt x="196" y="75" on="1"/>
        <pt x="247" y="112" on="0"/>
        <pt x="256" y="202" on="1"/>
        <pt x="258" y="223" on="0"/>
        <pt x="263" y="309" on="0"/>
        <pt x="270" y="424" on="0"/>
        <pt x="276" y="563" on="0"/>
        <pt x="283" y="710" on="0"/>
        <pt x="289" y="858" on="0"/>
        <pt x="291" y="925" on="1"/>
        <pt x="296" y="1092" on="0"/>
        <pt x="296" y="1180" on="0"/>
        <pt x="283" y="1230" on="0"/>
        <pt x="271" y="1246" on="1"/>
        <pt x="249" y="1274" on="0"/>
        <pt x="200" y="1281" on="1"/>
        <pt x="114" y="1293" on="0"/>
        <pt x="114" y="1318" on="1"/>
        <pt x="114" y="1335" on="0"/>
        <pt x="139" y="1356" on="0"/>
        <pt x="159" y="1356" on="1"/>
        <pt x="316" y="1342" on="1"/>
        <pt x="404" y="1346" on="1"/>
        <pt x="428" y="1346" on="0"/>
        <pt x="460" y="1305" on="0"/>
        <pt x="480" y="1265" on="1"/>
        <pt x="964" y="262" on="1"/>
        <pt x="981" y="301" on="0"/>
        <pt x="1037" y="429" on="0"/>
        <pt x="1104" y="585" on="0"/>
        <pt x="1180" y="759" on="0"/>
        <pt x="1254" y="931" on="0"/>
        <pt x="1322" y="1089" on="0"/>
        <pt x="1374" y="1212" on="0"/>
        <pt x="1408" y="1290" on="0"/>
        <pt x="1421" y="1323" on="0"/>
        <pt x="1459" y="1351" on="0"/>
        <pt x="1485" y="1351" on="1"/>
        <pt x="1579" y="1347" on="1"/>
        <pt x="1699" y="1356" on="1"/>
        <pt x="1774" y="1356" on="0"/>
        <pt x="1774" y="1319" on="1"/>
        <pt x="1774" y="1301" on="0"/>
        <pt x="1708" y="1288" on="0"/>
        <pt x="1662" y="1278" on="0"/>
        <pt x="1642" y="1268" on="1"/>
        <pt x="1596" y="1243" on="0"/>
        <pt x="1596" y="1185" on="1"/>
        <pt x="1647" y="206" on="1"/>
        <pt x="1655" y="77" on="0"/>
        <pt x="1744" y="60" on="1"/>
        <pt x="1769" y="56" on="0"/>
        <pt x="1793" y="56" on="1"/>
        <pt x="1836" y="56" on="0"/>
        <pt x="1836" y="-15" on="0"/>
        <pt x="1773" y="-15" on="1"/>
        <pt x="1748" y="-15" on="0"/>
        <pt x="1712" y="-10" on="0"/>
        <pt x="1694" y="-8" on="1"/>
        <pt x="1640" y="0" on="0"/>
        <pt x="1596" y="0" on="1"/>
        <pt x="1383" y="-15" on="1"/>
        <pt x="1318" y="-15" on="0"/>
        <pt x="1318" y="22" on="1"/>
        <pt x="1318" y="53" on="0"/>
        <pt x="1412" y="53" on="0"/>
        <pt x="1455" y="68" on="0"/>
        <pt x="1465" y="84" on="1"/>
        <pt x="1479" y="108" on="0"/>
        <pt x="1479" y="197" on="1"/>
        <pt x="1479" y="291" on="1"/>
        <pt x="1479" y="359" on="0"/>
        <pt x="1459" y="775" on="0"/>
        <pt x="1455" y="864" on="1"/>
        <pt x="1447" y="1052" on="0"/>
        <pt x="1440" y="1149" on="1"/>
        <pt x="967" y="65" on="1"/>
        <pt x="941" y="6" on="0"/>
        <pt x="920" y="6" on="1"/>
        <pt x="906" y="6" on="0"/>
        <pt x="887" y="35" on="0"/>
        <pt x="871" y="67" on="1"/>
        <pt x="387" y="1064" on="1"/>
        <pt x="349" y="555" on="0"/>
        <pt x="349" y="133" on="1"/>
        <pt x="349" y="51" on="0"/>
        <pt x="482" y="51" on="1"/>
        <pt x="518" y="51" on="0"/>
        <pt x="518" y="22" on="1"/>
        <pt x="518" y="-15" on="0"/>
        <pt x="453" y="-15" on="1"/>
        <pt x="291" y="0" on="1"/>
        <pt x="240" y="0" on="0"/>
        <pt x="150" y="-15" on="0"/>
      </contour>
      <contour>
        <pt x="1470" y="1218" on="1"/>
        <pt x="1471" y="1219" on="1"/>
      </contour>
    </TTGlyph>
    <TTGlyph name="N" xMin="71" yMin="-43" xMax="1538" yMax="1356">
      <contour>
        <pt x="136" y="-15" on="1"/>
        <pt x="71" y="-15" on="0"/>
        <pt x="71" y="22" on="1"/>
        <pt x="71" y="51" on="0"/>
        <pt x="107" y="51" on="1"/>
        <pt x="156" y="46" on="1"/>
        <pt x="216" y="46" on="0"/>
        <pt x="236" y="113" on="1"/>
        <pt x="254" y="170" on="0"/>
        <pt x="254" y="317" on="1"/>
        <pt x="254" y="1021" on="1"/>
        <pt x="254" y="1169" on="0"/>
        <pt x="226" y="1258" on="0"/>
        <pt x="187" y="1291" on="0"/>
        <pt x="156" y="1291" on="1"/>
        <pt x="107" y="1286" on="1"/>
        <pt x="71" y="1286" on="0"/>
        <pt x="71" y="1316" on="1"/>
        <pt x="71" y="1355" on="0"/>
        <pt x="136" y="1355" on="1"/>
        <pt x="267" y="1340" on="1"/>
        <pt x="309" y="1340" on="0"/>
        <pt x="342" y="1346" on="1"/>
        <pt x="1263" y="275" on="1"/>
        <pt x="1263" y="1023" on="1"/>
        <pt x="1263" y="1169" on="0"/>
        <pt x="1232" y="1261" on="0"/>
        <pt x="1192" y="1294" on="0"/>
        <pt x="1160" y="1294" on="1"/>
        <pt x="1111" y="1290" on="1"/>
        <pt x="1075" y="1290" on="0"/>
        <pt x="1075" y="1319" on="1"/>
        <pt x="1075" y="1356" on="0"/>
        <pt x="1140" y="1356" on="1"/>
        <pt x="1165" y="1356" on="0"/>
        <pt x="1207" y="1349" on="1"/>
        <pt x="1260" y="1340" on="0"/>
        <pt x="1346" y="1340" on="0"/>
        <pt x="1428" y="1356" on="0"/>
        <pt x="1538" y="1356" on="0"/>
        <pt x="1538" y="1319" on="1"/>
        <pt x="1538" y="1290" on="0"/>
        <pt x="1502" y="1290" on="1"/>
        <pt x="1453" y="1294" on="1"/>
        <pt x="1392" y="1294" on="0"/>
        <pt x="1372" y="1227" on="1"/>
        <pt x="1355" y="1174" on="0"/>
        <pt x="1355" y="1023" on="1"/>
        <pt x="1355" y="13" on="1"/>
        <pt x="1355" y="-21" on="0"/>
        <pt x="1343" y="-43" on="0"/>
        <pt x="1330" y="-43" on="1"/>
        <pt x="1312" y="-43" on="0"/>
        <pt x="1273" y="-1" on="1"/>
        <pt x="351" y="1067" on="1"/>
        <pt x="351" y="317" on="1"/>
        <pt x="351" y="166" on="0"/>
        <pt x="378" y="79" on="0"/>
        <pt x="417" y="46" on="0"/>
        <pt x="449" y="46" on="1"/>
        <pt x="497" y="51" on="1"/>
        <pt x="533" y="51" on="0"/>
        <pt x="533" y="22" on="1"/>
        <pt x="533" y="-15" on="0"/>
        <pt x="418" y="-15" on="0"/>
        <pt x="329" y="0" on="0"/>
        <pt x="245" y="0" on="0"/>
        <pt x="164" y="-15" on="0"/>
      </contour>
    </TTGlyph>
    <TTGlyph name="Nacute" xMin="71" yMin="-43" xMax="1538" yMax="1764">
      <contour>
        <pt x="675" y="1529" on="1"/>
        <pt x="615" y="1509" on="0"/>
        <pt x="595" y="1509" on="0"/>
        <pt x="577" y="1535" on="0"/>
        <pt x="577" y="1545" on="1"/>
        <pt x="577" y="1561" on="0"/>
        <pt x="598" y="1573" on="1"/>
        <pt x="937" y="1756" on="1"/>
        <pt x="950" y="1764" on="0"/>
        <pt x="964" y="1764" on="0"/>
        <pt x="984" y="1746" on="0"/>
        <pt x="994" y="1732" on="1"/>
        <pt x="1019" y="1695" on="0"/>
        <pt x="1019" y="1654" on="0"/>
        <pt x="1011" y="1643" on="0"/>
        <pt x="1000" y="1639" on="1"/>
      </contour>
      <contour>
        <pt x="136" y="-15" on="1"/>
        <pt x="71" y="-15" on="0"/>
        <pt x="71" y="22" on="1"/>
        <pt x="71" y="51" on="0"/>
        <pt x="107" y="51" on="1"/>
        <pt x="156" y="46" on="1"/>
        <pt x="216" y="46" on="0"/>
        <pt x="236" y="113" on="1"/>
        <pt x="254" y="170" on="0"/>
        <pt x="254" y="317" on="1"/>
        <pt x="254" y="1021" on="1"/>
        <pt x="254" y="1169" on="0"/>
        <pt x="226" y="1258" on="0"/>
        <pt x="187" y="1291" on="0"/>
        <pt x="156" y="1291" on="1"/>
        <pt x="107" y="1286" on="1"/>
        <pt x="71" y="1286" on="0"/>
        <pt x="71" y="1316" on="1"/>
        <pt x="71" y="1355" on="0"/>
        <pt x="136" y="1355" on="1"/>
        <pt x="267" y="1340" on="1"/>
        <pt x="309" y="1340" on="0"/>
        <pt x="342" y="1346" on="1"/>
        <pt x="1263" y="275" on="1"/>
        <pt x="1263" y="1023" on="1"/>
        <pt x="1263" y="1169" on="0"/>
        <pt x="1232" y="1261" on="0"/>
        <pt x="1192" y="1294" on="0"/>
        <pt x="1160" y="1294" on="1"/>
        <pt x="1111" y="1290" on="1"/>
        <pt x="1075" y="1290" on="0"/>
        <pt x="1075" y="1319" on="1"/>
        <pt x="1075" y="1356" on="0"/>
        <pt x="1140" y="1356" on="1"/>
        <pt x="1165" y="1356" on="0"/>
        <pt x="1207" y="1349" on="1"/>
        <pt x="1260" y="1340" on="0"/>
        <pt x="1346" y="1340" on="0"/>
        <pt x="1428" y="1356" on="0"/>
        <pt x="1538" y="1356" on="0"/>
        <pt x="1538" y="1319" on="1"/>
        <pt x="1538" y="1290" on="0"/>
        <pt x="1502" y="1290" on="1"/>
        <pt x="1453" y="1294" on="1"/>
        <pt x="1392" y="1294" on="0"/>
        <pt x="1372" y="1227" on="1"/>
        <pt x="1355" y="1174" on="0"/>
        <pt x="1355" y="1023" on="1"/>
        <pt x="1355" y="13" on="1"/>
        <pt x="1355" y="-21" on="0"/>
        <pt x="1343" y="-43" on="0"/>
        <pt x="1330" y="-43" on="1"/>
        <pt x="1312" y="-43" on="0"/>
        <pt x="1273" y="-1" on="1"/>
        <pt x="351" y="1067" on="1"/>
        <pt x="351" y="317" on="1"/>
        <pt x="351" y="166" on="0"/>
        <pt x="378" y="79" on="0"/>
        <pt x="417" y="46" on="0"/>
        <pt x="449" y="46" on="1"/>
        <pt x="497" y="51" on="1"/>
        <pt x="533" y="51" on="0"/>
        <pt x="533" y="22" on="1"/>
        <pt x="533" y="-15" on="0"/>
        <pt x="418" y="-15" on="0"/>
        <pt x="329" y="0" on="0"/>
        <pt x="245" y="0" on="0"/>
        <pt x="164" y="-15" on="0"/>
      </contour>
    </TTGlyph>
    <TTGlyph name="Ntilde" xMin="71" yMin="-43" xMax="1538" yMax="1733">
      <contour>
        <pt x="548" y="1518" on="0"/>
        <pt x="544" y="1512" on="0"/>
        <pt x="526" y="1512" on="0"/>
        <pt x="497" y="1535" on="0"/>
        <pt x="497" y="1580" on="0"/>
        <pt x="526" y="1648" on="0"/>
        <pt x="551" y="1674" on="1"/>
        <pt x="606" y="1733" on="0"/>
        <pt x="676" y="1733" on="1"/>
        <pt x="755" y="1733" on="0"/>
        <pt x="836" y="1673" on="1"/>
        <pt x="894" y="1629" on="0"/>
        <pt x="942" y="1622" on="0"/>
        <pt x="962" y="1622" on="1"/>
        <pt x="1008" y="1622" on="0"/>
        <pt x="1044" y="1718" on="1"/>
        <pt x="1049" y="1733" on="0"/>
        <pt x="1070" y="1733" on="0"/>
        <pt x="1099" y="1710" on="0"/>
        <pt x="1099" y="1665" on="0"/>
        <pt x="1069" y="1596" on="0"/>
        <pt x="1044" y="1570" on="1"/>
        <pt x="990" y="1512" on="0"/>
        <pt x="920" y="1512" on="1"/>
        <pt x="857" y="1512" on="0"/>
        <pt x="788" y="1551" on="0"/>
        <pt x="765" y="1568" on="1"/>
        <pt x="702" y="1615" on="0"/>
        <pt x="654" y="1624" on="0"/>
        <pt x="634" y="1624" on="1"/>
        <pt x="588" y="1624" on="0"/>
        <pt x="552" y="1527" on="1"/>
      </contour>
      <contour>
        <pt x="136" y="-15" on="1"/>
        <pt x="71" y="-15" on="0"/>
        <pt x="71" y="22" on="1"/>
        <pt x="71" y="51" on="0"/>
        <pt x="107" y="51" on="1"/>
        <pt x="156" y="46" on="1"/>
        <pt x="216" y="46" on="0"/>
        <pt x="236" y="113" on="1"/>
        <pt x="254" y="170" on="0"/>
        <pt x="254" y="317" on="1"/>
        <pt x="254" y="1021" on="1"/>
        <pt x="254" y="1169" on="0"/>
        <pt x="226" y="1258" on="0"/>
        <pt x="187" y="1291" on="0"/>
        <pt x="156" y="1291" on="1"/>
        <pt x="107" y="1286" on="1"/>
        <pt x="71" y="1286" on="0"/>
        <pt x="71" y="1316" on="1"/>
        <pt x="71" y="1355" on="0"/>
        <pt x="136" y="1355" on="1"/>
        <pt x="267" y="1340" on="1"/>
        <pt x="309" y="1340" on="0"/>
        <pt x="342" y="1346" on="1"/>
        <pt x="1263" y="275" on="1"/>
        <pt x="1263" y="1023" on="1"/>
        <pt x="1263" y="1169" on="0"/>
        <pt x="1232" y="1261" on="0"/>
        <pt x="1192" y="1294" on="0"/>
        <pt x="1160" y="1294" on="1"/>
        <pt x="1111" y="1290" on="1"/>
        <pt x="1075" y="1290" on="0"/>
        <pt x="1075" y="1319" on="1"/>
        <pt x="1075" y="1356" on="0"/>
        <pt x="1140" y="1356" on="1"/>
        <pt x="1165" y="1356" on="0"/>
        <pt x="1207" y="1349" on="1"/>
        <pt x="1260" y="1340" on="0"/>
        <pt x="1346" y="1340" on="0"/>
        <pt x="1428" y="1356" on="0"/>
        <pt x="1538" y="1356" on="0"/>
        <pt x="1538" y="1319" on="1"/>
        <pt x="1538" y="1290" on="0"/>
        <pt x="1502" y="1290" on="1"/>
        <pt x="1453" y="1294" on="1"/>
        <pt x="1392" y="1294" on="0"/>
        <pt x="1372" y="1227" on="1"/>
        <pt x="1355" y="1174" on="0"/>
        <pt x="1355" y="1023" on="1"/>
        <pt x="1355" y="13" on="1"/>
        <pt x="1355" y="-21" on="0"/>
        <pt x="1343" y="-43" on="0"/>
        <pt x="1330" y="-43" on="1"/>
        <pt x="1312" y="-43" on="0"/>
        <pt x="1273" y="-1" on="1"/>
        <pt x="351" y="1067" on="1"/>
        <pt x="351" y="317" on="1"/>
        <pt x="351" y="166" on="0"/>
        <pt x="378" y="79" on="0"/>
        <pt x="417" y="46" on="0"/>
        <pt x="449" y="46" on="1"/>
        <pt x="497" y="51" on="1"/>
        <pt x="533" y="51" on="0"/>
        <pt x="533" y="22" on="1"/>
        <pt x="533" y="-15" on="0"/>
        <pt x="418" y="-15" on="0"/>
        <pt x="329" y="0" on="0"/>
        <pt x="245" y="0" on="0"/>
        <pt x="164" y="-15" on="0"/>
      </contour>
    </TTGlyph>
    <TTGlyph name="O" xMin="100" yMin="-25" xMax="1485" yMax="1365">
      <contour>
        <pt x="100" y="677" on="1"/>
        <pt x="100" y="828" on="0"/>
        <pt x="213" y="1081" on="0"/>
        <pt x="406" y="1264" on="0"/>
        <pt x="660" y="1365" on="0"/>
        <pt x="954" y="1365" on="0"/>
        <pt x="1206" y="1258" on="0"/>
        <pt x="1296" y="1164" on="1"/>
        <pt x="1485" y="965" on="0"/>
        <pt x="1485" y="659" on="1"/>
        <pt x="1485" y="369" on="0"/>
        <pt x="1290" y="174" on="1"/>
        <pt x="1091" y="-25" on="0"/>
        <pt x="784" y="-25" on="1"/>
        <pt x="484" y="-25" on="0"/>
        <pt x="290" y="176" on="1"/>
        <pt x="100" y="374" on="0"/>
      </contour>
      <contour>
        <pt x="271" y="734" on="1"/>
        <pt x="271" y="604" on="0"/>
        <pt x="356" y="353" on="0"/>
        <pt x="434" y="260" on="1"/>
        <pt x="601" y="58" on="0"/>
        <pt x="856" y="58" on="1"/>
        <pt x="1053" y="58" on="0"/>
        <pt x="1179" y="206" on="1"/>
        <pt x="1309" y="358" on="0"/>
        <pt x="1309" y="606" on="1"/>
        <pt x="1309" y="899" on="0"/>
        <pt x="1152" y="1092" on="1"/>
        <pt x="996" y="1282" on="0"/>
        <pt x="757" y="1282" on="1"/>
        <pt x="560" y="1282" on="0"/>
        <pt x="418" y="1132" on="1"/>
        <pt x="271" y="976" on="0"/>
      </contour>
    </TTGlyph>
    <TTGlyph name="OE" xMin="100" yMin="-25" xMax="1948" yMax="1365">
      <contour>
        <pt x="1933" y="161" on="0"/>
        <pt x="1903" y="58" on="0"/>
        <pt x="1886" y="12" on="0"/>
        <pt x="1872" y="0" on="1"/>
        <pt x="1850" y="-20" on="0"/>
        <pt x="1728" y="-20" on="0"/>
        <pt x="1636" y="-19" on="0"/>
        <pt x="1588" y="-17" on="1"/>
        <pt x="1497" y="-13" on="0"/>
        <pt x="1410" y="-6" on="1"/>
        <pt x="1200" y="13" on="0"/>
        <pt x="1069" y="-3" on="0"/>
        <pt x="1020" y="-9" on="1"/>
        <pt x="887" y="-25" on="0"/>
        <pt x="632" y="-25" on="0"/>
        <pt x="381" y="82" on="0"/>
        <pt x="290" y="176" on="1"/>
        <pt x="100" y="374" on="0"/>
        <pt x="100" y="675" on="1"/>
        <pt x="100" y="974" on="0"/>
        <pt x="310" y="1172" on="1"/>
        <pt x="406" y="1264" on="0"/>
        <pt x="660" y="1365" on="0"/>
        <pt x="801" y="1365" on="1"/>
        <pt x="899" y="1365" on="0"/>
        <pt x="990" y="1354" on="1"/>
        <pt x="1165" y="1333" on="0"/>
        <pt x="1289" y="1333" on="0"/>
        <pt x="1425" y="1340" on="0"/>
        <pt x="1506" y="1344" on="1"/>
        <pt x="1715" y="1356" on="0"/>
        <pt x="1891" y="1356" on="0"/>
        <pt x="1908" y="1338" on="0"/>
        <pt x="1908" y="1307" on="0"/>
        <pt x="1907" y="1279" on="0"/>
        <pt x="1906" y="1262" on="1"/>
        <pt x="1905" y="1239" on="0"/>
        <pt x="1895" y="1148" on="0"/>
        <pt x="1881" y="1117" on="0"/>
        <pt x="1855" y="1117" on="0"/>
        <pt x="1845" y="1130" on="0"/>
        <pt x="1828" y="1177" on="0"/>
        <pt x="1785" y="1220" on="0"/>
        <pt x="1738" y="1234" on="1"/>
        <pt x="1649" y="1261" on="0"/>
        <pt x="1406" y="1261" on="1"/>
        <pt x="1317" y="1261" on="1"/>
        <pt x="1293" y="1261" on="0"/>
        <pt x="1280" y="1247" on="0"/>
        <pt x="1280" y="1222" on="1"/>
        <pt x="1280" y="801" on="1"/>
        <pt x="1399" y="787" on="0"/>
        <pt x="1556" y="787" on="0"/>
        <pt x="1623" y="789" on="0"/>
        <pt x="1645" y="794" on="1"/>
        <pt x="1684" y="801" on="0"/>
        <pt x="1701" y="829" on="1"/>
        <pt x="1735" y="882" on="0"/>
        <pt x="1756" y="882" on="1"/>
        <pt x="1783" y="882" on="0"/>
        <pt x="1783" y="854" on="1"/>
        <pt x="1748" y="712" on="1"/>
        <pt x="1752" y="636" on="1"/>
        <pt x="1752" y="564" on="0"/>
        <pt x="1718" y="564" on="1"/>
        <pt x="1689" y="564" on="0"/>
        <pt x="1689" y="641" on="0"/>
        <pt x="1680" y="679" on="0"/>
        <pt x="1660" y="690" on="1"/>
        <pt x="1627" y="706" on="0"/>
        <pt x="1379" y="706" on="0"/>
        <pt x="1280" y="695" on="1"/>
        <pt x="1280" y="458" on="1"/>
        <pt x="1280" y="237" on="0"/>
        <pt x="1290" y="93" on="1"/>
        <pt x="1371" y="75" on="0"/>
        <pt x="1561" y="75" on="0"/>
        <pt x="1696" y="85" on="0"/>
        <pt x="1746" y="100" on="1"/>
        <pt x="1842" y="129" on="0"/>
        <pt x="1888" y="211" on="1"/>
        <pt x="1908" y="247" on="0"/>
        <pt x="1948" y="247" on="0"/>
        <pt x="1948" y="206" on="0"/>
      </contour>
      <contour>
        <pt x="348" y="1060" on="0"/>
        <pt x="271" y="864" on="0"/>
        <pt x="271" y="604" on="0"/>
        <pt x="356" y="353" on="0"/>
        <pt x="434" y="260" on="1"/>
        <pt x="601" y="58" on="0"/>
        <pt x="856" y="58" on="1"/>
        <pt x="958" y="58" on="0"/>
        <pt x="1047" y="90" on="1"/>
        <pt x="1092" y="106" on="0"/>
        <pt x="1104" y="123" on="1"/>
        <pt x="1123" y="148" on="0"/>
        <pt x="1123" y="194" on="1"/>
        <pt x="1123" y="1132" on="1"/>
        <pt x="1123" y="1182" on="0"/>
        <pt x="1102" y="1200" on="1"/>
        <pt x="1071" y="1226" on="0"/>
        <pt x="1005" y="1247" on="1"/>
        <pt x="895" y="1282" on="0"/>
        <pt x="670" y="1282" on="0"/>
        <pt x="484" y="1202" on="0"/>
      </contour>
    </TTGlyph>
    <TTGlyph name="Oacute" xMin="100" yMin="-25" xMax="1485" yMax="1764">
      <contour>
        <pt x="669" y="1529" on="1"/>
        <pt x="609" y="1509" on="0"/>
        <pt x="589" y="1509" on="0"/>
        <pt x="571" y="1535" on="0"/>
        <pt x="571" y="1545" on="1"/>
        <pt x="571" y="1561" on="0"/>
        <pt x="592" y="1573" on="1"/>
        <pt x="931" y="1756" on="1"/>
        <pt x="944" y="1764" on="0"/>
        <pt x="958" y="1764" on="0"/>
        <pt x="978" y="1746" on="0"/>
        <pt x="988" y="1732" on="1"/>
        <pt x="1013" y="1695" on="0"/>
        <pt x="1013" y="1654" on="0"/>
        <pt x="1005" y="1643" on="0"/>
        <pt x="994" y="1639" on="1"/>
      </contour>
      <contour>
        <pt x="100" y="677" on="1"/>
        <pt x="100" y="828" on="0"/>
        <pt x="213" y="1081" on="0"/>
        <pt x="406" y="1264" on="0"/>
        <pt x="660" y="1365" on="0"/>
        <pt x="954" y="1365" on="0"/>
        <pt x="1206" y="1258" on="0"/>
        <pt x="1296" y="1164" on="1"/>
        <pt x="1485" y="965" on="0"/>
        <pt x="1485" y="659" on="1"/>
        <pt x="1485" y="369" on="0"/>
        <pt x="1290" y="174" on="1"/>
        <pt x="1091" y="-25" on="0"/>
        <pt x="784" y="-25" on="1"/>
        <pt x="484" y="-25" on="0"/>
        <pt x="290" y="176" on="1"/>
        <pt x="100" y="374" on="0"/>
      </contour>
      <contour>
        <pt x="271" y="734" on="1"/>
        <pt x="271" y="604" on="0"/>
        <pt x="356" y="353" on="0"/>
        <pt x="434" y="260" on="1"/>
        <pt x="601" y="58" on="0"/>
        <pt x="856" y="58" on="1"/>
        <pt x="1053" y="58" on="0"/>
        <pt x="1179" y="206" on="1"/>
        <pt x="1309" y="358" on="0"/>
        <pt x="1309" y="606" on="1"/>
        <pt x="1309" y="899" on="0"/>
        <pt x="1152" y="1092" on="1"/>
        <pt x="996" y="1282" on="0"/>
        <pt x="757" y="1282" on="1"/>
        <pt x="560" y="1282" on="0"/>
        <pt x="418" y="1132" on="1"/>
        <pt x="271" y="976" on="0"/>
      </contour>
    </TTGlyph>
    <TTGlyph name="Ocircumflex" xMin="100" yMin="-25" xMax="1485" yMax="1770">
      <contour>
        <pt x="604" y="1520" on="1"/>
        <pt x="575" y="1501" on="0"/>
        <pt x="556" y="1501" on="0"/>
        <pt x="531" y="1527" on="0"/>
        <pt x="531" y="1536" on="1"/>
        <pt x="531" y="1549" on="0"/>
        <pt x="548" y="1564" on="1"/>
        <pt x="738" y="1733" on="1"/>
        <pt x="752" y="1745" on="0"/>
        <pt x="769" y="1760" on="0"/>
        <pt x="774" y="1764" on="1"/>
        <pt x="783" y="1770" on="0"/>
        <pt x="795" y="1770" on="0"/>
        <pt x="802" y="1768" on="0"/>
        <pt x="808" y="1764" on="1"/>
        <pt x="816" y="1759" on="0"/>
        <pt x="846" y="1733" on="1"/>
        <pt x="1036" y="1564" on="1"/>
        <pt x="1053" y="1549" on="0"/>
        <pt x="1053" y="1527" on="0"/>
        <pt x="1028" y="1501" on="0"/>
        <pt x="1020" y="1501" on="1"/>
        <pt x="1009" y="1501" on="0"/>
        <pt x="980" y="1520" on="1"/>
        <pt x="792" y="1638" on="1"/>
      </contour>
      <contour>
        <pt x="100" y="677" on="1"/>
        <pt x="100" y="828" on="0"/>
        <pt x="213" y="1081" on="0"/>
        <pt x="406" y="1264" on="0"/>
        <pt x="660" y="1365" on="0"/>
        <pt x="954" y="1365" on="0"/>
        <pt x="1206" y="1258" on="0"/>
        <pt x="1296" y="1164" on="1"/>
        <pt x="1485" y="965" on="0"/>
        <pt x="1485" y="659" on="1"/>
        <pt x="1485" y="369" on="0"/>
        <pt x="1290" y="174" on="1"/>
        <pt x="1091" y="-25" on="0"/>
        <pt x="784" y="-25" on="1"/>
        <pt x="484" y="-25" on="0"/>
        <pt x="290" y="176" on="1"/>
        <pt x="100" y="374" on="0"/>
      </contour>
      <contour>
        <pt x="271" y="734" on="1"/>
        <pt x="271" y="604" on="0"/>
        <pt x="356" y="353" on="0"/>
        <pt x="434" y="260" on="1"/>
        <pt x="601" y="58" on="0"/>
        <pt x="856" y="58" on="1"/>
        <pt x="1053" y="58" on="0"/>
        <pt x="1179" y="206" on="1"/>
        <pt x="1309" y="358" on="0"/>
        <pt x="1309" y="606" on="1"/>
        <pt x="1309" y="899" on="0"/>
        <pt x="1152" y="1092" on="1"/>
        <pt x="996" y="1282" on="0"/>
        <pt x="757" y="1282" on="1"/>
        <pt x="560" y="1282" on="0"/>
        <pt x="418" y="1132" on="1"/>
        <pt x="271" y="976" on="0"/>
      </contour>
    </TTGlyph>
    <TTGlyph name="Odieresis" xMin="100" yMin="-25" xMax="1485" yMax="1742">
      <contour>
        <pt x="1121" y="1601" on="0"/>
        <pt x="1064" y="1542" on="0"/>
        <pt x="967" y="1542" on="0"/>
        <pt x="914" y="1599" on="0"/>
        <pt x="914" y="1666" on="0"/>
        <pt x="932" y="1702" on="0"/>
        <pt x="946" y="1715" on="1"/>
        <pt x="977" y="1742" on="0"/>
        <pt x="1066" y="1742" on="0"/>
        <pt x="1121" y="1686" on="0"/>
      </contour>
      <contour>
        <pt x="671" y="1601" on="0"/>
        <pt x="614" y="1542" on="0"/>
        <pt x="517" y="1542" on="0"/>
        <pt x="464" y="1599" on="0"/>
        <pt x="464" y="1666" on="0"/>
        <pt x="482" y="1702" on="0"/>
        <pt x="496" y="1715" on="1"/>
        <pt x="527" y="1742" on="0"/>
        <pt x="616" y="1742" on="0"/>
        <pt x="671" y="1686" on="0"/>
      </contour>
      <contour>
        <pt x="100" y="677" on="1"/>
        <pt x="100" y="828" on="0"/>
        <pt x="213" y="1081" on="0"/>
        <pt x="406" y="1264" on="0"/>
        <pt x="660" y="1365" on="0"/>
        <pt x="954" y="1365" on="0"/>
        <pt x="1206" y="1258" on="0"/>
        <pt x="1296" y="1164" on="1"/>
        <pt x="1485" y="965" on="0"/>
        <pt x="1485" y="659" on="1"/>
        <pt x="1485" y="369" on="0"/>
        <pt x="1290" y="174" on="1"/>
        <pt x="1091" y="-25" on="0"/>
        <pt x="784" y="-25" on="1"/>
        <pt x="484" y="-25" on="0"/>
        <pt x="290" y="176" on="1"/>
        <pt x="100" y="374" on="0"/>
      </contour>
      <contour>
        <pt x="271" y="734" on="1"/>
        <pt x="271" y="604" on="0"/>
        <pt x="356" y="353" on="0"/>
        <pt x="434" y="260" on="1"/>
        <pt x="601" y="58" on="0"/>
        <pt x="856" y="58" on="1"/>
        <pt x="1053" y="58" on="0"/>
        <pt x="1179" y="206" on="1"/>
        <pt x="1309" y="358" on="0"/>
        <pt x="1309" y="606" on="1"/>
        <pt x="1309" y="899" on="0"/>
        <pt x="1152" y="1092" on="1"/>
        <pt x="996" y="1282" on="0"/>
        <pt x="757" y="1282" on="1"/>
        <pt x="560" y="1282" on="0"/>
        <pt x="418" y="1132" on="1"/>
        <pt x="271" y="976" on="0"/>
      </contour>
    </TTGlyph>
    <TTGlyph name="Ograve" xMin="100" yMin="-25" xMax="1485" yMax="1761">
      <contour>
        <pt x="590" y="1636" on="1"/>
        <pt x="571" y="1643" on="0"/>
        <pt x="571" y="1676" on="0"/>
        <pt x="586" y="1714" on="0"/>
        <pt x="596" y="1728" on="1"/>
        <pt x="618" y="1761" on="0"/>
        <pt x="630" y="1761" on="1"/>
        <pt x="640" y="1761" on="0"/>
        <pt x="653" y="1753" on="1"/>
        <pt x="992" y="1570" on="1"/>
        <pt x="1013" y="1558" on="0"/>
        <pt x="1013" y="1532" on="0"/>
        <pt x="995" y="1506" on="0"/>
        <pt x="986" y="1506" on="1"/>
        <pt x="975" y="1506" on="0"/>
        <pt x="915" y="1526" on="1"/>
      </contour>
      <contour>
        <pt x="100" y="677" on="1"/>
        <pt x="100" y="828" on="0"/>
        <pt x="213" y="1081" on="0"/>
        <pt x="406" y="1264" on="0"/>
        <pt x="660" y="1365" on="0"/>
        <pt x="954" y="1365" on="0"/>
        <pt x="1206" y="1258" on="0"/>
        <pt x="1296" y="1164" on="1"/>
        <pt x="1485" y="965" on="0"/>
        <pt x="1485" y="659" on="1"/>
        <pt x="1485" y="369" on="0"/>
        <pt x="1290" y="174" on="1"/>
        <pt x="1091" y="-25" on="0"/>
        <pt x="784" y="-25" on="1"/>
        <pt x="484" y="-25" on="0"/>
        <pt x="290" y="176" on="1"/>
        <pt x="100" y="374" on="0"/>
      </contour>
      <contour>
        <pt x="271" y="734" on="1"/>
        <pt x="271" y="604" on="0"/>
        <pt x="356" y="353" on="0"/>
        <pt x="434" y="260" on="1"/>
        <pt x="601" y="58" on="0"/>
        <pt x="856" y="58" on="1"/>
        <pt x="1053" y="58" on="0"/>
        <pt x="1179" y="206" on="1"/>
        <pt x="1309" y="358" on="0"/>
        <pt x="1309" y="606" on="1"/>
        <pt x="1309" y="899" on="0"/>
        <pt x="1152" y="1092" on="1"/>
        <pt x="996" y="1282" on="0"/>
        <pt x="757" y="1282" on="1"/>
        <pt x="560" y="1282" on="0"/>
        <pt x="418" y="1132" on="1"/>
        <pt x="271" y="976" on="0"/>
      </contour>
    </TTGlyph>
    <TTGlyph name="Oslash" xMin="100" yMin="-119" xMax="1485" yMax="1430">
      <contour>
        <pt x="784" y="-25" on="1"/>
        <pt x="557" y="-25" on="0"/>
        <pt x="389" y="92" on="1"/>
        <pt x="251" y="-85" on="1"/>
        <pt x="227" y="-119" on="0"/>
        <pt x="144" y="-119" on="1"/>
        <pt x="128" y="-119" on="0"/>
        <pt x="128" y="-101" on="0"/>
        <pt x="158" y="-63" on="1"/>
        <pt x="321" y="146" on="1"/>
        <pt x="100" y="348" on="0"/>
        <pt x="100" y="675" on="1"/>
        <pt x="100" y="974" on="0"/>
        <pt x="310" y="1172" on="1"/>
        <pt x="406" y="1264" on="0"/>
        <pt x="660" y="1365" on="0"/>
        <pt x="801" y="1365" on="1"/>
        <pt x="1022" y="1365" on="0"/>
        <pt x="1187" y="1255" on="1"/>
        <pt x="1297" y="1396" on="1"/>
        <pt x="1310" y="1416" on="0"/>
        <pt x="1390" y="1430" on="0"/>
        <pt x="1420" y="1430" on="0"/>
        <pt x="1420" y="1422" on="1"/>
        <pt x="1420" y="1411" on="0"/>
        <pt x="1401" y="1387" on="1"/>
        <pt x="1256" y="1202" on="1"/>
        <pt x="1485" y="998" on="0"/>
        <pt x="1485" y="659" on="1"/>
        <pt x="1485" y="369" on="0"/>
        <pt x="1290" y="174" on="1"/>
        <pt x="1091" y="-25" on="0"/>
      </contour>
      <contour>
        <pt x="1101" y="1145" on="1"/>
        <pt x="956" y="1282" on="0"/>
        <pt x="757" y="1282" on="1"/>
        <pt x="560" y="1282" on="0"/>
        <pt x="418" y="1132" on="1"/>
        <pt x="271" y="976" on="0"/>
        <pt x="271" y="747" on="1"/>
        <pt x="271" y="471" on="0"/>
        <pt x="422" y="274" on="1"/>
      </contour>
      <contour>
        <pt x="480" y="209" on="1"/>
        <pt x="637" y="58" on="0"/>
        <pt x="856" y="58" on="1"/>
        <pt x="1053" y="58" on="0"/>
        <pt x="1179" y="206" on="1"/>
        <pt x="1309" y="358" on="0"/>
        <pt x="1309" y="606" on="1"/>
        <pt x="1309" y="888" on="0"/>
        <pt x="1161" y="1080" on="1"/>
      </contour>
    </TTGlyph>
    <TTGlyph name="Otilde" xMin="100" yMin="-25" xMax="1485" yMax="1733">
      <contour>
        <pt x="542" y="1518" on="0"/>
        <pt x="538" y="1512" on="0"/>
        <pt x="520" y="1512" on="0"/>
        <pt x="491" y="1535" on="0"/>
        <pt x="491" y="1580" on="0"/>
        <pt x="520" y="1648" on="0"/>
        <pt x="545" y="1674" on="1"/>
        <pt x="600" y="1733" on="0"/>
        <pt x="670" y="1733" on="1"/>
        <pt x="749" y="1733" on="0"/>
        <pt x="830" y="1673" on="1"/>
        <pt x="888" y="1629" on="0"/>
        <pt x="936" y="1622" on="0"/>
        <pt x="956" y="1622" on="1"/>
        <pt x="1002" y="1622" on="0"/>
        <pt x="1038" y="1718" on="1"/>
        <pt x="1043" y="1733" on="0"/>
        <pt x="1064" y="1733" on="0"/>
        <pt x="1093" y="1710" on="0"/>
        <pt x="1093" y="1665" on="0"/>
        <pt x="1063" y="1596" on="0"/>
        <pt x="1038" y="1570" on="1"/>
        <pt x="984" y="1512" on="0"/>
        <pt x="914" y="1512" on="1"/>
        <pt x="851" y="1512" on="0"/>
        <pt x="782" y="1551" on="0"/>
        <pt x="759" y="1568" on="1"/>
        <pt x="696" y="1615" on="0"/>
        <pt x="648" y="1624" on="0"/>
        <pt x="628" y="1624" on="1"/>
        <pt x="582" y="1624" on="0"/>
        <pt x="546" y="1527" on="1"/>
      </contour>
      <contour>
        <pt x="100" y="677" on="1"/>
        <pt x="100" y="828" on="0"/>
        <pt x="213" y="1081" on="0"/>
        <pt x="406" y="1264" on="0"/>
        <pt x="660" y="1365" on="0"/>
        <pt x="954" y="1365" on="0"/>
        <pt x="1206" y="1258" on="0"/>
        <pt x="1296" y="1164" on="1"/>
        <pt x="1485" y="965" on="0"/>
        <pt x="1485" y="659" on="1"/>
        <pt x="1485" y="369" on="0"/>
        <pt x="1290" y="174" on="1"/>
        <pt x="1091" y="-25" on="0"/>
        <pt x="784" y="-25" on="1"/>
        <pt x="484" y="-25" on="0"/>
        <pt x="290" y="176" on="1"/>
        <pt x="100" y="374" on="0"/>
      </contour>
      <contour>
        <pt x="271" y="734" on="1"/>
        <pt x="271" y="604" on="0"/>
        <pt x="356" y="353" on="0"/>
        <pt x="434" y="260" on="1"/>
        <pt x="601" y="58" on="0"/>
        <pt x="856" y="58" on="1"/>
        <pt x="1053" y="58" on="0"/>
        <pt x="1179" y="206" on="1"/>
        <pt x="1309" y="358" on="0"/>
        <pt x="1309" y="606" on="1"/>
        <pt x="1309" y="899" on="0"/>
        <pt x="1152" y="1092" on="1"/>
        <pt x="996" y="1282" on="0"/>
        <pt x="757" y="1282" on="1"/>
        <pt x="560" y="1282" on="0"/>
        <pt x="418" y="1132" on="1"/>
        <pt x="271" y="976" on="0"/>
      </contour>
    </TTGlyph>
    <TTGlyph name="P" xMin="68" yMin="-15" xMax="992" yMax="1356">
      <contour>
        <pt x="133" y="-15" on="1"/>
        <pt x="68" y="-15" on="0"/>
        <pt x="68" y="22" on="1"/>
        <pt x="68" y="51" on="0"/>
        <pt x="104" y="51" on="1"/>
        <pt x="153" y="46" on="1"/>
        <pt x="213" y="46" on="0"/>
        <pt x="234" y="113" on="1"/>
        <pt x="251" y="170" on="0"/>
        <pt x="251" y="317" on="1"/>
        <pt x="251" y="1023" on="1"/>
        <pt x="251" y="1170" on="0"/>
        <pt x="223" y="1261" on="0"/>
        <pt x="184" y="1294" on="0"/>
        <pt x="153" y="1294" on="1"/>
        <pt x="104" y="1290" on="1"/>
        <pt x="68" y="1290" on="0"/>
        <pt x="68" y="1319" on="1"/>
        <pt x="68" y="1356" on="0"/>
        <pt x="178" y="1356" on="0"/>
        <pt x="277" y="1340" on="0"/>
        <pt x="398" y="1340" on="0"/>
        <pt x="491" y="1356" on="0"/>
        <pt x="526" y="1356" on="1"/>
        <pt x="740" y="1356" on="0"/>
        <pt x="872" y="1226" on="1"/>
        <pt x="992" y="1107" on="0"/>
        <pt x="992" y="939" on="1"/>
        <pt x="992" y="784" on="0"/>
        <pt x="872" y="669" on="1"/>
        <pt x="754" y="557" on="0"/>
        <pt x="602" y="557" on="1"/>
        <pt x="485" y="557" on="0"/>
        <pt x="442" y="603" on="1"/>
        <pt x="429" y="617" on="0"/>
        <pt x="429" y="650" on="0"/>
        <pt x="448" y="667" on="0"/>
        <pt x="462" y="667" on="1"/>
        <pt x="476" y="667" on="0"/>
        <pt x="501" y="648" on="1"/>
        <pt x="540" y="620" on="0"/>
        <pt x="656" y="620" on="0"/>
        <pt x="737" y="665" on="0"/>
        <pt x="765" y="706" on="1"/>
        <pt x="823" y="791" on="0"/>
        <pt x="823" y="935" on="1"/>
        <pt x="823" y="1097" on="0"/>
        <pt x="733" y="1193" on="1"/>
        <pt x="646" y="1286" on="0"/>
        <pt x="507" y="1286" on="1"/>
        <pt x="456" y="1286" on="0"/>
        <pt x="408" y="1258" on="0"/>
        <pt x="408" y="1224" on="1"/>
        <pt x="408" y="317" on="1"/>
        <pt x="408" y="166" on="0"/>
        <pt x="435" y="79" on="0"/>
        <pt x="474" y="46" on="0"/>
        <pt x="506" y="46" on="1"/>
        <pt x="554" y="51" on="1"/>
        <pt x="590" y="51" on="0"/>
        <pt x="590" y="22" on="1"/>
        <pt x="590" y="-15" on="0"/>
        <pt x="526" y="-15" on="1"/>
        <pt x="493" y="-15" on="0"/>
        <pt x="456" y="-9" on="1"/>
        <pt x="336" y="10" on="0"/>
        <pt x="165" y="-15" on="0"/>
      </contour>
    </TTGlyph>
    <TTGlyph name="Q" xMin="100" yMin="-219" xMax="1709" yMax="1365">
      <contour>
        <pt x="1709" y="-127" on="0"/>
        <pt x="1709" y="-159" on="0"/>
        <pt x="1678" y="-186" on="0"/>
        <pt x="1652" y="-196" on="1"/>
        <pt x="1595" y="-219" on="0"/>
        <pt x="1496" y="-219" on="0"/>
        <pt x="1423" y="-208" on="0"/>
        <pt x="1376" y="-196" on="1"/>
        <pt x="1275" y="-170" on="0"/>
        <pt x="1152" y="-118" on="1"/>
        <pt x="933" y="-25" on="0"/>
        <pt x="632" y="-25" on="0"/>
        <pt x="381" y="82" on="0"/>
        <pt x="290" y="176" on="1"/>
        <pt x="100" y="374" on="0"/>
        <pt x="100" y="675" on="1"/>
        <pt x="100" y="974" on="0"/>
        <pt x="310" y="1172" on="1"/>
        <pt x="406" y="1264" on="0"/>
        <pt x="660" y="1365" on="0"/>
        <pt x="954" y="1365" on="0"/>
        <pt x="1206" y="1258" on="0"/>
        <pt x="1296" y="1164" on="1"/>
        <pt x="1485" y="965" on="0"/>
        <pt x="1485" y="659" on="1"/>
        <pt x="1485" y="439" on="0"/>
        <pt x="1367" y="267" on="1"/>
        <pt x="1249" y="95" on="0"/>
        <pt x="1049" y="21" on="1"/>
        <pt x="1193" y="11" on="0"/>
        <pt x="1342" y="-60" on="1"/>
        <pt x="1460" y="-116" on="0"/>
        <pt x="1551" y="-147" on="0"/>
        <pt x="1610" y="-147" on="0"/>
        <pt x="1640" y="-141" on="0"/>
        <pt x="1650" y="-137" on="1"/>
        <pt x="1677" y="-127" on="0"/>
      </contour>
      <contour>
        <pt x="271" y="734" on="1"/>
        <pt x="271" y="604" on="0"/>
        <pt x="356" y="352" on="0"/>
        <pt x="434" y="258" on="1"/>
        <pt x="601" y="53" on="0"/>
        <pt x="856" y="53" on="1"/>
        <pt x="1052" y="53" on="0"/>
        <pt x="1179" y="203" on="1"/>
        <pt x="1309" y="356" on="0"/>
        <pt x="1309" y="606" on="1"/>
        <pt x="1309" y="899" on="0"/>
        <pt x="1152" y="1092" on="1"/>
        <pt x="996" y="1282" on="0"/>
        <pt x="757" y="1282" on="1"/>
        <pt x="560" y="1282" on="0"/>
        <pt x="418" y="1132" on="1"/>
        <pt x="271" y="976" on="0"/>
      </contour>
    </TTGlyph>
    <TTGlyph name="R" xMin="68" yMin="-15" xMax="1305" yMax="1356">
      <contour>
        <pt x="133" y="-15" on="1"/>
        <pt x="68" y="-15" on="0"/>
        <pt x="68" y="22" on="1"/>
        <pt x="68" y="51" on="0"/>
        <pt x="104" y="51" on="1"/>
        <pt x="153" y="46" on="1"/>
        <pt x="213" y="46" on="0"/>
        <pt x="234" y="113" on="1"/>
        <pt x="251" y="170" on="0"/>
        <pt x="251" y="317" on="1"/>
        <pt x="251" y="1023" on="1"/>
        <pt x="251" y="1170" on="0"/>
        <pt x="223" y="1261" on="0"/>
        <pt x="184" y="1294" on="0"/>
        <pt x="153" y="1294" on="1"/>
        <pt x="104" y="1290" on="1"/>
        <pt x="68" y="1290" on="0"/>
        <pt x="68" y="1319" on="1"/>
        <pt x="68" y="1356" on="0"/>
        <pt x="178" y="1356" on="0"/>
        <pt x="277" y="1340" on="0"/>
        <pt x="331" y="1340" on="1"/>
        <pt x="385" y="1340" on="0"/>
        <pt x="484" y="1356" on="0"/>
        <pt x="639" y="1356" on="0"/>
        <pt x="817" y="1306" on="0"/>
        <pt x="878" y="1260" on="1"/>
        <pt x="1005" y="1165" on="0"/>
        <pt x="1005" y="1008" on="1"/>
        <pt x="1005" y="834" on="0"/>
        <pt x="862" y="708" on="1"/>
        <pt x="816" y="668" on="0"/>
        <pt x="760" y="640" on="1"/>
        <pt x="1085" y="168" on="1"/>
        <pt x="1140" y="87" on="0"/>
        <pt x="1206" y="70" on="1"/>
        <pt x="1225" y="65" on="0"/>
        <pt x="1254" y="62" on="1"/>
        <pt x="1305" y="57" on="0"/>
        <pt x="1305" y="0" on="0"/>
        <pt x="1250" y="0" on="1"/>
        <pt x="1058" y="0" on="1"/>
        <pt x="989" y="0" on="0"/>
        <pt x="933" y="90" on="1"/>
        <pt x="681" y="493" on="1"/>
        <pt x="647" y="546" on="0"/>
        <pt x="585" y="591" on="0"/>
        <pt x="456" y="591" on="0"/>
        <pt x="408" y="588" on="1"/>
        <pt x="408" y="317" on="1"/>
        <pt x="408" y="166" on="0"/>
        <pt x="435" y="79" on="0"/>
        <pt x="474" y="46" on="0"/>
        <pt x="506" y="46" on="1"/>
        <pt x="554" y="51" on="1"/>
        <pt x="590" y="51" on="0"/>
        <pt x="590" y="22" on="1"/>
        <pt x="590" y="-15" on="0"/>
        <pt x="526" y="-15" on="1"/>
        <pt x="493" y="-15" on="0"/>
        <pt x="456" y="-9" on="1"/>
        <pt x="336" y="10" on="0"/>
        <pt x="165" y="-15" on="0"/>
      </contour>
      <contour>
        <pt x="408" y="676" on="1"/>
        <pt x="473" y="669" on="0"/>
        <pt x="533" y="669" on="1"/>
        <pt x="596" y="669" on="1"/>
        <pt x="693" y="669" on="0"/>
        <pt x="760" y="735" on="1"/>
        <pt x="838" y="812" on="0"/>
        <pt x="838" y="945" on="1"/>
        <pt x="838" y="1105" on="0"/>
        <pt x="741" y="1198" on="1"/>
        <pt x="650" y="1286" on="0"/>
        <pt x="507" y="1286" on="1"/>
        <pt x="456" y="1286" on="0"/>
        <pt x="408" y="1258" on="0"/>
        <pt x="408" y="1224" on="1"/>
      </contour>
    </TTGlyph>
    <TTGlyph name="Racute" xMin="68" yMin="-15" xMax="1305" yMax="1764">
      <contour>
        <pt x="445" y="1529" on="1"/>
        <pt x="385" y="1509" on="0"/>
        <pt x="365" y="1509" on="0"/>
        <pt x="347" y="1535" on="0"/>
        <pt x="347" y="1545" on="1"/>
        <pt x="347" y="1561" on="0"/>
        <pt x="368" y="1573" on="1"/>
        <pt x="707" y="1756" on="1"/>
        <pt x="720" y="1764" on="0"/>
        <pt x="734" y="1764" on="0"/>
        <pt x="754" y="1746" on="0"/>
        <pt x="764" y="1732" on="1"/>
        <pt x="789" y="1695" on="0"/>
        <pt x="789" y="1654" on="0"/>
        <pt x="781" y="1643" on="0"/>
        <pt x="770" y="1639" on="1"/>
      </contour>
      <contour>
        <pt x="133" y="-15" on="1"/>
        <pt x="68" y="-15" on="0"/>
        <pt x="68" y="22" on="1"/>
        <pt x="68" y="51" on="0"/>
        <pt x="104" y="51" on="1"/>
        <pt x="153" y="46" on="1"/>
        <pt x="213" y="46" on="0"/>
        <pt x="234" y="113" on="1"/>
        <pt x="251" y="170" on="0"/>
        <pt x="251" y="317" on="1"/>
        <pt x="251" y="1023" on="1"/>
        <pt x="251" y="1170" on="0"/>
        <pt x="223" y="1261" on="0"/>
        <pt x="184" y="1294" on="0"/>
        <pt x="153" y="1294" on="1"/>
        <pt x="104" y="1290" on="1"/>
        <pt x="68" y="1290" on="0"/>
        <pt x="68" y="1319" on="1"/>
        <pt x="68" y="1356" on="0"/>
        <pt x="178" y="1356" on="0"/>
        <pt x="277" y="1340" on="0"/>
        <pt x="331" y="1340" on="1"/>
        <pt x="385" y="1340" on="0"/>
        <pt x="484" y="1356" on="0"/>
        <pt x="639" y="1356" on="0"/>
        <pt x="817" y="1306" on="0"/>
        <pt x="878" y="1260" on="1"/>
        <pt x="1005" y="1165" on="0"/>
        <pt x="1005" y="1008" on="1"/>
        <pt x="1005" y="834" on="0"/>
        <pt x="862" y="708" on="1"/>
        <pt x="816" y="668" on="0"/>
        <pt x="760" y="640" on="1"/>
        <pt x="1085" y="168" on="1"/>
        <pt x="1140" y="87" on="0"/>
        <pt x="1206" y="70" on="1"/>
        <pt x="1225" y="65" on="0"/>
        <pt x="1254" y="62" on="1"/>
        <pt x="1305" y="57" on="0"/>
        <pt x="1305" y="0" on="0"/>
        <pt x="1250" y="0" on="1"/>
        <pt x="1058" y="0" on="1"/>
        <pt x="989" y="0" on="0"/>
        <pt x="933" y="90" on="1"/>
        <pt x="681" y="493" on="1"/>
        <pt x="647" y="546" on="0"/>
        <pt x="585" y="591" on="0"/>
        <pt x="456" y="591" on="0"/>
        <pt x="408" y="588" on="1"/>
        <pt x="408" y="317" on="1"/>
        <pt x="408" y="166" on="0"/>
        <pt x="435" y="79" on="0"/>
        <pt x="474" y="46" on="0"/>
        <pt x="506" y="46" on="1"/>
        <pt x="554" y="51" on="1"/>
        <pt x="590" y="51" on="0"/>
        <pt x="590" y="22" on="1"/>
        <pt x="590" y="-15" on="0"/>
        <pt x="526" y="-15" on="1"/>
        <pt x="493" y="-15" on="0"/>
        <pt x="456" y="-9" on="1"/>
        <pt x="336" y="10" on="0"/>
        <pt x="165" y="-15" on="0"/>
      </contour>
      <contour>
        <pt x="408" y="676" on="1"/>
        <pt x="473" y="669" on="0"/>
        <pt x="533" y="669" on="1"/>
        <pt x="596" y="669" on="1"/>
        <pt x="693" y="669" on="0"/>
        <pt x="760" y="735" on="1"/>
        <pt x="838" y="812" on="0"/>
        <pt x="838" y="945" on="1"/>
        <pt x="838" y="1105" on="0"/>
        <pt x="741" y="1198" on="1"/>
        <pt x="650" y="1286" on="0"/>
        <pt x="507" y="1286" on="1"/>
        <pt x="456" y="1286" on="0"/>
        <pt x="408" y="1258" on="0"/>
        <pt x="408" y="1224" on="1"/>
      </contour>
    </TTGlyph>
    <TTGlyph name="Rcaron" xMin="68" yMin="-15" xMax="1305" yMax="1770">
      <contour>
        <pt x="579" y="1503" on="0"/>
        <pt x="572" y="1501" on="0"/>
        <pt x="563" y="1501" on="0"/>
        <pt x="556" y="1503" on="0"/>
        <pt x="550" y="1506" on="1"/>
        <pt x="542" y="1512" on="0"/>
        <pt x="514" y="1538" on="1"/>
        <pt x="324" y="1707" on="1"/>
        <pt x="307" y="1722" on="0"/>
        <pt x="307" y="1744" on="0"/>
        <pt x="332" y="1770" on="0"/>
        <pt x="340" y="1770" on="1"/>
        <pt x="351" y="1770" on="0"/>
        <pt x="380" y="1751" on="1"/>
        <pt x="568" y="1632" on="1"/>
        <pt x="756" y="1751" on="1"/>
        <pt x="785" y="1770" on="0"/>
        <pt x="804" y="1770" on="0"/>
        <pt x="829" y="1744" on="0"/>
        <pt x="829" y="1736" on="1"/>
        <pt x="829" y="1722" on="0"/>
        <pt x="812" y="1707" on="1"/>
        <pt x="622" y="1538" on="1"/>
        <pt x="607" y="1525" on="0"/>
        <pt x="590" y="1510" on="0"/>
      </contour>
      <contour>
        <pt x="133" y="-15" on="1"/>
        <pt x="68" y="-15" on="0"/>
        <pt x="68" y="22" on="1"/>
        <pt x="68" y="51" on="0"/>
        <pt x="104" y="51" on="1"/>
        <pt x="153" y="46" on="1"/>
        <pt x="213" y="46" on="0"/>
        <pt x="234" y="113" on="1"/>
        <pt x="251" y="170" on="0"/>
        <pt x="251" y="317" on="1"/>
        <pt x="251" y="1023" on="1"/>
        <pt x="251" y="1170" on="0"/>
        <pt x="223" y="1261" on="0"/>
        <pt x="184" y="1294" on="0"/>
        <pt x="153" y="1294" on="1"/>
        <pt x="104" y="1290" on="1"/>
        <pt x="68" y="1290" on="0"/>
        <pt x="68" y="1319" on="1"/>
        <pt x="68" y="1356" on="0"/>
        <pt x="178" y="1356" on="0"/>
        <pt x="277" y="1340" on="0"/>
        <pt x="331" y="1340" on="1"/>
        <pt x="385" y="1340" on="0"/>
        <pt x="484" y="1356" on="0"/>
        <pt x="639" y="1356" on="0"/>
        <pt x="817" y="1306" on="0"/>
        <pt x="878" y="1260" on="1"/>
        <pt x="1005" y="1165" on="0"/>
        <pt x="1005" y="1008" on="1"/>
        <pt x="1005" y="834" on="0"/>
        <pt x="862" y="708" on="1"/>
        <pt x="816" y="668" on="0"/>
        <pt x="760" y="640" on="1"/>
        <pt x="1085" y="168" on="1"/>
        <pt x="1140" y="87" on="0"/>
        <pt x="1206" y="70" on="1"/>
        <pt x="1225" y="65" on="0"/>
        <pt x="1254" y="62" on="1"/>
        <pt x="1305" y="57" on="0"/>
        <pt x="1305" y="0" on="0"/>
        <pt x="1250" y="0" on="1"/>
        <pt x="1058" y="0" on="1"/>
        <pt x="989" y="0" on="0"/>
        <pt x="933" y="90" on="1"/>
        <pt x="681" y="493" on="1"/>
        <pt x="647" y="546" on="0"/>
        <pt x="585" y="591" on="0"/>
        <pt x="456" y="591" on="0"/>
        <pt x="408" y="588" on="1"/>
        <pt x="408" y="317" on="1"/>
        <pt x="408" y="166" on="0"/>
        <pt x="435" y="79" on="0"/>
        <pt x="474" y="46" on="0"/>
        <pt x="506" y="46" on="1"/>
        <pt x="554" y="51" on="1"/>
        <pt x="590" y="51" on="0"/>
        <pt x="590" y="22" on="1"/>
        <pt x="590" y="-15" on="0"/>
        <pt x="526" y="-15" on="1"/>
        <pt x="493" y="-15" on="0"/>
        <pt x="456" y="-9" on="1"/>
        <pt x="336" y="10" on="0"/>
        <pt x="165" y="-15" on="0"/>
      </contour>
      <contour>
        <pt x="408" y="676" on="1"/>
        <pt x="473" y="669" on="0"/>
        <pt x="533" y="669" on="1"/>
        <pt x="596" y="669" on="1"/>
        <pt x="693" y="669" on="0"/>
        <pt x="760" y="735" on="1"/>
        <pt x="838" y="812" on="0"/>
        <pt x="838" y="945" on="1"/>
        <pt x="838" y="1105" on="0"/>
        <pt x="741" y="1198" on="1"/>
        <pt x="650" y="1286" on="0"/>
        <pt x="507" y="1286" on="1"/>
        <pt x="456" y="1286" on="0"/>
        <pt x="408" y="1258" on="0"/>
        <pt x="408" y="1224" on="1"/>
      </contour>
    </TTGlyph>
    <TTGlyph name="Rcommaaccent" xMin="68" yMin="-534" xMax="1305" yMax="1356">
      <contour>
        <pt x="133" y="-15" on="1"/>
        <pt x="68" y="-15" on="0"/>
        <pt x="68" y="22" on="1"/>
        <pt x="68" y="51" on="0"/>
        <pt x="104" y="51" on="1"/>
        <pt x="153" y="46" on="1"/>
        <pt x="213" y="46" on="0"/>
        <pt x="234" y="113" on="1"/>
        <pt x="251" y="170" on="0"/>
        <pt x="251" y="317" on="1"/>
        <pt x="251" y="1023" on="1"/>
        <pt x="251" y="1170" on="0"/>
        <pt x="223" y="1261" on="0"/>
        <pt x="184" y="1294" on="0"/>
        <pt x="153" y="1294" on="1"/>
        <pt x="104" y="1290" on="1"/>
        <pt x="68" y="1290" on="0"/>
        <pt x="68" y="1319" on="1"/>
        <pt x="68" y="1356" on="0"/>
        <pt x="178" y="1356" on="0"/>
        <pt x="277" y="1340" on="0"/>
        <pt x="331" y="1340" on="1"/>
        <pt x="385" y="1340" on="0"/>
        <pt x="484" y="1356" on="0"/>
        <pt x="639" y="1356" on="0"/>
        <pt x="817" y="1306" on="0"/>
        <pt x="878" y="1260" on="1"/>
        <pt x="1005" y="1165" on="0"/>
        <pt x="1005" y="1008" on="1"/>
        <pt x="1005" y="834" on="0"/>
        <pt x="862" y="708" on="1"/>
        <pt x="816" y="668" on="0"/>
        <pt x="760" y="640" on="1"/>
        <pt x="1085" y="168" on="1"/>
        <pt x="1140" y="87" on="0"/>
        <pt x="1206" y="70" on="1"/>
        <pt x="1225" y="65" on="0"/>
        <pt x="1254" y="62" on="1"/>
        <pt x="1305" y="57" on="0"/>
        <pt x="1305" y="0" on="0"/>
        <pt x="1250" y="0" on="1"/>
        <pt x="1058" y="0" on="1"/>
        <pt x="989" y="0" on="0"/>
        <pt x="933" y="90" on="1"/>
        <pt x="681" y="493" on="1"/>
        <pt x="647" y="546" on="0"/>
        <pt x="585" y="591" on="0"/>
        <pt x="456" y="591" on="0"/>
        <pt x="408" y="588" on="1"/>
        <pt x="408" y="317" on="1"/>
        <pt x="408" y="166" on="0"/>
        <pt x="435" y="79" on="0"/>
        <pt x="474" y="46" on="0"/>
        <pt x="506" y="46" on="1"/>
        <pt x="554" y="51" on="1"/>
        <pt x="590" y="51" on="0"/>
        <pt x="590" y="22" on="1"/>
        <pt x="590" y="-15" on="0"/>
        <pt x="526" y="-15" on="1"/>
        <pt x="493" y="-15" on="0"/>
        <pt x="456" y="-9" on="1"/>
        <pt x="336" y="10" on="0"/>
        <pt x="165" y="-15" on="0"/>
      </contour>
      <contour>
        <pt x="408" y="676" on="1"/>
        <pt x="473" y="669" on="0"/>
        <pt x="533" y="669" on="1"/>
        <pt x="596" y="669" on="1"/>
        <pt x="693" y="669" on="0"/>
        <pt x="760" y="735" on="1"/>
        <pt x="838" y="812" on="0"/>
        <pt x="838" y="945" on="1"/>
        <pt x="838" y="1105" on="0"/>
        <pt x="741" y="1198" on="1"/>
        <pt x="650" y="1286" on="0"/>
        <pt x="507" y="1286" on="1"/>
        <pt x="456" y="1286" on="0"/>
        <pt x="408" y="1258" on="0"/>
        <pt x="408" y="1224" on="1"/>
      </contour>
      <contour>
        <pt x="599" y="-209" on="1"/>
        <pt x="599" y="-187" on="0"/>
        <pt x="628" y="-164" on="1"/>
        <pt x="682" y="-123" on="0"/>
        <pt x="743" y="-123" on="0"/>
        <pt x="786" y="-191" on="0"/>
        <pt x="786" y="-250" on="1"/>
        <pt x="786" y="-351" on="0"/>
        <pt x="722" y="-492" on="0"/>
        <pt x="683" y="-534" on="0"/>
        <pt x="637" y="-534" on="0"/>
        <pt x="637" y="-516" on="1"/>
        <pt x="637" y="-509" on="0"/>
        <pt x="653" y="-480" on="0"/>
        <pt x="662" y="-460" on="1"/>
        <pt x="687" y="-406" on="0"/>
        <pt x="687" y="-374" on="1"/>
        <pt x="687" y="-323" on="0"/>
        <pt x="632" y="-268" on="0"/>
        <pt x="612" y="-247" on="0"/>
        <pt x="606" y="-240" on="1"/>
        <pt x="599" y="-229" on="0"/>
      </contour>
    </TTGlyph>
    <TTGlyph name="S" xMin="118" yMin="-25" xMax="932" yMax="1365">
      <contour>
        <pt x="777" y="1325" on="1"/>
        <pt x="819" y="1331" on="1"/>
        <pt x="847" y="1331" on="0"/>
        <pt x="853" y="1240" on="0"/>
        <pt x="863" y="1182" on="0"/>
        <pt x="873" y="1136" on="0"/>
        <pt x="880" y="1104" on="0"/>
        <pt x="880" y="1083" on="0"/>
        <pt x="857" y="1064" on="0"/>
        <pt x="844" y="1064" on="1"/>
        <pt x="821" y="1064" on="0"/>
        <pt x="799" y="1113" on="1"/>
        <pt x="757" y="1206" on="0"/>
        <pt x="729" y="1233" on="1"/>
        <pt x="664" y="1291" on="0"/>
        <pt x="538" y="1291" on="1"/>
        <pt x="362" y="1291" on="0"/>
        <pt x="302" y="1186" on="1"/>
        <pt x="283" y="1152" on="0"/>
        <pt x="283" y="1054" on="0"/>
        <pt x="330" y="968" on="0"/>
        <pt x="427" y="881" on="0"/>
        <pt x="577" y="781" on="0"/>
        <pt x="749" y="663" on="0"/>
        <pt x="845" y="568" on="0"/>
        <pt x="875" y="521" on="1"/>
        <pt x="932" y="432" on="0"/>
        <pt x="932" y="264" on="0"/>
        <pt x="884" y="133" on="0"/>
        <pt x="830" y="84" on="1"/>
        <pt x="713" y="-25" on="0"/>
        <pt x="484" y="-25" on="1"/>
        <pt x="368" y="-25" on="0"/>
        <pt x="228" y="26" on="1"/>
        <pt x="196" y="37" on="0"/>
        <pt x="188" y="51" on="1"/>
        <pt x="179" y="68" on="0"/>
        <pt x="165" y="162" on="0"/>
        <pt x="146" y="238" on="0"/>
        <pt x="138" y="268" on="1"/>
        <pt x="124" y="320" on="1"/>
        <pt x="118" y="343" on="0"/>
        <pt x="118" y="358" on="1"/>
        <pt x="118" y="394" on="0"/>
        <pt x="145" y="394" on="1"/>
        <pt x="181" y="394" on="0"/>
        <pt x="197" y="339" on="1"/>
        <pt x="225" y="241" on="0"/>
        <pt x="247" y="212" on="1"/>
        <pt x="332" y="100" on="0"/>
        <pt x="444" y="66" on="1"/>
        <pt x="477" y="56" on="0"/>
        <pt x="588" y="56" on="0"/>
        <pt x="695" y="89" on="0"/>
        <pt x="730" y="117" on="1"/>
        <pt x="796" y="171" on="0"/>
        <pt x="796" y="326" on="0"/>
        <pt x="697" y="451" on="0"/>
        <pt x="558" y="544" on="0"/>
        <pt x="489" y="588" on="0"/>
        <pt x="459" y="608" on="1"/>
        <pt x="206" y="777" on="0"/>
        <pt x="160" y="944" on="1"/>
        <pt x="148" y="988" on="0"/>
        <pt x="148" y="1102" on="0"/>
        <pt x="204" y="1222" on="0"/>
        <pt x="256" y="1267" on="1"/>
        <pt x="371" y="1365" on="0"/>
        <pt x="553" y="1365" on="1"/>
        <pt x="636" y="1365" on="0"/>
        <pt x="686" y="1348" on="1"/>
        <pt x="756" y="1325" on="0"/>
      </contour>
    </TTGlyph>
    <TTGlyph name="T" xMin="55" yMin="-15" xMax="1160" yMax="1356">
      <contour>
        <pt x="410" y="-15" on="1"/>
        <pt x="345" y="-15" on="0"/>
        <pt x="345" y="22" on="1"/>
        <pt x="345" y="51" on="0"/>
        <pt x="381" y="51" on="1"/>
        <pt x="430" y="46" on="1"/>
        <pt x="490" y="46" on="0"/>
        <pt x="510" y="113" on="1"/>
        <pt x="528" y="170" on="0"/>
        <pt x="528" y="317" on="1"/>
        <pt x="528" y="1252" on="1"/>
        <pt x="501" y="1252" on="1"/>
        <pt x="326" y="1252" on="0"/>
        <pt x="222" y="1216" on="1"/>
        <pt x="150" y="1190" on="0"/>
        <pt x="124" y="1127" on="1"/>
        <pt x="105" y="1081" on="0"/>
        <pt x="84" y="1081" on="1"/>
        <pt x="55" y="1081" on="0"/>
        <pt x="55" y="1115" on="1"/>
        <pt x="55" y="1125" on="0"/>
        <pt x="64" y="1151" on="0"/>
        <pt x="70" y="1169" on="1"/>
        <pt x="86" y="1217" on="0"/>
        <pt x="92" y="1321" on="0"/>
        <pt x="109" y="1356" on="0"/>
        <pt x="139" y="1356" on="0"/>
        <pt x="163" y="1351" on="0"/>
        <pt x="186" y="1348" on="1"/>
        <pt x="246" y="1340" on="0"/>
        <pt x="337" y="1340" on="1"/>
        <pt x="971" y="1340" on="1"/>
        <pt x="1045" y="1340" on="0"/>
        <pt x="1112" y="1356" on="0"/>
        <pt x="1127" y="1356" on="1"/>
        <pt x="1160" y="1356" on="0"/>
        <pt x="1160" y="1325" on="1"/>
        <pt x="1160" y="1309" on="0"/>
        <pt x="1154" y="1287" on="1"/>
        <pt x="1139" y="1238" on="0"/>
        <pt x="1130" y="1167" on="0"/>
        <pt x="1122" y="1122" on="0"/>
        <pt x="1117" y="1109" on="1"/>
        <pt x="1109" y="1087" on="0"/>
        <pt x="1077" y="1087" on="0"/>
        <pt x="1068" y="1110" on="0"/>
        <pt x="1058" y="1176" on="0"/>
        <pt x="1034" y="1218" on="0"/>
        <pt x="1014" y="1230" on="1"/>
        <pt x="979" y="1252" on="0"/>
        <pt x="900" y="1252" on="1"/>
        <pt x="685" y="1252" on="1"/>
        <pt x="685" y="317" on="1"/>
        <pt x="685" y="166" on="0"/>
        <pt x="712" y="79" on="0"/>
        <pt x="751" y="46" on="0"/>
        <pt x="783" y="46" on="1"/>
        <pt x="831" y="51" on="1"/>
        <pt x="867" y="51" on="0"/>
        <pt x="867" y="22" on="1"/>
        <pt x="867" y="-15" on="0"/>
        <pt x="803" y="-15" on="1"/>
        <pt x="770" y="-15" on="0"/>
        <pt x="733" y="-9" on="1"/>
        <pt x="613" y="10" on="0"/>
        <pt x="442" y="-15" on="0"/>
      </contour>
    </TTGlyph>
    <TTGlyph name="Thorn" xMin="68" yMin="-15" xMax="992" yMax="1356">
      <contour>
        <pt x="133" y="-15" on="1"/>
        <pt x="68" y="-15" on="0"/>
        <pt x="68" y="22" on="1"/>
        <pt x="68" y="51" on="0"/>
        <pt x="104" y="51" on="1"/>
        <pt x="153" y="46" on="1"/>
        <pt x="207" y="46" on="0"/>
        <pt x="228" y="98" on="1"/>
        <pt x="251" y="156" on="0"/>
        <pt x="251" y="317" on="1"/>
        <pt x="251" y="1023" on="1"/>
        <pt x="251" y="1188" on="0"/>
        <pt x="216" y="1273" on="0"/>
        <pt x="179" y="1294" on="0"/>
        <pt x="153" y="1294" on="1"/>
        <pt x="104" y="1290" on="1"/>
        <pt x="68" y="1290" on="0"/>
        <pt x="68" y="1319" on="1"/>
        <pt x="68" y="1356" on="0"/>
        <pt x="178" y="1356" on="0"/>
        <pt x="277" y="1340" on="0"/>
        <pt x="331" y="1340" on="1"/>
        <pt x="385" y="1340" on="0"/>
        <pt x="480" y="1356" on="0"/>
        <pt x="590" y="1356" on="0"/>
        <pt x="590" y="1319" on="1"/>
        <pt x="590" y="1290" on="0"/>
        <pt x="554" y="1290" on="1"/>
        <pt x="506" y="1294" on="1"/>
        <pt x="454" y="1294" on="0"/>
        <pt x="433" y="1248" on="1"/>
        <pt x="410" y="1197" on="0"/>
        <pt x="408" y="1054" on="1"/>
        <pt x="526" y="1067" on="1"/>
        <pt x="740" y="1067" on="0"/>
        <pt x="872" y="936" on="1"/>
        <pt x="992" y="818" on="0"/>
        <pt x="992" y="650" on="1"/>
        <pt x="992" y="495" on="0"/>
        <pt x="872" y="380" on="1"/>
        <pt x="754" y="268" on="0"/>
        <pt x="602" y="268" on="1"/>
        <pt x="485" y="268" on="0"/>
        <pt x="442" y="314" on="1"/>
        <pt x="429" y="328" on="0"/>
        <pt x="429" y="361" on="0"/>
        <pt x="448" y="378" on="0"/>
        <pt x="462" y="378" on="1"/>
        <pt x="476" y="378" on="0"/>
        <pt x="501" y="360" on="1"/>
        <pt x="540" y="331" on="0"/>
        <pt x="656" y="331" on="0"/>
        <pt x="737" y="376" on="0"/>
        <pt x="765" y="417" on="1"/>
        <pt x="823" y="502" on="0"/>
        <pt x="823" y="646" on="1"/>
        <pt x="823" y="808" on="0"/>
        <pt x="733" y="904" on="1"/>
        <pt x="646" y="997" on="0"/>
        <pt x="507" y="997" on="1"/>
        <pt x="412" y="997" on="0"/>
        <pt x="408" y="941" on="1"/>
        <pt x="408" y="317" on="1"/>
        <pt x="408" y="154" on="0"/>
        <pt x="443" y="68" on="0"/>
        <pt x="480" y="46" on="0"/>
        <pt x="506" y="46" on="1"/>
        <pt x="554" y="51" on="1"/>
        <pt x="590" y="51" on="0"/>
        <pt x="590" y="22" on="1"/>
        <pt x="590" y="-15" on="0"/>
        <pt x="526" y="-15" on="1"/>
        <pt x="493" y="-15" on="0"/>
        <pt x="456" y="-9" on="1"/>
        <pt x="336" y="10" on="0"/>
        <pt x="165" y="-15" on="0"/>
      </contour>
    </TTGlyph>
    <TTGlyph name="U" xMin="24" yMin="-25" xMax="1480" yMax="1356">
      <contour>
        <pt x="540" y="1290" on="1"/>
        <pt x="492" y="1294" on="1"/>
        <pt x="431" y="1294" on="0"/>
        <pt x="409" y="1227" on="1"/>
        <pt x="390" y="1168" on="0"/>
        <pt x="390" y="1023" on="1"/>
        <pt x="390" y="529" on="1"/>
        <pt x="390" y="390" on="0"/>
        <pt x="430" y="269" on="0"/>
        <pt x="503" y="169" on="0"/>
        <pt x="552" y="134" on="1"/>
        <pt x="651" y="64" on="0"/>
        <pt x="900" y="64" on="0"/>
        <pt x="1062" y="123" on="0"/>
        <pt x="1110" y="182" on="1"/>
        <pt x="1199" y="290" on="0"/>
        <pt x="1199" y="534" on="1"/>
        <pt x="1197" y="1023" on="1"/>
        <pt x="1197" y="1170" on="0"/>
        <pt x="1169" y="1261" on="0"/>
        <pt x="1130" y="1294" on="0"/>
        <pt x="1099" y="1294" on="1"/>
        <pt x="1050" y="1290" on="1"/>
        <pt x="1014" y="1290" on="0"/>
        <pt x="1014" y="1319" on="1"/>
        <pt x="1014" y="1356" on="0"/>
        <pt x="1124" y="1356" on="0"/>
        <pt x="1206" y="1340" on="0"/>
        <pt x="1251" y="1340" on="1"/>
        <pt x="1416" y="1356" on="1"/>
        <pt x="1480" y="1356" on="0"/>
        <pt x="1480" y="1319" on="1"/>
        <pt x="1480" y="1290" on="0"/>
        <pt x="1444" y="1290" on="1"/>
        <pt x="1396" y="1294" on="1"/>
        <pt x="1335" y="1294" on="0"/>
        <pt x="1315" y="1227" on="1"/>
        <pt x="1298" y="1169" on="0"/>
        <pt x="1298" y="1023" on="1"/>
        <pt x="1296" y="483" on="1"/>
        <pt x="1296" y="260" on="0"/>
        <pt x="1154" y="118" on="1"/>
        <pt x="1011" y="-25" on="0"/>
        <pt x="773" y="-25" on="1"/>
        <pt x="514" y="-25" on="0"/>
        <pt x="364" y="118" on="1"/>
        <pt x="211" y="266" on="0"/>
        <pt x="211" y="529" on="1"/>
        <pt x="211" y="1023" on="1"/>
        <pt x="211" y="1168" on="0"/>
        <pt x="181" y="1261" on="0"/>
        <pt x="141" y="1294" on="0"/>
        <pt x="109" y="1294" on="1"/>
        <pt x="60" y="1290" on="1"/>
        <pt x="24" y="1290" on="0"/>
        <pt x="24" y="1319" on="1"/>
        <pt x="24" y="1356" on="0"/>
        <pt x="135" y="1356" on="0"/>
        <pt x="241" y="1340" on="0"/>
        <pt x="358" y="1340" on="0"/>
        <pt x="467" y="1356" on="0"/>
        <pt x="576" y="1356" on="0"/>
        <pt x="576" y="1319" on="1"/>
        <pt x="576" y="1290" on="0"/>
      </contour>
    </TTGlyph>
    <TTGlyph name="Uacute" xMin="24" yMin="-25" xMax="1480" yMax="1764">
      <contour>
        <pt x="669" y="1529" on="1"/>
        <pt x="609" y="1509" on="0"/>
        <pt x="589" y="1509" on="0"/>
        <pt x="571" y="1535" on="0"/>
        <pt x="571" y="1545" on="1"/>
        <pt x="571" y="1561" on="0"/>
        <pt x="592" y="1573" on="1"/>
        <pt x="931" y="1756" on="1"/>
        <pt x="944" y="1764" on="0"/>
        <pt x="958" y="1764" on="0"/>
        <pt x="978" y="1746" on="0"/>
        <pt x="988" y="1732" on="1"/>
        <pt x="1013" y="1695" on="0"/>
        <pt x="1013" y="1654" on="0"/>
        <pt x="1005" y="1643" on="0"/>
        <pt x="994" y="1639" on="1"/>
      </contour>
      <contour>
        <pt x="540" y="1290" on="1"/>
        <pt x="492" y="1294" on="1"/>
        <pt x="431" y="1294" on="0"/>
        <pt x="409" y="1227" on="1"/>
        <pt x="390" y="1168" on="0"/>
        <pt x="390" y="1023" on="1"/>
        <pt x="390" y="529" on="1"/>
        <pt x="390" y="390" on="0"/>
        <pt x="430" y="269" on="0"/>
        <pt x="503" y="169" on="0"/>
        <pt x="552" y="134" on="1"/>
        <pt x="651" y="64" on="0"/>
        <pt x="900" y="64" on="0"/>
        <pt x="1062" y="123" on="0"/>
        <pt x="1110" y="182" on="1"/>
        <pt x="1199" y="290" on="0"/>
        <pt x="1199" y="534" on="1"/>
        <pt x="1197" y="1023" on="1"/>
        <pt x="1197" y="1170" on="0"/>
        <pt x="1169" y="1261" on="0"/>
        <pt x="1130" y="1294" on="0"/>
        <pt x="1099" y="1294" on="1"/>
        <pt x="1050" y="1290" on="1"/>
        <pt x="1014" y="1290" on="0"/>
        <pt x="1014" y="1319" on="1"/>
        <pt x="1014" y="1356" on="0"/>
        <pt x="1124" y="1356" on="0"/>
        <pt x="1206" y="1340" on="0"/>
        <pt x="1251" y="1340" on="1"/>
        <pt x="1416" y="1356" on="1"/>
        <pt x="1480" y="1356" on="0"/>
        <pt x="1480" y="1319" on="1"/>
        <pt x="1480" y="1290" on="0"/>
        <pt x="1444" y="1290" on="1"/>
        <pt x="1396" y="1294" on="1"/>
        <pt x="1335" y="1294" on="0"/>
        <pt x="1315" y="1227" on="1"/>
        <pt x="1298" y="1169" on="0"/>
        <pt x="1298" y="1023" on="1"/>
        <pt x="1296" y="483" on="1"/>
        <pt x="1296" y="260" on="0"/>
        <pt x="1154" y="118" on="1"/>
        <pt x="1011" y="-25" on="0"/>
        <pt x="773" y="-25" on="1"/>
        <pt x="514" y="-25" on="0"/>
        <pt x="364" y="118" on="1"/>
        <pt x="211" y="266" on="0"/>
        <pt x="211" y="529" on="1"/>
        <pt x="211" y="1023" on="1"/>
        <pt x="211" y="1168" on="0"/>
        <pt x="181" y="1261" on="0"/>
        <pt x="141" y="1294" on="0"/>
        <pt x="109" y="1294" on="1"/>
        <pt x="60" y="1290" on="1"/>
        <pt x="24" y="1290" on="0"/>
        <pt x="24" y="1319" on="1"/>
        <pt x="24" y="1356" on="0"/>
        <pt x="135" y="1356" on="0"/>
        <pt x="241" y="1340" on="0"/>
        <pt x="358" y="1340" on="0"/>
        <pt x="467" y="1356" on="0"/>
        <pt x="576" y="1356" on="0"/>
        <pt x="576" y="1319" on="1"/>
        <pt x="576" y="1290" on="0"/>
      </contour>
    </TTGlyph>
    <TTGlyph name="Ucircumflex" xMin="24" yMin="-25" xMax="1480" yMax="1770">
      <contour>
        <pt x="604" y="1520" on="1"/>
        <pt x="575" y="1501" on="0"/>
        <pt x="556" y="1501" on="0"/>
        <pt x="531" y="1527" on="0"/>
        <pt x="531" y="1536" on="1"/>
        <pt x="531" y="1549" on="0"/>
        <pt x="548" y="1564" on="1"/>
        <pt x="738" y="1733" on="1"/>
        <pt x="752" y="1745" on="0"/>
        <pt x="769" y="1760" on="0"/>
        <pt x="774" y="1764" on="1"/>
        <pt x="783" y="1770" on="0"/>
        <pt x="795" y="1770" on="0"/>
        <pt x="802" y="1768" on="0"/>
        <pt x="808" y="1764" on="1"/>
        <pt x="816" y="1759" on="0"/>
        <pt x="846" y="1733" on="1"/>
        <pt x="1036" y="1564" on="1"/>
        <pt x="1053" y="1549" on="0"/>
        <pt x="1053" y="1527" on="0"/>
        <pt x="1028" y="1501" on="0"/>
        <pt x="1020" y="1501" on="1"/>
        <pt x="1009" y="1501" on="0"/>
        <pt x="980" y="1520" on="1"/>
        <pt x="792" y="1638" on="1"/>
      </contour>
      <contour>
        <pt x="540" y="1290" on="1"/>
        <pt x="492" y="1294" on="1"/>
        <pt x="431" y="1294" on="0"/>
        <pt x="409" y="1227" on="1"/>
        <pt x="390" y="1168" on="0"/>
        <pt x="390" y="1023" on="1"/>
        <pt x="390" y="529" on="1"/>
        <pt x="390" y="390" on="0"/>
        <pt x="430" y="269" on="0"/>
        <pt x="503" y="169" on="0"/>
        <pt x="552" y="134" on="1"/>
        <pt x="651" y="64" on="0"/>
        <pt x="900" y="64" on="0"/>
        <pt x="1062" y="123" on="0"/>
        <pt x="1110" y="182" on="1"/>
        <pt x="1199" y="290" on="0"/>
        <pt x="1199" y="534" on="1"/>
        <pt x="1197" y="1023" on="1"/>
        <pt x="1197" y="1170" on="0"/>
        <pt x="1169" y="1261" on="0"/>
        <pt x="1130" y="1294" on="0"/>
        <pt x="1099" y="1294" on="1"/>
        <pt x="1050" y="1290" on="1"/>
        <pt x="1014" y="1290" on="0"/>
        <pt x="1014" y="1319" on="1"/>
        <pt x="1014" y="1356" on="0"/>
        <pt x="1124" y="1356" on="0"/>
        <pt x="1206" y="1340" on="0"/>
        <pt x="1251" y="1340" on="1"/>
        <pt x="1416" y="1356" on="1"/>
        <pt x="1480" y="1356" on="0"/>
        <pt x="1480" y="1319" on="1"/>
        <pt x="1480" y="1290" on="0"/>
        <pt x="1444" y="1290" on="1"/>
        <pt x="1396" y="1294" on="1"/>
        <pt x="1335" y="1294" on="0"/>
        <pt x="1315" y="1227" on="1"/>
        <pt x="1298" y="1169" on="0"/>
        <pt x="1298" y="1023" on="1"/>
        <pt x="1296" y="483" on="1"/>
        <pt x="1296" y="260" on="0"/>
        <pt x="1154" y="118" on="1"/>
        <pt x="1011" y="-25" on="0"/>
        <pt x="773" y="-25" on="1"/>
        <pt x="514" y="-25" on="0"/>
        <pt x="364" y="118" on="1"/>
        <pt x="211" y="266" on="0"/>
        <pt x="211" y="529" on="1"/>
        <pt x="211" y="1023" on="1"/>
        <pt x="211" y="1168" on="0"/>
        <pt x="181" y="1261" on="0"/>
        <pt x="141" y="1294" on="0"/>
        <pt x="109" y="1294" on="1"/>
        <pt x="60" y="1290" on="1"/>
        <pt x="24" y="1290" on="0"/>
        <pt x="24" y="1319" on="1"/>
        <pt x="24" y="1356" on="0"/>
        <pt x="135" y="1356" on="0"/>
        <pt x="241" y="1340" on="0"/>
        <pt x="358" y="1340" on="0"/>
        <pt x="467" y="1356" on="0"/>
        <pt x="576" y="1356" on="0"/>
        <pt x="576" y="1319" on="1"/>
        <pt x="576" y="1290" on="0"/>
      </contour>
    </TTGlyph>
    <TTGlyph name="Udieresis" xMin="24" yMin="-25" xMax="1480" yMax="1742">
      <contour>
        <pt x="1121" y="1601" on="0"/>
        <pt x="1064" y="1542" on="0"/>
        <pt x="967" y="1542" on="0"/>
        <pt x="914" y="1599" on="0"/>
        <pt x="914" y="1666" on="0"/>
        <pt x="932" y="1702" on="0"/>
        <pt x="946" y="1715" on="1"/>
        <pt x="977" y="1742" on="0"/>
        <pt x="1066" y="1742" on="0"/>
        <pt x="1121" y="1686" on="0"/>
      </contour>
      <contour>
        <pt x="671" y="1601" on="0"/>
        <pt x="614" y="1542" on="0"/>
        <pt x="517" y="1542" on="0"/>
        <pt x="464" y="1599" on="0"/>
        <pt x="464" y="1666" on="0"/>
        <pt x="482" y="1702" on="0"/>
        <pt x="496" y="1715" on="1"/>
        <pt x="527" y="1742" on="0"/>
        <pt x="616" y="1742" on="0"/>
        <pt x="671" y="1686" on="0"/>
      </contour>
      <contour>
        <pt x="540" y="1290" on="1"/>
        <pt x="492" y="1294" on="1"/>
        <pt x="431" y="1294" on="0"/>
        <pt x="409" y="1227" on="1"/>
        <pt x="390" y="1168" on="0"/>
        <pt x="390" y="1023" on="1"/>
        <pt x="390" y="529" on="1"/>
        <pt x="390" y="390" on="0"/>
        <pt x="430" y="269" on="0"/>
        <pt x="503" y="169" on="0"/>
        <pt x="552" y="134" on="1"/>
        <pt x="651" y="64" on="0"/>
        <pt x="900" y="64" on="0"/>
        <pt x="1062" y="123" on="0"/>
        <pt x="1110" y="182" on="1"/>
        <pt x="1199" y="290" on="0"/>
        <pt x="1199" y="534" on="1"/>
        <pt x="1197" y="1023" on="1"/>
        <pt x="1197" y="1170" on="0"/>
        <pt x="1169" y="1261" on="0"/>
        <pt x="1130" y="1294" on="0"/>
        <pt x="1099" y="1294" on="1"/>
        <pt x="1050" y="1290" on="1"/>
        <pt x="1014" y="1290" on="0"/>
        <pt x="1014" y="1319" on="1"/>
        <pt x="1014" y="1356" on="0"/>
        <pt x="1124" y="1356" on="0"/>
        <pt x="1206" y="1340" on="0"/>
        <pt x="1251" y="1340" on="1"/>
        <pt x="1416" y="1356" on="1"/>
        <pt x="1480" y="1356" on="0"/>
        <pt x="1480" y="1319" on="1"/>
        <pt x="1480" y="1290" on="0"/>
        <pt x="1444" y="1290" on="1"/>
        <pt x="1396" y="1294" on="1"/>
        <pt x="1335" y="1294" on="0"/>
        <pt x="1315" y="1227" on="1"/>
        <pt x="1298" y="1169" on="0"/>
        <pt x="1298" y="1023" on="1"/>
        <pt x="1296" y="483" on="1"/>
        <pt x="1296" y="260" on="0"/>
        <pt x="1154" y="118" on="1"/>
        <pt x="1011" y="-25" on="0"/>
        <pt x="773" y="-25" on="1"/>
        <pt x="514" y="-25" on="0"/>
        <pt x="364" y="118" on="1"/>
        <pt x="211" y="266" on="0"/>
        <pt x="211" y="529" on="1"/>
        <pt x="211" y="1023" on="1"/>
        <pt x="211" y="1168" on="0"/>
        <pt x="181" y="1261" on="0"/>
        <pt x="141" y="1294" on="0"/>
        <pt x="109" y="1294" on="1"/>
        <pt x="60" y="1290" on="1"/>
        <pt x="24" y="1290" on="0"/>
        <pt x="24" y="1319" on="1"/>
        <pt x="24" y="1356" on="0"/>
        <pt x="135" y="1356" on="0"/>
        <pt x="241" y="1340" on="0"/>
        <pt x="358" y="1340" on="0"/>
        <pt x="467" y="1356" on="0"/>
        <pt x="576" y="1356" on="0"/>
        <pt x="576" y="1319" on="1"/>
        <pt x="576" y="1290" on="0"/>
      </contour>
    </TTGlyph>
    <TTGlyph name="Ugrave" xMin="24" yMin="-25" xMax="1480" yMax="1761">
      <contour>
        <pt x="590" y="1636" on="1"/>
        <pt x="571" y="1643" on="0"/>
        <pt x="571" y="1676" on="0"/>
        <pt x="586" y="1714" on="0"/>
        <pt x="596" y="1728" on="1"/>
        <pt x="618" y="1761" on="0"/>
        <pt x="630" y="1761" on="1"/>
        <pt x="640" y="1761" on="0"/>
        <pt x="653" y="1753" on="1"/>
        <pt x="992" y="1570" on="1"/>
        <pt x="1013" y="1558" on="0"/>
        <pt x="1013" y="1532" on="0"/>
        <pt x="995" y="1506" on="0"/>
        <pt x="986" y="1506" on="1"/>
        <pt x="975" y="1506" on="0"/>
        <pt x="915" y="1526" on="1"/>
      </contour>
      <contour>
        <pt x="540" y="1290" on="1"/>
        <pt x="492" y="1294" on="1"/>
        <pt x="431" y="1294" on="0"/>
        <pt x="409" y="1227" on="1"/>
        <pt x="390" y="1168" on="0"/>
        <pt x="390" y="1023" on="1"/>
        <pt x="390" y="529" on="1"/>
        <pt x="390" y="390" on="0"/>
        <pt x="430" y="269" on="0"/>
        <pt x="503" y="169" on="0"/>
        <pt x="552" y="134" on="1"/>
        <pt x="651" y="64" on="0"/>
        <pt x="900" y="64" on="0"/>
        <pt x="1062" y="123" on="0"/>
        <pt x="1110" y="182" on="1"/>
        <pt x="1199" y="290" on="0"/>
        <pt x="1199" y="534" on="1"/>
        <pt x="1197" y="1023" on="1"/>
        <pt x="1197" y="1170" on="0"/>
        <pt x="1169" y="1261" on="0"/>
        <pt x="1130" y="1294" on="0"/>
        <pt x="1099" y="1294" on="1"/>
        <pt x="1050" y="1290" on="1"/>
        <pt x="1014" y="1290" on="0"/>
        <pt x="1014" y="1319" on="1"/>
        <pt x="1014" y="1356" on="0"/>
        <pt x="1124" y="1356" on="0"/>
        <pt x="1206" y="1340" on="0"/>
        <pt x="1251" y="1340" on="1"/>
        <pt x="1416" y="1356" on="1"/>
        <pt x="1480" y="1356" on="0"/>
        <pt x="1480" y="1319" on="1"/>
        <pt x="1480" y="1290" on="0"/>
        <pt x="1444" y="1290" on="1"/>
        <pt x="1396" y="1294" on="1"/>
        <pt x="1335" y="1294" on="0"/>
        <pt x="1315" y="1227" on="1"/>
        <pt x="1298" y="1169" on="0"/>
        <pt x="1298" y="1023" on="1"/>
        <pt x="1296" y="483" on="1"/>
        <pt x="1296" y="260" on="0"/>
        <pt x="1154" y="118" on="1"/>
        <pt x="1011" y="-25" on="0"/>
        <pt x="773" y="-25" on="1"/>
        <pt x="514" y="-25" on="0"/>
        <pt x="364" y="118" on="1"/>
        <pt x="211" y="266" on="0"/>
        <pt x="211" y="529" on="1"/>
        <pt x="211" y="1023" on="1"/>
        <pt x="211" y="1168" on="0"/>
        <pt x="181" y="1261" on="0"/>
        <pt x="141" y="1294" on="0"/>
        <pt x="109" y="1294" on="1"/>
        <pt x="60" y="1290" on="1"/>
        <pt x="24" y="1290" on="0"/>
        <pt x="24" y="1319" on="1"/>
        <pt x="24" y="1356" on="0"/>
        <pt x="135" y="1356" on="0"/>
        <pt x="241" y="1340" on="0"/>
        <pt x="358" y="1340" on="0"/>
        <pt x="467" y="1356" on="0"/>
        <pt x="576" y="1356" on="0"/>
        <pt x="576" y="1319" on="1"/>
        <pt x="576" y="1290" on="0"/>
      </contour>
    </TTGlyph>
    <TTGlyph name="V" xMin="20" yMin="-53" xMax="1393" yMax="1356">
      <contour>
        <pt x="1330" y="1356" on="1"/>
        <pt x="1393" y="1356" on="0"/>
        <pt x="1393" y="1285" on="0"/>
        <pt x="1351" y="1285" on="1"/>
        <pt x="1298" y="1285" on="0"/>
        <pt x="1276" y="1263" on="1"/>
        <pt x="1236" y="1225" on="0"/>
        <pt x="1202" y="1135" on="1"/>
        <pt x="771" y="9" on="1"/>
        <pt x="746" y="-53" on="0"/>
        <pt x="726" y="-53" on="1"/>
        <pt x="700" y="-53" on="0"/>
        <pt x="672" y="18" on="1"/>
        <pt x="209" y="1135" on="1"/>
        <pt x="169" y="1226" on="0"/>
        <pt x="147" y="1250" on="1"/>
        <pt x="112" y="1285" on="0"/>
        <pt x="20" y="1285" on="0"/>
        <pt x="20" y="1321" on="1"/>
        <pt x="20" y="1335" on="0"/>
        <pt x="52" y="1356" on="0"/>
        <pt x="108" y="1356" on="0"/>
        <pt x="144" y="1351" on="0"/>
        <pt x="162" y="1348" on="1"/>
        <pt x="212" y="1340" on="0"/>
        <pt x="304" y="1340" on="0"/>
        <pt x="406" y="1356" on="0"/>
        <pt x="520" y="1356" on="0"/>
        <pt x="520" y="1290" on="0"/>
        <pt x="477" y="1290" on="1"/>
        <pt x="366" y="1290" on="0"/>
        <pt x="366" y="1229" on="1"/>
        <pt x="366" y="1187" on="0"/>
        <pt x="406" y="1092" on="1"/>
        <pt x="768" y="224" on="1"/>
        <pt x="1081" y="1089" on="1"/>
        <pt x="1110" y="1170" on="0"/>
        <pt x="1110" y="1208" on="1"/>
        <pt x="1110" y="1290" on="0"/>
        <pt x="986" y="1290" on="1"/>
        <pt x="943" y="1290" on="0"/>
        <pt x="943" y="1356" on="0"/>
        <pt x="1008" y="1356" on="1"/>
        <pt x="1040" y="1356" on="0"/>
        <pt x="1121" y="1340" on="0"/>
        <pt x="1180" y="1340" on="1"/>
      </contour>
    </TTGlyph>
    <TTGlyph name="W" xMin="20" yMin="-53" xMax="2023" yMax="1356">
      <contour>
        <pt x="1960" y="1356" on="1"/>
        <pt x="2023" y="1356" on="0"/>
        <pt x="2023" y="1285" on="0"/>
        <pt x="1981" y="1285" on="1"/>
        <pt x="1929" y="1285" on="0"/>
        <pt x="1905" y="1263" on="1"/>
        <pt x="1867" y="1227" on="0"/>
        <pt x="1832" y="1135" on="1"/>
        <pt x="1403" y="9" on="1"/>
        <pt x="1378" y="-53" on="0"/>
        <pt x="1355" y="-53" on="1"/>
        <pt x="1326" y="-53" on="0"/>
        <pt x="1301" y="18" on="1"/>
        <pt x="1065" y="713" on="1"/>
        <pt x="771" y="9" on="1"/>
        <pt x="746" y="-53" on="0"/>
        <pt x="726" y="-53" on="1"/>
        <pt x="700" y="-53" on="0"/>
        <pt x="672" y="18" on="1"/>
        <pt x="206" y="1131" on="1"/>
        <pt x="164" y="1227" on="0"/>
        <pt x="144" y="1249" on="1"/>
        <pt x="111" y="1285" on="0"/>
        <pt x="20" y="1285" on="0"/>
        <pt x="20" y="1321" on="1"/>
        <pt x="20" y="1335" on="0"/>
        <pt x="52" y="1356" on="0"/>
        <pt x="108" y="1356" on="0"/>
        <pt x="144" y="1351" on="0"/>
        <pt x="162" y="1348" on="1"/>
        <pt x="212" y="1340" on="0"/>
        <pt x="262" y="1340" on="1"/>
        <pt x="435" y="1356" on="1"/>
        <pt x="500" y="1356" on="0"/>
        <pt x="500" y="1322" on="1"/>
        <pt x="500" y="1308" on="0"/>
        <pt x="478" y="1286" on="0"/>
        <pt x="425" y="1286" on="0"/>
        <pt x="388" y="1279" on="0"/>
        <pt x="378" y="1272" on="1"/>
        <pt x="362" y="1262" on="0"/>
        <pt x="362" y="1238" on="1"/>
        <pt x="362" y="1187" on="0"/>
        <pt x="402" y="1092" on="1"/>
        <pt x="765" y="221" on="1"/>
        <pt x="1021" y="841" on="1"/>
        <pt x="927" y="1120" on="1"/>
        <pt x="894" y="1217" on="0"/>
        <pt x="864" y="1244" on="1"/>
        <pt x="819" y="1283" on="0"/>
        <pt x="711" y="1286" on="0"/>
        <pt x="711" y="1321" on="1"/>
        <pt x="711" y="1335" on="0"/>
        <pt x="743" y="1356" on="0"/>
        <pt x="799" y="1356" on="0"/>
        <pt x="835" y="1351" on="0"/>
        <pt x="854" y="1348" on="1"/>
        <pt x="903" y="1340" on="0"/>
        <pt x="953" y="1340" on="1"/>
        <pt x="1175" y="1356" on="1"/>
        <pt x="1240" y="1356" on="0"/>
        <pt x="1240" y="1290" on="0"/>
        <pt x="1186" y="1290" on="1"/>
        <pt x="1082" y="1290" on="0"/>
        <pt x="1082" y="1225" on="1"/>
        <pt x="1082" y="1166" on="0"/>
        <pt x="1122" y="1051" on="1"/>
        <pt x="1403" y="230" on="1"/>
        <pt x="1711" y="1089" on="1"/>
        <pt x="1740" y="1171" on="0"/>
        <pt x="1740" y="1208" on="1"/>
        <pt x="1740" y="1290" on="0"/>
        <pt x="1616" y="1290" on="1"/>
        <pt x="1573" y="1290" on="0"/>
        <pt x="1573" y="1356" on="0"/>
        <pt x="1638" y="1356" on="1"/>
        <pt x="1670" y="1356" on="0"/>
        <pt x="1751" y="1340" on="0"/>
        <pt x="1810" y="1340" on="1"/>
      </contour>
    </TTGlyph>
    <TTGlyph name="X" xMin="35" yMin="-15" xMax="1284" yMax="1356">
      <contour>
        <pt x="98" y="-15" on="1"/>
        <pt x="35" y="-15" on="0"/>
        <pt x="35" y="54" on="0"/>
        <pt x="114" y="57" on="0"/>
        <pt x="173" y="81" on="0"/>
        <pt x="202" y="108" on="1"/>
        <pt x="251" y="153" on="0"/>
        <pt x="336" y="293" on="1"/>
        <pt x="572" y="687" on="1"/>
        <pt x="307" y="1130" on="1"/>
        <pt x="252" y="1225" on="0"/>
        <pt x="227" y="1249" on="1"/>
        <pt x="189" y="1286" on="0"/>
        <pt x="95" y="1286" on="0"/>
        <pt x="95" y="1356" on="0"/>
        <pt x="160" y="1356" on="1"/>
        <pt x="335" y="1340" on="1"/>
        <pt x="380" y="1340" on="0"/>
        <pt x="461" y="1356" on="0"/>
        <pt x="494" y="1356" on="1"/>
        <pt x="557" y="1356" on="0"/>
        <pt x="557" y="1325" on="1"/>
        <pt x="557" y="1303" on="0"/>
        <pt x="523" y="1291" on="0"/>
        <pt x="481" y="1285" on="0"/>
        <pt x="447" y="1275" on="0"/>
        <pt x="447" y="1256" on="1"/>
        <pt x="447" y="1219" on="0"/>
        <pt x="486" y="1152" on="1"/>
        <pt x="667" y="845" on="1"/>
        <pt x="850" y="1149" on="1"/>
        <pt x="893" y="1221" on="0"/>
        <pt x="893" y="1244" on="1"/>
        <pt x="893" y="1290" on="0"/>
        <pt x="815" y="1290" on="1"/>
        <pt x="779" y="1290" on="0"/>
        <pt x="779" y="1319" on="1"/>
        <pt x="779" y="1356" on="0"/>
        <pt x="844" y="1356" on="1"/>
        <pt x="976" y="1341" on="1"/>
        <pt x="1029" y="1341" on="0"/>
        <pt x="1113" y="1356" on="0"/>
        <pt x="1136" y="1356" on="1"/>
        <pt x="1199" y="1356" on="0"/>
        <pt x="1199" y="1285" on="0"/>
        <pt x="1122" y="1285" on="0"/>
        <pt x="1065" y="1269" on="0"/>
        <pt x="1036" y="1244" on="1"/>
        <pt x="979" y="1194" on="0"/>
        <pt x="898" y="1048" on="1"/>
        <pt x="722" y="753" on="1"/>
        <pt x="1025" y="242" on="1"/>
        <pt x="1136" y="56" on="0"/>
        <pt x="1241" y="56" on="1"/>
        <pt x="1284" y="56" on="0"/>
        <pt x="1284" y="-15" on="0"/>
        <pt x="1221" y="-15" on="1"/>
        <pt x="1195" y="-15" on="0"/>
        <pt x="1159" y="-10" on="0"/>
        <pt x="1141" y="-8" on="1"/>
        <pt x="1087" y="0" on="0"/>
        <pt x="1044" y="0" on="1"/>
        <pt x="877" y="-15" on="1"/>
        <pt x="812" y="-15" on="0"/>
        <pt x="812" y="22" on="1"/>
        <pt x="812" y="51" on="0"/>
        <pt x="871" y="51" on="0"/>
        <pt x="898" y="56" on="0"/>
        <pt x="904" y="61" on="1"/>
        <pt x="914" y="68" on="0"/>
        <pt x="914" y="87" on="1"/>
        <pt x="912" y="90" on="0"/>
        <pt x="895" y="149" on="0"/>
        <pt x="861" y="206" on="1"/>
        <pt x="627" y="595" on="1"/>
        <pt x="386" y="192" on="1"/>
        <pt x="343" y="120" on="0"/>
        <pt x="343" y="97" on="1"/>
        <pt x="343" y="51" on="0"/>
        <pt x="421" y="51" on="1"/>
        <pt x="457" y="51" on="0"/>
        <pt x="457" y="22" on="1"/>
        <pt x="457" y="-15" on="0"/>
        <pt x="392" y="-15" on="1"/>
        <pt x="260" y="0" on="1"/>
        <pt x="210" y="0" on="0"/>
        <pt x="120" y="-15" on="0"/>
      </contour>
    </TTGlyph>
</ttFont>
